if (_typeface_js && _typeface_js.loadFace) _typeface_js.loadFace({"glyphs":{"0":{"ha":861,"x_min":64,"x_max":796,"o":"m 429 1028 q 796 507 796 1028 q 429 -14 796 -14 q 160 107 256 -14 q 64 507 64 228 q 160 907 64 786 q 429 1028 256 1028 m 239 179 q 429 76 301 76 q 621 178 557 76 q 685 507 685 281 q 621 835 685 733 q 429 938 557 938 q 238 835 301 938 q 175 507 175 733 q 239 179 175 281 z "},"1":{"ha":861,"x_min":153,"x_max":551,"o":"m 440 0 l 440 890 l 438 890 l 153 660 l 153 782 l 440 1014 l 551 1014 l 551 0 l 440 0 z "},"2":{"ha":861,"x_min":115,"x_max":740,"o":"m 424 1028 q 654 952 572 1028 q 736 740 736 876 q 638 465 736 604 q 268 96 539 326 l 268 93 l 740 93 l 740 0 l 115 0 l 115 93 q 516 474 411 338 q 621 732 621 611 q 567 882 621 831 q 410 933 514 933 q 136 853 276 933 l 136 961 q 424 1028 265 1028 z "},"3":{"ha":861,"x_min":117,"x_max":739,"o":"m 117 1014 l 725 1014 l 725 921 l 393 594 l 393 592 l 435 592 q 660 521 582 592 q 739 315 739 450 q 645 72 739 157 q 378 -14 551 -14 q 126 39 236 -14 l 126 146 q 378 79 243 79 q 564 139 500 79 q 628 315 628 199 q 562 462 628 414 q 351 510 496 510 l 250 510 l 250 596 l 582 918 l 582 921 l 117 921 l 117 1014 z "},"4":{"ha":861,"x_min":21,"x_max":789,"o":"m 507 326 l 507 851 l 504 851 l 135 329 l 135 326 l 507 326 m 617 326 l 789 326 l 789 236 l 617 236 l 617 0 l 507 0 l 507 236 l 21 236 l 21 326 l 507 1014 l 617 1014 l 617 326 z "},"5":{"ha":861,"x_min":132,"x_max":753,"o":"m 711 921 l 272 921 l 253 593 l 256 593 q 440 642 338 642 q 671 561 589 642 q 753 333 753 481 q 658 75 753 164 q 379 -14 563 -14 q 132 39 246 -14 l 132 144 q 379 79 258 79 q 575 144 508 79 q 642 333 642 208 q 585 497 642 440 q 421 553 528 553 q 239 489 311 553 l 142 489 l 172 1014 l 711 1014 l 711 921 z "},"6":{"ha":861,"x_min":78,"x_max":796,"o":"m 696 996 l 696 897 q 492 935 600 935 q 284 838 364 935 q 194 558 204 742 l 197 557 q 467 676 283 676 q 706 585 617 676 q 796 343 796 494 q 699 81 796 176 q 439 -14 603 -14 q 78 444 78 -14 q 185 883 78 738 q 492 1028 293 1028 q 696 996 604 1028 m 439 79 q 620 147 556 79 q 685 343 685 215 q 618 523 685 456 q 443 590 551 590 q 264 523 333 590 q 194 351 194 456 q 255 163 194 247 q 439 79 315 79 z "},"7":{"ha":861,"x_min":108,"x_max":761,"o":"m 108 1014 l 761 1014 l 761 921 q 358 0 518 522 l 243 0 q 653 918 404 507 l 653 921 l 108 921 l 108 1014 z "},"8":{"ha":861,"x_min":64,"x_max":796,"o":"m 758 785 q 564 547 758 617 l 564 544 q 796 274 796 476 q 698 64 796 142 q 429 -14 600 -14 q 161 64 258 -14 q 64 274 64 142 q 124 432 64 363 q 294 536 183 501 l 294 539 q 151 638 201 574 q 100 785 100 701 q 188 961 100 894 q 429 1028 276 1028 q 670 961 582 1028 q 758 785 758 894 m 429 583 q 596 656 536 606 q 656 775 656 707 q 596 894 656 850 q 429 939 536 939 q 266 895 324 939 q 208 775 208 851 q 266 655 208 706 q 429 583 324 604 m 425 496 q 234 414 299 471 q 169 278 169 357 q 239 129 169 183 q 429 75 308 75 q 618 130 550 75 q 686 278 686 185 q 425 496 686 446 z "},"9":{"ha":861,"x_min":67,"x_max":785,"o":"m 153 117 q 369 79 257 79 q 584 174 504 79 q 667 457 664 269 l 664 458 q 396 338 581 338 q 156 431 244 338 q 67 685 67 524 q 165 935 67 842 q 424 1028 264 1028 q 785 583 785 1028 q 369 -14 785 -14 q 153 18 260 -14 l 153 117 m 424 935 q 244 869 311 935 q 178 685 178 803 q 243 493 178 563 q 418 424 308 424 q 599 494 529 424 q 668 676 668 564 q 655 760 668 718 q 615 843 642 803 q 538 909 588 883 q 424 935 489 935 z "}," ":{"ha":375,"x_min":0,"x_max":0,"o":""},"!":{"ha":449,"x_min":160,"x_max":289,"o":"m 160 1014 l 289 1014 l 275 282 l 174 282 l 160 1014 m 164 0 l 164 171 l 285 171 l 285 0 l 164 0 z "},"\"":{"ha":556,"x_min":97,"x_max":458,"o":"m 97 1069 l 208 1069 l 194 726 l 111 726 l 97 1069 m 347 1069 l 458 1069 l 444 726 l 361 726 l 347 1069 z "},"#":{"ha":942,"x_min":69,"x_max":872,"o":"m 69 267 l 69 356 l 239 356 l 297 686 l 140 686 l 140 775 l 314 775 l 356 1014 l 458 1014 l 415 775 l 619 775 l 661 1014 l 764 1014 l 721 775 l 872 775 l 872 686 l 706 686 l 647 356 l 801 356 l 801 267 l 631 267 l 583 0 l 482 0 l 529 267 l 325 267 l 278 0 l 176 0 l 224 267 l 69 267 m 603 686 l 400 686 l 342 356 l 544 356 l 603 686 z "},"$":{"ha":785,"x_min":76,"x_max":708,"o":"m 433 901 l 433 560 q 648 451 588 519 q 708 278 708 382 q 638 100 708 167 q 433 22 567 33 l 433 -118 l 344 -118 l 344 22 q 90 76 211 28 l 90 178 q 344 113 213 118 l 344 485 q 76 754 76 557 q 145 919 76 857 q 344 992 214 982 l 344 1132 l 433 1132 l 433 992 q 676 953 565 985 l 676 854 q 433 901 558 896 m 433 114 q 601 278 601 135 q 563 390 601 347 q 433 461 525 433 l 433 114 m 344 900 q 181 754 181 886 q 344 582 181 631 l 344 900 z "},"%":{"ha":1139,"x_min":56,"x_max":1083,"o":"m 792 1014 l 904 1014 l 347 0 l 235 0 l 792 1014 m 850 435 q 722 253 722 435 q 850 69 722 69 q 976 253 976 69 q 850 435 976 435 m 289 944 q 163 761 163 944 q 289 579 163 579 q 417 761 417 579 q 289 944 417 944 m 1022 57 q 850 -14 961 -14 q 677 56 739 -14 q 615 253 615 126 q 677 449 615 379 q 850 518 739 518 q 1022 449 961 518 q 1083 253 1083 379 q 1022 57 1083 126 m 463 565 q 289 496 400 496 q 117 565 178 496 q 56 761 56 635 q 117 958 56 888 q 289 1028 178 1028 q 462 958 400 1028 q 524 761 524 888 q 463 565 524 635 z "},"&":{"ha":996,"x_min":76,"x_max":989,"o":"m 393 486 q 234 355 281 413 q 188 240 188 297 q 244 118 188 161 q 406 75 300 75 q 555 97 490 75 q 692 172 619 119 l 393 486 m 479 540 l 726 278 l 726 581 l 831 581 l 831 167 l 989 0 l 856 0 l 763 99 q 400 -14 588 -14 q 158 51 240 -14 q 76 236 76 115 q 133 388 76 314 q 329 553 190 461 l 313 571 q 205 708 236 650 q 174 824 174 767 q 245 972 174 915 q 440 1028 317 1028 q 634 975 567 1028 q 701 829 701 922 q 653 688 701 753 q 479 540 604 624 m 415 608 q 562 727 526 683 q 597 824 597 771 q 440 940 597 940 q 325 908 367 940 q 283 824 283 876 q 307 739 283 779 q 415 608 331 699 z "},"'":{"ha":329,"x_min":104,"x_max":225,"o":"m 104 1069 l 225 1069 l 211 726 l 118 726 l 104 1069 z "},"(":{"ha":535,"x_min":97,"x_max":472,"o":"m 367 1069 l 472 1069 q 204 438 204 817 q 472 -194 204 58 l 367 -194 q 167 89 236 -74 q 97 438 97 251 q 167 786 97 624 q 367 1069 236 949 z "},")":{"ha":535,"x_min":63,"x_max":438,"o":"m 168 -194 l 63 -194 q 331 438 331 58 q 63 1069 331 817 l 168 1069 q 368 786 299 949 q 438 438 438 624 q 368 89 438 251 q 168 -194 299 -74 z "},"*":{"ha":732,"x_min":69,"x_max":663,"o":"m 663 794 l 433 722 l 576 531 l 504 478 l 365 674 l 228 478 l 156 531 l 299 722 l 69 794 l 97 879 l 325 801 l 321 1042 l 410 1042 l 407 801 l 635 879 l 663 794 z "},"+":{"ha":1018,"x_min":111,"x_max":907,"o":"m 556 806 l 556 447 l 907 447 l 907 358 l 556 358 l 556 0 l 463 0 l 463 358 l 111 358 l 111 447 l 463 447 l 463 806 l 556 806 z "},",":{"ha":422,"x_min":83,"x_max":325,"o":"m 185 190 l 325 190 l 186 -153 l 83 -153 l 185 190 z "},"-":{"ha":649,"x_min":111,"x_max":538,"o":"m 111 354 l 111 442 l 538 442 l 538 354 l 111 354 z "},".":{"ha":393,"x_min":132,"x_max":261,"o":"m 132 0 l 132 190 l 261 190 l 261 0 l 132 0 z "},"/":{"ha":704,"x_min":49,"x_max":635,"o":"m 635 1014 l 156 -56 l 49 -56 l 526 1014 l 635 1014 z "},":":{"ha":504,"x_min":188,"x_max":317,"o":"m 188 542 l 188 732 l 317 732 l 317 542 l 188 542 m 188 0 l 188 190 l 317 190 l 317 0 l 188 0 z "},";":{"ha":533,"x_min":111,"x_max":353,"o":"m 111 -153 l 213 190 l 353 190 l 214 -153 l 111 -153 m 206 542 l 206 732 l 336 732 l 336 542 l 206 542 z "},"<":{"ha":926,"x_min":90,"x_max":794,"o":"m 794 685 l 158 404 l 158 401 l 794 121 l 794 24 l 90 346 l 90 460 l 794 782 l 794 685 z "},"=":{"ha":1046,"x_min":125,"x_max":921,"o":"m 125 518 l 125 607 l 921 607 l 921 518 l 125 518 m 125 199 l 125 288 l 921 288 l 921 199 l 125 199 z "},">":{"ha":926,"x_min":132,"x_max":836,"o":"m 132 685 l 132 782 l 836 460 l 836 346 l 132 24 l 132 121 l 767 401 l 767 404 l 132 685 z "},"?":{"ha":865,"x_min":118,"x_max":775,"o":"m 660 792 q 424 933 660 933 q 118 882 278 933 l 118 983 q 438 1028 276 1028 q 688 967 600 1028 q 775 801 775 907 q 762 713 775 751 q 719 642 749 674 q 667 592 689 610 q 603 546 644 574 q 536 499 558 515 q 484 449 514 482 q 441 377 454 417 q 428 288 428 338 l 317 288 q 332 397 317 349 q 382 483 347 444 q 441 540 417 521 q 513 592 465 560 q 588 647 564 626 q 636 706 613 667 q 660 792 660 744 m 313 0 l 313 171 l 433 171 l 433 0 l 313 0 z "},"@":{"ha":1143,"x_min":56,"x_max":1088,"o":"m 706 157 l 703 157 q 521 65 635 65 q 355 143 418 65 q 292 361 292 221 q 353 580 292 503 q 521 657 415 657 q 704 567 633 657 l 706 567 l 706 646 l 814 646 l 814 160 l 960 160 q 1004 361 1004 249 q 885 675 1004 556 q 572 794 765 794 q 260 674 381 794 q 139 361 139 553 q 260 49 139 169 q 572 -72 381 -72 q 829 6 719 -72 l 878 -61 q 572 -156 747 -156 q 203 -11 350 -156 q 56 361 56 133 q 202 733 56 588 q 572 878 349 878 q 944 735 800 878 q 1088 361 1088 592 q 1011 76 1088 201 l 708 76 l 706 157 m 551 156 q 660 206 621 156 q 700 349 700 256 l 700 374 q 660 516 700 465 q 551 567 619 567 q 441 513 481 567 q 401 361 401 460 q 442 209 401 263 q 551 156 483 156 z "},"A":{"ha":921,"x_min":42,"x_max":879,"o":"m 42 0 l 399 1014 l 524 1014 l 879 0 l 761 0 l 664 296 l 254 296 l 157 0 l 42 0 m 283 385 l 635 385 l 460 914 l 457 914 l 283 385 z "},"B":{"ha":831,"x_min":118,"x_max":775,"o":"m 775 292 q 378 -14 775 -14 q 118 8 247 -14 l 118 1006 q 364 1028 240 1028 q 729 782 729 1028 q 674 635 729 696 q 521 553 618 574 l 521 550 q 708 461 642 532 q 775 292 775 390 m 667 301 q 322 501 667 501 l 229 501 l 229 89 q 378 76 297 76 q 667 301 667 76 m 229 590 l 322 590 q 625 768 625 590 q 563 896 625 854 q 364 938 500 938 q 229 925 292 938 l 229 590 z "},"C":{"ha":851,"x_min":56,"x_max":740,"o":"m 507 79 q 740 119 625 79 l 740 21 q 497 -14 621 -14 q 176 123 297 -14 q 56 507 56 260 q 172 890 56 753 q 493 1028 288 1028 q 733 993 619 1028 l 733 894 q 503 935 618 935 q 257 822 346 935 q 168 507 168 710 q 260 192 168 306 q 507 79 353 79 z "},"D":{"ha":914,"x_min":118,"x_max":858,"o":"m 753 521 q 658 834 753 733 q 364 935 563 935 q 229 922 292 935 l 229 92 q 364 79 292 79 q 659 183 565 79 q 753 521 753 288 m 858 521 q 364 -14 858 -14 q 118 8 240 -14 l 118 1006 q 364 1028 243 1028 q 858 521 858 1028 z "},"E":{"ha":815,"x_min":118,"x_max":711,"o":"m 711 921 l 229 921 l 229 590 l 683 590 l 683 501 l 229 501 l 229 93 l 711 93 l 711 0 l 118 0 l 118 1014 l 711 1014 l 711 921 z "},"F":{"ha":794,"x_min":118,"x_max":697,"o":"m 697 921 l 229 921 l 229 576 l 669 576 l 669 488 l 229 488 l 229 0 l 118 0 l 118 1014 l 697 1014 l 697 921 z "},"G":{"ha":954,"x_min":56,"x_max":843,"o":"m 407 590 l 843 590 l 843 47 q 528 -14 697 -14 q 188 127 319 -14 q 56 507 56 268 q 189 888 56 749 q 551 1028 322 1028 q 796 996 681 1028 l 796 899 q 560 938 675 938 q 272 824 375 938 q 168 507 168 711 q 269 192 168 308 q 538 76 371 76 q 736 111 640 76 l 736 501 l 407 501 l 407 590 z "},"H":{"ha":940,"x_min":118,"x_max":822,"o":"m 229 1014 l 229 590 l 711 590 l 711 1014 l 822 1014 l 822 0 l 711 0 l 711 501 l 229 501 l 229 0 l 118 0 l 118 1014 l 229 1014 z "},"I":{"ha":440,"x_min":160,"x_max":281,"o":"m 160 0 l 160 1014 l 281 1014 l 281 0 l 160 0 z "},"J":{"ha":733,"x_min":56,"x_max":629,"o":"m 514 1014 l 629 1014 l 629 333 q 549 69 629 153 q 301 -14 469 -14 q 56 28 168 -14 l 56 131 q 301 79 181 79 q 463 144 411 79 q 514 361 514 210 l 514 1014 z "},"K":{"ha":851,"x_min":118,"x_max":803,"o":"m 229 1014 l 229 563 l 232 563 l 656 1014 l 789 1014 l 329 528 l 803 0 l 669 0 l 232 494 l 229 494 l 229 0 l 118 0 l 118 1014 l 229 1014 z "},"L":{"ha":808,"x_min":118,"x_max":725,"o":"m 233 1014 l 233 94 l 725 94 l 725 0 l 118 0 l 118 1014 l 233 1014 z "},"M":{"ha":1135,"x_min":118,"x_max":1017,"o":"m 118 0 l 118 1014 l 232 1014 l 564 403 l 567 403 l 899 1014 l 1017 1014 l 1017 0 l 906 0 l 906 828 l 903 828 l 617 301 l 514 301 l 228 828 l 225 828 l 225 0 l 118 0 z "},"N":{"ha":954,"x_min":118,"x_max":836,"o":"m 118 0 l 118 1014 l 233 1014 l 724 181 l 726 181 l 726 1014 l 836 1014 l 836 0 l 721 0 l 231 833 l 228 833 l 228 0 l 118 0 z "},"O":{"ha":990,"x_min":56,"x_max":935,"o":"m 739 826 q 496 935 654 935 q 253 826 338 935 q 168 507 168 718 q 253 188 168 296 q 496 79 338 79 q 738 188 654 79 q 822 507 822 296 q 739 826 822 718 m 496 -14 q 173 123 290 -14 q 56 507 56 260 q 173 891 56 754 q 496 1028 290 1028 q 817 891 700 1028 q 935 507 935 754 q 817 123 935 260 q 496 -14 700 -14 z "},"P":{"ha":833,"x_min":118,"x_max":785,"o":"m 118 1006 q 400 1028 263 1028 q 687 948 589 1028 q 785 719 785 868 q 686 475 785 558 q 400 392 588 392 q 229 400 308 392 l 229 0 l 118 0 l 118 1006 m 229 492 q 392 481 310 481 q 602 540 529 481 q 675 711 675 600 q 603 880 675 822 q 392 938 532 938 q 229 924 315 938 l 229 492 z "},"Q":{"ha":1035,"x_min":56,"x_max":1042,"o":"m 496 1028 q 817 891 700 1028 q 935 507 935 754 q 873 215 935 335 q 697 40 811 96 l 697 38 q 894 -54 803 13 q 1042 -208 986 -121 l 910 -208 q 746 -56 836 -99 q 496 -14 656 -14 q 173 123 290 -14 q 56 507 56 260 q 173 891 56 754 q 496 1028 290 1028 m 253 188 q 496 79 338 79 q 738 188 654 79 q 822 507 822 296 q 738 826 822 718 q 496 935 654 935 q 253 826 338 935 q 168 507 168 718 q 253 188 168 296 z "},"R":{"ha":861,"x_min":118,"x_max":799,"o":"m 118 0 l 118 1007 q 378 1028 239 1028 q 672 956 572 1028 q 771 753 771 885 q 714 576 771 647 q 553 479 657 506 l 553 476 q 676 296 615 443 l 799 0 l 683 0 l 564 293 q 485 417 522 393 q 340 442 449 442 l 229 442 l 229 0 l 118 0 m 229 531 l 340 531 q 583 584 506 531 q 661 743 661 638 q 368 938 661 938 q 229 925 294 938 l 229 531 z "},"S":{"ha":768,"x_min":83,"x_max":685,"o":"m 368 1028 q 650 969 519 1028 l 650 864 q 378 938 515 938 q 244 899 294 938 q 193 781 193 860 q 374 583 193 643 q 615 453 546 526 q 685 264 685 379 q 603 57 685 128 q 364 -14 522 -14 q 100 53 219 -14 l 100 163 q 354 79 218 79 q 574 264 574 79 q 526 389 574 339 q 371 476 479 439 q 83 781 83 574 q 158 963 83 897 q 368 1028 233 1028 z "},"T":{"ha":879,"x_min":83,"x_max":796,"o":"m 83 1014 l 796 1014 l 796 919 l 496 919 l 496 0 l 385 0 l 385 919 l 83 919 l 83 1014 z "},"U":{"ha":913,"x_min":104,"x_max":808,"o":"m 217 1014 l 217 343 q 276 144 217 208 q 458 81 336 81 q 640 144 581 81 q 699 343 699 208 l 699 1014 l 808 1014 l 808 347 q 718 77 808 168 q 456 -14 628 -14 q 194 77 285 -14 q 104 347 104 168 l 104 1014 l 217 1014 z "},"V":{"ha":921,"x_min":42,"x_max":879,"o":"m 161 1014 l 461 110 l 464 110 l 764 1014 l 879 1014 l 524 0 l 399 0 l 42 1014 l 161 1014 z "},"W":{"ha":1222,"x_min":63,"x_max":1160,"o":"m 176 1014 l 353 119 l 356 119 l 540 1014 l 685 1014 l 871 119 l 874 119 l 1050 1014 l 1160 1014 l 938 0 l 799 0 l 613 894 l 610 894 l 424 0 l 285 0 l 63 1014 l 176 1014 z "},"X":{"ha":903,"x_min":76,"x_max":826,"o":"m 213 1014 l 451 592 l 454 592 l 694 1014 l 819 1014 l 522 514 l 826 0 l 696 0 l 451 436 l 449 436 l 203 0 l 76 0 l 381 514 l 83 1014 l 213 1014 z "},"Y":{"ha":903,"x_min":42,"x_max":861,"o":"m 172 1014 l 451 522 l 454 522 l 735 1014 l 861 1014 l 510 429 l 510 0 l 393 0 l 393 429 l 42 1014 l 172 1014 z "},"Z":{"ha":857,"x_min":104,"x_max":753,"o":"m 104 1014 l 753 1014 l 753 921 l 235 96 l 235 93 l 753 93 l 753 0 l 104 0 l 104 93 l 622 918 l 622 921 l 104 921 l 104 1014 z "},"[":{"ha":653,"x_min":160,"x_max":535,"o":"m 261 986 l 261 -111 l 535 -111 l 535 -194 l 160 -194 l 160 1069 l 535 1069 l 535 986 l 261 986 z "},"\\":{"ha":704,"x_min":69,"x_max":656,"o":"m 69 1014 l 176 1014 l 656 -56 l 547 -56 l 69 1014 z "},"]":{"ha":653,"x_min":118,"x_max":493,"o":"m 392 986 l 118 986 l 118 1069 l 493 1069 l 493 -194 l 118 -194 l 118 -111 l 392 -111 l 392 986 z "},"^":{"ha":879,"x_min":56,"x_max":824,"o":"m 56 389 l 372 1014 l 507 1014 l 824 389 l 710 389 l 440 943 l 439 943 l 169 389 l 56 389 z "},"_":{"ha":782,"x_min":-3,"x_max":785,"o":"m -3 -194 l -3 -111 l 785 -111 l 785 -194 l -3 -194 z "},"`":{"ha":378,"x_min":21,"x_max":322,"o":"m 161 1125 l 322 774 l 228 774 l 21 1125 l 161 1125 z "},"a":{"ha":740,"x_min":69,"x_max":643,"o":"m 538 458 l 538 496 q 499 615 538 581 q 361 649 460 649 q 108 596 243 649 l 108 692 q 361 736 233 736 q 582 678 521 736 q 643 468 643 619 l 643 0 l 543 0 l 542 124 l 539 124 q 282 -14 456 -14 q 128 46 188 -14 q 69 204 69 106 q 161 389 69 319 q 454 458 253 458 l 538 458 m 538 382 l 454 382 q 247 338 317 382 q 176 213 176 293 q 212 112 176 150 q 306 74 247 74 q 472 140 406 74 q 538 317 538 207 l 538 382 z "},"b":{"ha":803,"x_min":111,"x_max":740,"o":"m 218 1042 l 218 628 l 221 628 q 449 736 310 736 q 662 638 583 736 q 740 361 740 540 q 659 87 740 188 q 449 -14 578 -14 q 215 103 307 -14 l 213 103 l 211 0 l 111 0 l 111 1042 l 218 1042 m 635 361 q 426 653 635 653 q 281 596 344 653 q 218 468 218 539 l 218 254 q 282 126 218 182 q 426 69 346 69 q 580 143 525 69 q 635 361 635 217 z "},"c":{"ha":685,"x_min":56,"x_max":588,"o":"m 389 650 q 167 361 167 650 q 225 142 167 211 q 403 72 283 72 q 588 110 497 72 l 588 17 q 396 -14 490 -14 q 144 81 232 -14 q 56 361 56 176 q 141 640 56 544 q 382 736 226 736 q 581 711 486 736 l 581 618 q 389 650 490 650 z "},"d":{"ha":803,"x_min":63,"x_max":692,"o":"m 586 1042 l 692 1042 l 692 0 l 592 0 l 590 103 l 588 103 q 354 -14 496 -14 q 144 87 225 -14 q 63 361 63 188 q 141 638 63 540 q 354 736 219 736 q 583 628 494 736 l 586 628 l 586 1042 m 169 361 q 224 143 169 217 q 378 69 279 69 q 522 126 458 69 q 586 254 586 182 l 586 468 q 523 596 586 539 q 378 653 460 653 q 169 361 169 653 z "},"e":{"ha":729,"x_min":56,"x_max":667,"o":"m 163 333 q 414 67 171 67 q 621 113 510 67 l 621 21 q 406 -14 507 -14 q 145 81 235 -14 q 56 361 56 175 q 141 645 56 554 q 375 736 226 736 q 667 371 667 736 q 664 333 667 358 l 163 333 m 164 415 l 563 415 q 375 656 558 656 q 164 415 178 656 z "},"f":{"ha":706,"x_min":76,"x_max":608,"o":"m 76 694 l 247 694 l 247 774 q 303 967 247 907 q 483 1028 360 1028 q 608 1007 546 1028 l 608 922 q 503 944 553 944 q 390 908 422 944 q 358 778 358 872 l 358 694 l 594 694 l 594 611 l 358 611 l 358 0 l 247 0 l 247 611 l 76 611 l 76 694 z "},"g":{"ha":782,"x_min":63,"x_max":678,"o":"m 678 722 l 678 42 q 597 -233 678 -146 q 344 -319 517 -319 q 142 -289 235 -319 l 142 -196 q 344 -236 239 -236 q 519 -172 465 -236 q 572 38 572 -108 l 572 107 l 569 107 q 343 0 485 0 q 140 98 217 0 q 63 371 63 196 q 140 646 63 556 q 343 736 217 736 q 574 619 483 736 l 576 619 l 578 722 l 678 722 m 169 371 q 223 157 169 231 q 371 83 276 83 q 512 143 451 83 q 572 286 572 203 l 572 447 q 512 592 572 531 q 371 653 451 653 q 169 371 169 653 z "},"h":{"ha":792,"x_min":111,"x_max":694,"o":"m 218 1042 l 218 613 l 221 613 q 454 736 319 736 q 638 666 581 736 q 694 431 694 596 l 694 0 l 590 0 l 590 413 q 553 601 590 553 q 426 649 517 649 q 286 580 354 649 q 218 439 218 511 l 218 0 l 111 0 l 111 1042 l 218 1042 z "},"i":{"ha":431,"x_min":160,"x_max":271,"o":"m 160 0 l 160 722 l 271 722 l 271 0 l 160 0 m 160 893 l 160 1042 l 271 1042 l 271 893 l 160 893 z "},"k":{"ha":767,"x_min":111,"x_max":704,"o":"m 218 1042 l 218 400 l 221 400 l 569 722 l 701 722 l 322 375 l 704 0 l 574 0 l 221 350 l 218 350 l 218 0 l 111 0 l 111 1042 l 218 1042 z "},"l":{"ha":431,"x_min":160,"x_max":271,"o":"m 160 0 l 160 1042 l 271 1042 l 271 0 l 160 0 z "},"m":{"ha":1090,"x_min":104,"x_max":993,"o":"m 206 722 l 208 624 l 211 624 q 400 736 290 736 q 508 706 467 736 q 576 607 550 676 l 579 607 q 782 736 658 736 q 943 672 893 736 q 993 458 993 608 l 993 0 l 889 0 l 889 431 q 859 606 889 560 q 754 653 829 653 q 652 598 703 653 q 601 485 601 543 l 601 0 l 497 0 l 497 431 q 467 606 497 560 q 363 653 436 653 q 261 598 311 653 q 211 485 211 543 l 211 0 l 104 0 l 104 722 l 206 722 z "},"n":{"ha":785,"x_min":104,"x_max":688,"o":"m 204 722 l 206 614 l 208 614 q 447 736 308 736 q 631 665 574 736 q 688 431 688 594 l 688 0 l 583 0 l 583 417 q 546 603 583 554 q 419 653 508 653 q 279 585 347 653 q 211 447 211 518 l 211 0 l 104 0 l 104 722 l 204 722 z "},"o":{"ha":774,"x_min":56,"x_max":718,"o":"m 143 638 q 386 736 231 736 q 630 638 542 736 q 718 361 718 539 q 630 85 718 183 q 386 -14 542 -14 q 143 85 231 -14 q 56 361 56 183 q 143 638 56 539 m 164 361 q 386 69 164 69 q 608 361 608 69 q 386 653 608 653 q 164 361 164 653 z "},"p":{"ha":796,"x_min":104,"x_max":733,"o":"m 104 722 l 204 722 l 206 618 l 208 618 q 442 736 300 736 q 655 638 576 736 q 733 361 733 540 q 652 87 733 188 q 442 -14 571 -14 q 214 94 300 -14 l 211 94 l 211 -306 l 104 -306 l 104 722 m 628 361 q 419 653 628 653 q 273 595 335 653 q 211 460 211 538 l 211 263 q 274 126 211 183 q 419 69 336 69 q 573 144 518 69 q 628 361 628 218 z "},"q":{"ha":796,"x_min":63,"x_max":692,"o":"m 692 722 l 692 -306 l 586 -306 l 586 94 l 583 94 q 354 -14 499 -14 q 144 87 225 -14 q 63 361 63 188 q 141 638 63 540 q 354 736 219 736 q 588 618 496 736 l 590 618 l 592 722 l 692 722 m 169 361 q 224 144 169 218 q 378 69 279 69 q 524 126 461 69 q 586 263 586 183 l 586 460 q 524 595 586 538 q 378 653 463 653 q 169 361 169 653 z "},"r":{"ha":625,"x_min":104,"x_max":549,"o":"m 104 722 l 211 722 l 211 561 l 214 561 q 339 678 257 635 q 521 722 421 722 l 549 722 l 549 629 l 521 629 q 296 554 376 629 q 215 342 215 479 l 215 0 l 104 0 l 104 722 z "},"s":{"ha":690,"x_min":83,"x_max":607,"o":"m 357 653 q 190 546 190 653 q 223 467 190 497 q 343 417 256 436 q 550 332 493 383 q 607 185 607 281 q 535 39 607 92 q 333 -14 464 -14 q 97 32 204 -14 l 97 121 q 324 69 208 69 q 500 185 500 69 q 465 268 500 235 q 332 324 429 301 q 140 406 197 356 q 83 538 83 457 q 151 683 83 629 q 347 736 219 736 q 582 699 465 736 l 582 610 q 357 653 467 653 z "},"t":{"ha":697,"x_min":69,"x_max":593,"o":"m 331 958 l 331 694 l 593 694 l 593 611 l 331 611 l 331 232 q 357 101 331 132 q 458 69 383 69 q 574 89 521 69 l 574 3 q 440 -14 508 -14 q 272 37 318 -14 q 225 222 225 88 l 225 611 l 69 611 l 69 694 l 225 694 l 225 958 l 331 958 z "},"u":{"ha":778,"x_min":97,"x_max":674,"o":"m 97 722 l 201 722 l 201 288 q 239 116 201 163 q 358 69 276 69 q 500 134 433 69 q 567 275 567 199 l 567 722 l 674 722 l 674 0 l 574 0 l 572 108 l 569 108 q 331 -14 474 -14 q 153 53 210 -14 q 97 274 97 119 l 97 722 z "},"v":{"ha":760,"x_min":49,"x_max":711,"o":"m 164 722 l 381 63 l 383 63 l 599 722 l 711 722 l 451 0 l 308 0 l 49 722 l 164 722 z "},"w":{"ha":1097,"x_min":63,"x_max":1035,"o":"m 178 722 l 329 92 l 332 92 l 479 722 l 622 722 l 769 92 l 772 92 l 924 722 l 1035 722 l 836 0 l 697 0 l 550 621 l 547 621 l 400 0 l 261 0 l 63 722 l 178 722 z "},"x":{"ha":754,"x_min":69,"x_max":685,"o":"m 196 722 l 378 435 l 381 435 l 563 722 l 678 722 l 439 367 l 685 0 l 565 0 l 376 299 l 374 299 l 186 0 l 69 0 l 317 367 l 76 722 l 196 722 z "},"y":{"ha":760,"x_min":49,"x_max":711,"o":"m 161 722 l 369 128 l 372 128 l 603 722 l 711 722 l 288 -306 l 179 -306 l 315 6 l 49 722 l 161 722 z "},"z":{"ha":746,"x_min":104,"x_max":642,"o":"m 104 722 l 642 722 l 642 639 l 232 86 l 232 83 l 642 83 l 642 0 l 104 0 l 104 83 l 514 636 l 514 639 l 104 639 l 104 722 z "},"{":{"ha":713,"x_min":83,"x_max":588,"o":"m 588 986 l 496 986 q 391 957 421 986 q 361 833 361 928 l 361 649 q 246 439 361 492 l 246 436 q 361 226 361 383 l 361 42 q 391 -82 361 -53 q 496 -111 421 -111 l 588 -111 l 588 -194 l 449 -194 q 304 -146 349 -194 q 260 14 260 -97 l 260 222 q 143 393 260 393 l 83 393 l 83 482 l 143 482 q 260 653 260 482 l 260 861 q 304 1021 260 972 q 449 1069 349 1069 l 588 1069 l 588 986 z "},"|":{"ha":476,"x_min":188,"x_max":289,"o":"m 188 -306 l 188 1125 l 289 1125 l 289 -306 l 188 -306 z "},"}":{"ha":713,"x_min":125,"x_max":629,"o":"m 125 986 l 125 1069 l 264 1069 q 409 1021 364 1069 q 454 861 454 972 l 454 653 q 569 482 454 482 l 629 482 l 629 393 l 569 393 q 454 222 454 393 l 454 14 q 409 -146 454 -97 q 264 -194 364 -194 l 125 -194 l 125 -111 l 218 -111 q 322 -82 293 -111 q 351 42 351 -53 l 351 226 q 468 436 351 383 l 468 439 q 351 649 351 492 l 351 833 q 322 957 351 928 q 218 986 293 986 l 125 986 z "},"~":{"ha":968,"x_min":76,"x_max":892,"o":"m 314 453 q 222 428 263 453 q 142 346 182 403 l 76 397 q 314 542 168 542 q 508 451 418 542 q 654 381 579 381 q 746 406 706 381 q 826 488 786 431 l 892 436 q 654 292 800 292 q 458 382 549 292 q 314 453 388 453 z "},"§":{"ha":722,"x_min":83,"x_max":639,"o":"m 361 -208 q 115 -158 224 -208 l 115 -60 q 351 -118 229 -118 q 483 -80 435 -118 q 531 21 531 -42 q 492 115 531 79 q 357 171 454 151 q 147 260 211 200 q 83 418 83 321 q 194 610 83 547 q 90 799 90 672 q 165 963 90 899 q 361 1028 240 1028 q 607 978 499 1028 l 607 879 q 371 938 493 938 q 240 899 288 938 q 192 799 192 861 q 230 704 192 740 q 365 649 268 668 q 575 559 511 619 q 639 401 639 499 q 528 210 639 272 q 632 21 632 147 q 557 -144 632 -79 q 361 -208 482 -208 m 276 574 q 174 433 174 535 q 218 327 174 367 q 369 265 263 288 q 446 246 418 256 q 549 386 549 285 q 504 492 549 453 q 353 554 460 532 q 276 574 304 564 z "},"¨":{"ha":615,"x_min":118,"x_max":497,"o":"m 396 847 l 396 1024 l 497 1024 l 497 847 l 396 847 m 118 847 l 118 1024 l 219 1024 l 219 847 l 118 847 z "},"°":{"ha":551,"x_min":63,"x_max":489,"o":"m 125 664 q 63 815 63 726 q 124 966 63 904 q 275 1028 186 1028 q 426 966 364 1028 q 489 815 489 904 q 426 664 489 726 q 275 601 364 601 q 125 664 186 601 m 183 907 q 146 815 146 869 q 183 723 146 761 q 275 685 221 685 q 367 723 329 685 q 406 815 406 761 q 367 907 406 869 q 275 944 329 944 q 183 907 221 944 z "},"±":{"ha":1046,"x_min":125,"x_max":921,"o":"m 125 -56 l 125 32 l 921 32 l 921 -56 l 125 -56 m 569 903 l 569 563 l 921 563 l 921 475 l 569 475 l 569 135 l 476 135 l 476 475 l 125 475 l 125 563 l 476 563 l 476 903 l 569 903 z "},"´":{"ha":375,"x_min":56,"x_max":354,"o":"m 160 819 l 56 819 l 213 1051 l 354 1051 l 160 819 z "},"¶":{"ha":875,"x_min":49,"x_max":757,"o":"m 368 375 q 142 469 236 375 q 49 694 49 563 q 142 920 49 826 q 368 1014 236 1014 l 757 1014 l 757 -194 l 660 -194 l 660 926 l 465 926 l 465 -194 l 368 -194 l 368 375 z "},"×":{"ha":842,"x_min":63,"x_max":779,"o":"m 779 113 l 711 44 l 421 335 l 131 44 l 63 113 l 353 403 l 63 693 l 132 761 l 421 471 l 711 761 l 779 693 l 490 403 l 779 113 z "},"÷":{"ha":1018,"x_min":111,"x_max":907,"o":"m 449 0 l 449 190 l 569 190 l 569 0 l 449 0 m 449 615 l 449 806 l 569 806 l 569 615 l 449 615 m 111 358 l 111 447 l 907 447 l 907 358 l 111 358 z "},"Α":{"ha":921,"x_min":42,"x_max":879,"o":"m 460 914 l 457 914 l 283 385 l 635 385 l 460 914 m 664 296 l 254 296 l 157 0 l 42 0 l 399 1014 l 524 1014 l 879 0 l 761 0 l 664 296 z "},"Β":{"ha":831,"x_min":118,"x_max":775,"o":"m 775 292 q 378 -14 775 -14 q 118 8 247 -14 l 118 1006 q 364 1028 240 1028 q 729 782 729 1028 q 674 635 729 696 q 521 553 618 574 l 521 550 q 709 464 643 532 q 775 292 775 396 m 667 301 q 585 453 667 404 q 322 501 504 501 l 229 501 l 229 89 q 378 76 297 76 q 667 301 667 76 m 229 590 l 322 590 q 625 768 625 590 q 563 896 625 854 q 364 938 500 938 q 229 925 292 938 l 229 590 z "},"Γ":{"ha":774,"x_min":118,"x_max":697,"o":"m 233 917 l 233 0 l 118 0 l 118 1014 l 697 1014 l 697 917 l 233 917 z "},"Δ":{"ha":921,"x_min":42,"x_max":879,"o":"m 460 914 l 457 914 l 188 92 l 731 92 l 460 914 m 761 0 l 157 0 l 108 0 l 42 0 l 399 1014 l 524 1014 l 879 0 l 813 0 l 761 0 z "},"Ε":{"ha":815,"x_min":118,"x_max":711,"o":"m 229 921 l 229 590 l 683 590 l 683 501 l 229 501 l 229 93 l 711 93 l 711 0 l 118 0 l 118 1014 l 711 1014 l 711 921 l 229 921 z "},"Ζ":{"ha":857,"x_min":104,"x_max":753,"o":"m 622 918 l 622 921 l 104 921 l 104 1014 l 753 1014 l 753 921 l 235 96 l 235 93 l 753 93 l 753 0 l 104 0 l 104 93 l 622 918 z "},"Η":{"ha":940,"x_min":118,"x_max":822,"o":"m 229 1014 l 229 590 l 711 590 l 711 1014 l 822 1014 l 822 0 l 711 0 l 711 501 l 229 501 l 229 0 l 118 0 l 118 1014 l 229 1014 z "},"Θ":{"ha":990,"x_min":56,"x_max":935,"o":"m 282 461 l 282 553 l 708 553 l 708 461 l 282 461 m 496 1028 q 817 891 700 1028 q 935 507 935 754 q 817 123 935 260 q 496 -14 700 -14 q 173 123 290 -14 q 56 507 56 260 q 173 891 56 754 q 496 1028 290 1028 m 253 188 q 496 79 338 79 q 738 188 654 79 q 822 507 822 296 q 738 826 822 718 q 496 935 654 935 q 253 826 338 935 q 168 507 168 718 q 253 188 168 296 z "},"Ι":{"ha":440,"x_min":160,"x_max":281,"o":"m 160 0 l 160 1014 l 281 1014 l 281 0 l 160 0 z "},"Κ":{"ha":851,"x_min":118,"x_max":803,"o":"m 232 493 l 229 493 l 229 0 l 118 0 l 118 1014 l 229 1014 l 229 563 l 232 563 l 656 1014 l 789 1014 l 329 528 l 803 0 l 669 0 l 232 493 z "},"Λ":{"ha":921,"x_min":42,"x_max":879,"o":"m 157 0 l 42 0 l 399 1014 l 524 1014 l 879 0 l 761 0 l 460 914 l 457 914 l 157 0 z "},"Μ":{"ha":1135,"x_min":118,"x_max":1017,"o":"m 906 0 l 906 828 l 903 828 l 617 301 l 514 301 l 228 828 l 225 828 l 225 0 l 118 0 l 118 1014 l 232 1014 l 564 403 l 567 403 l 899 1014 l 1017 1014 l 1017 0 l 906 0 z "},"Ν":{"ha":954,"x_min":118,"x_max":836,"o":"m 118 0 l 118 1014 l 233 1014 l 724 181 l 726 181 l 726 1014 l 836 1014 l 836 0 l 721 0 l 231 833 l 228 833 l 228 0 l 118 0 z "},"Ξ":{"ha":843,"x_min":104,"x_max":739,"o":"m 104 0 l 104 93 l 739 93 l 739 0 l 104 0 m 132 501 l 132 590 l 711 590 l 711 501 l 132 501 m 104 921 l 104 1014 l 739 1014 l 739 921 l 104 921 z "},"Ο":{"ha":1115,"x_min":118,"x_max":997,"o":"m 801 188 q 885 507 885 296 q 801 826 885 718 q 558 935 717 935 q 315 826 400 935 q 231 507 231 718 q 315 188 231 296 q 558 79 400 79 q 801 188 717 79 m 558 -14 q 235 123 353 -14 q 118 507 118 260 q 235 891 118 754 q 558 1028 353 1028 q 880 891 763 1028 q 997 507 997 754 q 880 123 997 260 q 558 -14 763 -14 z "},"Π":{"ha":954,"x_min":118,"x_max":836,"o":"m 118 1014 l 836 1014 l 836 0 l 725 0 l 725 921 l 229 921 l 229 0 l 118 0 l 118 1014 z "},"Ρ":{"ha":833,"x_min":118,"x_max":785,"o":"m 118 1006 q 400 1028 263 1028 q 687 948 589 1028 q 785 719 785 868 q 686 475 785 558 q 400 392 588 392 q 229 400 308 392 l 229 0 l 118 0 l 118 1006 m 229 492 q 392 481 310 481 q 602 540 529 481 q 675 711 675 600 q 603 880 675 822 q 392 938 532 938 q 229 924 315 938 l 229 492 z "},"Σ":{"ha":788,"x_min":97,"x_max":690,"o":"m 219 921 l 515 531 l 219 93 l 690 93 l 690 0 l 97 0 l 97 93 l 393 531 l 97 921 l 97 1014 l 690 1014 l 690 921 l 219 921 z "},"Τ":{"ha":879,"x_min":83,"x_max":796,"o":"m 796 1014 l 796 919 l 496 919 l 496 0 l 385 0 l 385 919 l 83 919 l 83 1014 l 796 1014 z "},"Υ":{"ha":903,"x_min":42,"x_max":861,"o":"m 735 1014 l 861 1014 l 510 429 l 510 0 l 393 0 l 393 429 l 42 1014 l 172 1014 l 451 522 l 454 522 l 735 1014 z "},"Φ":{"ha":986,"x_min":49,"x_max":938,"o":"m 549 892 q 833 775 728 876 q 938 514 938 674 q 833 253 938 354 q 549 136 728 151 l 549 0 l 438 0 l 438 136 q 153 253 258 151 q 49 514 49 354 q 153 775 49 674 q 438 892 258 876 l 438 1014 l 549 1014 l 549 892 m 549 229 q 756 317 681 243 q 831 514 831 392 q 756 710 831 636 q 549 799 681 785 l 549 229 m 438 799 q 231 710 306 785 q 156 514 156 636 q 231 317 156 392 q 438 229 306 243 l 438 799 z "},"Χ":{"ha":903,"x_min":76,"x_max":826,"o":"m 694 1014 l 819 1014 l 522 514 l 826 0 l 696 0 l 451 436 l 449 436 l 203 0 l 76 0 l 381 514 l 83 1014 l 213 1014 l 451 592 l 454 592 l 694 1014 z "},"Ψ":{"ha":1074,"x_min":97,"x_max":976,"o":"m 97 629 l 97 1014 l 201 1014 l 201 622 q 482 313 201 338 l 482 1014 l 593 1014 l 593 313 q 872 622 872 338 l 872 1014 l 976 1014 l 976 629 q 593 219 976 244 l 593 0 l 482 0 l 482 219 q 97 629 97 244 z "},"Ω":{"ha":1069,"x_min":76,"x_max":993,"o":"m 993 90 l 993 0 l 600 0 l 600 90 q 788 226 715 111 q 861 517 861 342 q 776 828 861 721 q 535 935 692 935 q 293 828 378 935 q 208 517 208 721 q 281 226 208 342 q 469 90 354 111 l 469 0 l 76 0 l 76 90 l 283 90 l 283 93 q 94 535 94 232 q 213 898 94 768 q 535 1028 331 1028 q 857 898 739 1028 q 975 535 975 768 q 786 93 975 232 l 786 90 l 993 90 z "},"α":{"ha":858,"x_min":63,"x_max":789,"o":"m 333 736 q 481 685 419 736 q 613 478 542 633 q 675 722 643 581 l 775 722 q 665 354 719 500 q 789 0 710 239 l 683 0 q 614 229 642 146 q 483 41 550 96 q 333 -14 415 -14 q 138 85 213 -14 q 63 361 63 185 q 138 637 63 538 q 333 736 214 736 m 572 350 q 452 591 506 529 q 333 653 399 653 q 211 578 256 653 q 167 361 167 503 q 216 146 167 222 q 343 69 265 69 q 460 131 404 69 q 572 350 515 193 z "},"β":{"ha":806,"x_min":111,"x_max":750,"o":"m 111 -306 l 111 726 q 407 1028 111 1028 q 623 958 542 1028 q 704 782 704 889 q 648 635 704 697 q 494 553 592 574 l 494 550 q 683 464 617 532 q 750 292 750 396 q 654 65 750 143 q 368 -14 558 -14 q 213 4 303 -14 l 213 -306 l 111 -306 m 213 93 q 365 72 294 72 q 650 301 650 72 q 572 456 650 407 q 324 506 494 506 l 288 506 l 288 585 l 324 585 q 608 768 608 585 q 555 893 608 846 q 413 940 501 940 q 259 893 306 940 q 213 739 213 846 l 213 93 z "},"γ":{"ha":788,"x_min":49,"x_max":739,"o":"m 628 722 l 739 722 q 444 28 531 372 l 444 -306 l 343 -306 l 343 28 q 49 722 257 372 l 163 722 q 394 153 326 419 l 397 153 q 628 722 467 424 z "},"δ":{"ha":774,"x_min":56,"x_max":718,"o":"m 56 361 q 229 688 56 603 q 121 843 121 733 q 190 978 121 928 q 389 1028 260 1028 q 621 982 515 1028 l 621 889 q 389 944 511 944 q 222 843 222 944 q 382 736 222 747 q 633 630 547 725 q 718 361 718 535 q 626 88 718 190 q 386 -14 535 -14 q 147 88 238 -14 q 56 361 56 190 m 361 657 q 213 569 267 646 q 160 361 160 492 q 222 147 160 224 q 386 69 283 69 q 552 147 490 69 q 614 361 614 225 q 382 654 614 635 q 361 657 375 654 z "},"ε":{"ha":701,"x_min":63,"x_max":639,"o":"m 396 69 q 639 115 511 69 l 639 29 q 392 -14 513 -14 q 148 42 233 -14 q 63 194 63 97 q 110 315 63 261 q 254 385 158 368 l 254 388 q 120 454 167 407 q 74 558 74 501 q 158 686 74 636 q 392 736 243 736 q 629 694 514 736 l 629 607 q 400 656 506 656 q 181 544 181 656 q 475 426 181 426 l 521 426 l 521 344 l 475 344 q 241 310 313 344 q 169 206 169 275 q 396 69 169 69 z "},"ζ":{"ha":750,"x_min":76,"x_max":715,"o":"m 76 344 q 176 701 76 525 q 419 951 276 878 l 419 954 l 108 954 l 108 1042 l 572 1042 l 572 954 q 306 728 426 911 q 185 361 185 546 q 249 138 185 201 q 469 74 314 74 q 715 -111 715 74 q 447 -319 715 -319 q 267 -292 358 -319 l 267 -204 q 444 -233 350 -233 q 614 -114 614 -233 q 442 -14 614 -14 q 164 72 251 -14 q 76 344 76 157 z "},"η":{"ha":785,"x_min":104,"x_max":688,"o":"m 104 0 l 104 722 l 204 722 l 206 614 l 208 614 q 447 736 308 736 q 631 665 574 736 q 688 431 688 594 l 688 -306 l 583 -306 l 583 417 q 546 603 583 554 q 419 653 508 653 q 279 585 347 653 q 211 447 211 518 l 211 0 l 104 0 z "},"θ":{"ha":778,"x_min":63,"x_max":715,"o":"m 151 903 q 389 1042 239 1042 q 627 902 539 1042 q 715 507 715 763 q 627 112 715 251 q 389 -28 539 -28 q 151 112 239 -28 q 63 507 63 251 q 151 903 63 763 m 164 461 q 231 163 171 267 q 389 60 292 60 q 547 163 486 60 q 614 461 607 267 l 164 461 m 164 553 l 614 553 q 547 851 607 747 q 389 954 486 954 q 231 851 292 954 q 164 553 171 747 z "},"ι":{"ha":593,"x_min":153,"x_max":503,"o":"m 260 722 l 260 232 q 286 101 260 132 q 388 69 313 69 q 503 89 450 69 l 503 3 q 369 -14 439 -14 q 200 37 247 -14 q 153 222 153 88 l 153 722 l 260 722 z "},"κ":{"ha":760,"x_min":104,"x_max":697,"o":"m 214 350 l 211 350 l 211 0 l 104 0 l 104 722 l 211 722 l 211 400 l 214 400 l 563 722 l 694 722 l 315 375 l 697 0 l 567 0 l 214 350 z "},"λ":{"ha":760,"x_min":49,"x_max":711,"o":"m 179 1014 l 288 1014 l 711 0 l 603 0 l 372 581 l 369 581 l 161 0 l 49 0 l 315 704 l 179 1014 z "},"μ":{"ha":785,"x_min":104,"x_max":681,"o":"m 104 722 l 204 722 l 204 274 q 241 118 204 163 q 365 74 278 74 q 514 149 449 74 q 579 329 579 225 l 579 722 l 681 722 l 681 0 l 583 0 l 582 129 l 579 129 q 481 24 542 63 q 349 -14 419 -14 q 204 42 247 -14 l 204 -306 l 104 -306 l 104 722 z "},"ν":{"ha":767,"x_min":49,"x_max":697,"o":"m 49 722 l 163 722 l 374 63 l 376 63 q 543 392 499 251 q 588 722 588 532 l 697 722 q 646 377 697 525 q 444 0 594 229 l 301 0 l 49 722 z "},"ξ":{"ha":757,"x_min":83,"x_max":722,"o":"m 192 289 q 260 128 192 182 q 476 74 328 74 q 722 -115 722 74 q 454 -319 722 -319 q 274 -292 365 -319 l 274 -204 q 451 -233 357 -233 q 621 -114 621 -233 q 449 -14 621 -14 q 83 274 83 -14 q 147 443 83 369 q 318 544 211 517 l 318 547 q 168 624 221 569 q 115 754 115 678 q 159 871 115 817 q 286 956 203 925 l 286 958 l 115 958 l 115 1042 l 579 1042 l 579 958 q 315 901 408 957 q 222 764 222 846 q 290 633 222 681 q 486 586 358 586 l 607 586 l 607 503 l 486 503 q 272 442 351 503 q 192 289 192 382 z "},"ο":{"ha":774,"x_min":56,"x_max":718,"o":"m 143 638 q 386 736 231 736 q 630 638 542 736 q 718 361 718 539 q 630 85 718 183 q 386 -14 542 -14 q 143 85 231 -14 q 56 361 56 183 q 143 638 56 539 m 164 361 q 386 69 164 69 q 608 361 608 69 q 386 653 608 653 q 164 361 164 653 z "},"π":{"ha":875,"x_min":76,"x_max":799,"o":"m 572 639 l 303 639 l 303 0 l 204 0 l 204 639 l 76 639 l 76 722 l 799 722 l 799 639 l 671 639 l 671 0 l 572 0 l 572 639 z "},"ρ":{"ha":782,"x_min":90,"x_max":719,"o":"m 404 653 q 254 576 311 653 q 197 365 197 499 l 197 263 q 260 126 197 183 q 406 69 322 69 q 559 144 504 69 q 614 361 614 218 q 558 577 614 501 q 404 653 503 653 m 719 361 q 638 87 719 188 q 428 -14 557 -14 q 200 94 286 -14 l 197 94 l 197 -306 l 90 -306 l 90 351 q 174 637 90 538 q 410 736 257 736 q 638 639 557 736 q 719 361 719 542 z "},"σ":{"ha":844,"x_min":56,"x_max":810,"o":"m 608 361 q 386 653 608 653 q 164 361 164 653 q 386 69 164 69 q 608 361 608 69 m 386 736 q 518 715 442 736 q 676 694 594 694 l 810 694 l 810 611 l 647 611 q 718 361 718 519 q 630 85 718 183 q 386 -14 542 -14 q 143 85 231 -14 q 56 361 56 183 q 143 638 56 539 q 386 736 231 736 z "},"τ":{"ha":810,"x_min":63,"x_max":747,"o":"m 461 639 l 461 0 l 354 0 l 354 639 l 63 639 l 63 722 l 747 722 l 747 639 l 461 639 z "},"υ":{"ha":794,"x_min":97,"x_max":718,"o":"m 399 74 q 563 150 508 74 q 617 394 617 226 q 542 722 617 551 l 647 722 q 718 385 718 551 q 399 -14 718 -14 q 169 55 240 -14 q 97 274 97 124 l 97 722 l 197 722 l 197 282 q 245 122 197 171 q 399 74 293 74 z "},"φ":{"ha":935,"x_min":56,"x_max":879,"o":"m 56 361 q 143 626 56 517 q 347 736 231 736 l 347 639 q 215 554 272 636 q 157 361 157 472 q 225 160 157 235 q 417 72 293 85 l 417 518 q 460 684 417 632 q 594 736 503 736 q 796 631 713 736 q 879 361 879 525 q 783 101 879 200 q 518 -12 686 1 l 518 -306 l 417 -306 l 417 -12 q 152 101 249 1 q 56 361 56 200 m 518 72 q 710 160 642 85 q 778 361 778 235 q 724 566 778 483 q 604 649 669 649 q 538 617 558 649 q 518 500 518 586 l 518 72 z "},"χ":{"ha":760,"x_min":49,"x_max":711,"o":"m 711 -306 l 590 -306 l 379 129 l 376 129 l 165 -306 l 49 -306 l 318 213 l 49 722 l 168 722 l 381 297 l 383 297 l 596 722 l 711 722 l 440 213 l 711 -306 z "},"ψ":{"ha":972,"x_min":90,"x_max":882,"o":"m 538 72 q 725 158 665 83 q 785 382 785 232 l 785 722 l 882 722 l 882 399 q 538 -12 882 13 l 538 -306 l 435 -306 l 435 -12 q 90 399 90 13 l 90 722 l 188 722 l 188 382 q 247 158 188 232 q 435 72 307 83 l 435 958 l 538 958 l 538 72 z "},"ω":{"ha":1083,"x_min":76,"x_max":1007,"o":"m 754 -14 q 543 194 585 -14 l 540 194 q 329 -14 499 -14 q 149 81 222 -14 q 76 340 76 176 q 181 722 76 561 l 289 722 q 178 347 178 563 q 226 144 178 217 q 340 72 274 72 q 490 426 490 72 l 490 639 l 593 639 l 593 426 q 743 72 593 72 q 858 144 810 72 q 906 347 906 217 q 794 722 906 563 l 903 722 q 1007 340 1007 561 q 934 81 1007 176 q 754 -14 861 -14 z "},"Ё":{"ha":815,"x_min":118,"x_max":711,"o":"m 504 1125 l 504 1301 l 607 1301 l 607 1125 l 504 1125 m 226 1125 l 226 1301 l 329 1301 l 329 1125 l 226 1125 m 229 921 l 229 590 l 683 590 l 683 501 l 229 501 l 229 93 l 711 93 l 711 0 l 118 0 l 118 1014 l 711 1014 l 711 921 l 229 921 z "},"А":{"ha":921,"x_min":42,"x_max":879,"o":"m 460 914 l 457 914 l 283 385 l 635 385 l 460 914 m 664 296 l 254 296 l 157 0 l 42 0 l 399 1014 l 524 1014 l 879 0 l 761 0 l 664 296 z "},"Б":{"ha":838,"x_min":118,"x_max":775,"o":"m 229 92 q 378 76 299 76 q 671 318 671 76 q 368 538 671 538 q 229 526 293 538 l 229 92 m 229 615 q 378 626 299 626 q 676 547 576 626 q 775 319 775 468 q 372 -14 775 -14 q 118 8 233 -14 l 118 1014 l 715 1014 l 715 924 l 229 924 l 229 615 z "},"В":{"ha":831,"x_min":118,"x_max":775,"o":"m 775 292 q 378 -14 775 -14 q 118 8 247 -14 l 118 1006 q 364 1028 240 1028 q 729 782 729 1028 q 674 635 729 696 q 521 553 618 574 l 521 550 q 709 464 643 532 q 775 292 775 396 m 667 301 q 585 453 667 404 q 322 501 504 501 l 229 501 l 229 89 q 378 76 297 76 q 667 301 667 76 m 229 590 l 322 590 q 625 768 625 590 q 563 896 625 854 q 364 938 500 938 q 229 925 292 938 l 229 590 z "},"Г":{"ha":774,"x_min":118,"x_max":697,"o":"m 233 917 l 233 0 l 118 0 l 118 1014 l 697 1014 l 697 917 l 233 917 z "},"Д":{"ha":1024,"x_min":63,"x_max":961,"o":"m 269 93 l 733 93 l 733 921 l 372 921 q 367 453 372 578 q 342 256 361 329 q 269 93 324 183 m 142 93 q 226 251 204 183 q 256 452 247 319 q 264 921 264 585 l 264 1014 l 844 1014 l 844 93 l 961 93 l 961 -222 l 858 -222 l 858 0 l 164 0 l 164 -222 l 63 -222 l 63 93 l 142 93 z "},"Е":{"ha":815,"x_min":118,"x_max":711,"o":"m 229 921 l 229 590 l 683 590 l 683 501 l 229 501 l 229 93 l 711 93 l 711 0 l 118 0 l 118 1014 l 711 1014 l 711 921 l 229 921 z "},"Ж":{"ha":1250,"x_min":56,"x_max":1194,"o":"m 569 0 l 569 496 l 472 496 l 175 0 l 56 0 l 382 543 l 67 1014 l 185 1014 l 472 590 l 569 590 l 569 1014 l 681 1014 l 681 590 l 778 590 l 1065 1014 l 1183 1014 l 868 543 l 1194 0 l 1075 0 l 778 496 l 681 496 l 681 0 l 569 0 z "},"З":{"ha":771,"x_min":69,"x_max":715,"o":"m 86 860 l 86 961 q 385 1028 214 1028 q 612 965 529 1028 q 694 796 694 901 q 471 549 694 604 l 471 546 q 715 292 715 506 q 621 66 715 146 q 354 -14 526 -14 q 69 53 192 -14 l 69 156 q 350 79 200 79 q 540 134 475 79 q 604 296 604 189 q 526 446 604 396 q 275 496 447 496 l 211 496 l 211 588 l 275 588 q 506 638 428 588 q 585 778 585 688 q 371 935 585 935 q 86 860 217 935 z "},"И":{"ha":954,"x_min":118,"x_max":836,"o":"m 836 0 l 726 0 l 726 833 l 724 833 l 233 0 l 118 0 l 118 1014 l 228 1014 l 228 181 l 231 181 l 721 1014 l 836 1014 l 836 0 z "},"Й":{"ha":954,"x_min":118,"x_max":836,"o":"m 836 0 l 726 0 l 726 833 l 724 833 l 233 0 l 118 0 l 118 1014 l 228 1014 l 228 181 l 231 181 l 721 1014 l 836 1014 l 836 0 m 646 1301 l 733 1301 q 660 1157 733 1217 q 476 1097 588 1097 q 292 1157 365 1097 q 219 1301 219 1217 l 308 1301 q 359 1213 311 1250 q 476 1176 407 1176 q 594 1213 546 1176 q 646 1301 643 1250 z "},"К":{"ha":851,"x_min":118,"x_max":803,"o":"m 232 494 l 229 494 l 229 0 l 118 0 l 118 1014 l 229 1014 l 229 563 l 232 563 l 656 1014 l 789 1014 l 329 528 l 803 0 l 669 0 l 232 494 z "},"Л":{"ha":1003,"x_min":42,"x_max":885,"o":"m 264 490 l 264 1014 l 885 1014 l 885 0 l 774 0 l 774 921 l 375 921 l 375 490 q 342 188 375 294 q 239 37 308 81 q 42 -14 169 -7 l 42 76 q 172 113 126 81 q 240 233 217 144 q 264 490 264 322 z "},"М":{"ha":1135,"x_min":118,"x_max":1017,"o":"m 906 0 l 906 828 l 903 828 l 617 301 l 514 301 l 228 828 l 225 828 l 225 0 l 118 0 l 118 1014 l 232 1014 l 564 403 l 567 403 l 899 1014 l 1017 1014 l 1017 0 l 906 0 z "},"Н":{"ha":940,"x_min":118,"x_max":822,"o":"m 229 1014 l 229 590 l 711 590 l 711 1014 l 822 1014 l 822 0 l 711 0 l 711 501 l 229 501 l 229 0 l 118 0 l 118 1014 l 229 1014 z "},"О":{"ha":990,"x_min":56,"x_max":935,"o":"m 496 1028 q 817 891 700 1028 q 935 507 935 754 q 817 123 935 260 q 496 -14 700 -14 q 173 123 290 -14 q 56 507 56 260 q 173 891 56 754 q 496 1028 290 1028 m 253 188 q 496 79 338 79 q 738 188 654 79 q 822 507 822 296 q 738 826 822 718 q 496 935 654 935 q 253 826 338 935 q 168 507 168 718 q 253 188 168 296 z "},"П":{"ha":940,"x_min":118,"x_max":822,"o":"m 118 1014 l 822 1014 l 822 0 l 711 0 l 711 921 l 229 921 l 229 0 l 118 0 l 118 1014 z "},"Р":{"ha":833,"x_min":118,"x_max":785,"o":"m 118 1006 q 400 1028 263 1028 q 687 948 589 1028 q 785 719 785 868 q 686 475 785 558 q 400 392 588 392 q 229 400 308 392 l 229 0 l 118 0 l 118 1006 m 229 492 q 392 481 310 481 q 602 540 529 481 q 675 711 675 600 q 603 880 675 822 q 392 938 532 938 q 229 924 315 938 l 229 492 z "},"С":{"ha":851,"x_min":56,"x_max":740,"o":"m 733 894 q 503 935 618 935 q 257 822 346 935 q 168 507 168 710 q 260 192 168 306 q 507 79 353 79 q 740 119 625 79 l 740 21 q 497 -14 621 -14 q 176 123 297 -14 q 56 507 56 260 q 172 890 56 753 q 493 1028 288 1028 q 733 993 619 1028 l 733 894 z "},"Т":{"ha":879,"x_min":83,"x_max":796,"o":"m 796 919 l 496 919 l 496 0 l 385 0 l 385 919 l 83 919 l 83 1014 l 796 1014 l 796 919 z "},"У":{"ha":917,"x_min":56,"x_max":875,"o":"m 56 1014 l 186 1014 l 471 399 l 474 399 l 749 1014 l 875 1014 l 539 301 q 352 54 456 122 q 67 -14 249 -14 l 67 79 q 281 124 208 79 q 414 292 354 168 l 56 1014 z "},"Ф":{"ha":986,"x_min":49,"x_max":938,"o":"m 549 892 q 833 775 728 876 q 938 514 938 674 q 833 253 938 354 q 549 136 728 151 l 549 0 l 438 0 l 438 136 q 153 253 258 151 q 49 514 49 354 q 153 775 49 674 q 438 892 258 876 l 438 1014 l 549 1014 l 549 892 m 549 229 q 756 317 681 243 q 831 514 831 392 q 756 710 831 636 q 549 799 681 785 l 549 229 m 438 799 q 231 710 306 785 q 156 514 156 636 q 231 317 156 392 q 438 229 306 243 l 438 799 z "},"Х":{"ha":903,"x_min":76,"x_max":826,"o":"m 694 1014 l 819 1014 l 522 514 l 826 0 l 696 0 l 451 436 l 449 436 l 203 0 l 76 0 l 381 514 l 83 1014 l 213 1014 l 451 592 l 454 592 l 694 1014 z "},"Ц":{"ha":1014,"x_min":118,"x_max":951,"o":"m 822 93 l 951 93 l 951 -222 l 850 -222 l 850 0 l 118 0 l 118 1014 l 229 1014 l 229 93 l 711 93 l 711 1014 l 822 1014 l 822 93 z "},"Ч":{"ha":913,"x_min":104,"x_max":794,"o":"m 213 674 q 274 470 213 526 q 493 414 335 414 q 683 469 603 414 l 683 1014 l 794 1014 l 794 0 l 683 0 l 683 374 q 475 319 590 319 q 190 399 276 319 q 104 663 104 478 l 104 1014 l 213 1014 l 213 674 z "},"Ш":{"ha":1254,"x_min":118,"x_max":1136,"o":"m 1136 0 l 118 0 l 118 1014 l 226 1014 l 226 93 l 574 93 l 574 1014 l 681 1014 l 681 93 l 1028 93 l 1028 1014 l 1136 1014 l 1136 0 z "},"Щ":{"ha":1324,"x_min":118,"x_max":1261,"o":"m 226 93 l 574 93 l 574 1014 l 681 1014 l 681 93 l 1028 93 l 1028 1014 l 1136 1014 l 1136 93 l 1261 93 l 1261 -222 l 1160 -222 l 1160 0 l 118 0 l 118 1014 l 226 1014 l 226 93 z "},"Ъ":{"ha":1076,"x_min":56,"x_max":1014,"o":"m 357 924 l 56 924 l 56 1014 l 468 1014 l 468 615 q 615 626 538 626 q 914 547 814 626 q 1014 319 1014 468 q 611 -14 1014 -14 q 357 8 472 -14 l 357 924 m 468 526 l 468 92 q 615 76 538 76 q 910 318 910 76 q 607 538 910 538 q 468 526 532 538 z "},"Ы":{"ha":1169,"x_min":118,"x_max":1051,"o":"m 940 0 l 940 1014 l 1051 1014 l 1051 0 l 940 0 m 118 1014 l 229 1014 l 229 615 q 378 626 299 626 q 676 547 576 626 q 775 319 775 468 q 372 -14 775 -14 q 118 8 233 -14 l 118 1014 m 229 526 l 229 92 q 378 76 299 76 q 671 318 671 76 q 368 538 671 538 q 229 526 293 538 z "},"Ь":{"ha":838,"x_min":118,"x_max":775,"o":"m 118 1014 l 229 1014 l 229 615 q 378 626 299 626 q 676 547 576 626 q 775 319 775 468 q 372 -14 775 -14 q 118 8 233 -14 l 118 1014 m 229 526 l 229 92 q 378 76 299 76 q 671 318 671 76 q 368 538 671 538 q 229 526 293 538 z "},"Э":{"ha":858,"x_min":118,"x_max":803,"o":"m 164 482 l 164 571 l 688 571 q 586 840 674 744 q 356 935 499 935 q 125 894 240 935 l 125 993 q 365 1028 239 1028 q 687 890 571 1028 q 803 507 803 753 q 682 123 803 260 q 361 -14 561 -14 q 118 21 238 -14 l 118 119 q 351 79 233 79 q 592 185 500 79 q 690 482 685 292 l 164 482 z "},"Ю":{"ha":1306,"x_min":118,"x_max":1243,"o":"m 636 190 q 844 79 711 79 q 1054 190 978 79 q 1131 507 1131 300 q 1054 824 1131 714 q 844 935 978 935 q 635 824 711 935 q 560 507 560 714 q 636 190 560 300 m 844 -14 q 554 121 660 -14 q 447 501 449 256 l 229 501 l 229 0 l 118 0 l 118 1014 l 229 1014 l 229 590 l 450 590 q 572 915 468 801 q 844 1028 675 1028 q 1137 892 1031 1028 q 1243 507 1243 756 q 1137 122 1243 258 q 844 -14 1031 -14 z "},"Я":{"ha":861,"x_min":63,"x_max":743,"o":"m 632 925 q 493 938 567 938 q 200 743 200 938 q 278 584 200 638 q 521 531 356 531 l 632 531 l 632 925 m 632 442 l 521 442 q 376 417 413 442 q 297 293 339 393 l 178 0 l 63 0 l 185 296 q 308 476 246 443 l 308 479 q 147 576 204 506 q 90 753 90 647 q 190 956 90 885 q 483 1028 289 1028 q 743 1007 622 1028 l 743 0 l 632 0 l 632 442 z "},"а":{"ha":740,"x_min":69,"x_max":643,"o":"m 538 458 l 538 496 q 499 615 538 581 q 361 649 460 649 q 108 596 243 649 l 108 692 q 361 736 233 736 q 582 678 521 736 q 643 468 643 619 l 643 0 l 543 0 l 542 124 l 539 124 q 282 -14 456 -14 q 128 46 188 -14 q 69 204 69 106 q 161 389 69 319 q 454 458 253 458 l 538 458 m 538 382 l 454 382 q 247 338 317 382 q 176 213 176 293 q 212 112 176 150 q 306 74 247 74 q 472 140 406 74 q 538 317 538 207 l 538 382 z "},"б":{"ha":810,"x_min":97,"x_max":726,"o":"m 417 -14 q 181 83 265 -14 q 97 357 97 179 l 97 663 q 191 942 97 856 q 490 1028 285 1028 q 692 1042 596 1028 l 692 958 q 490 944 603 944 q 263 883 328 944 q 199 667 199 821 l 199 588 l 201 588 q 440 708 276 708 q 647 610 567 708 q 726 347 726 513 q 644 81 726 175 q 417 -14 563 -14 m 626 347 q 569 551 626 476 q 417 625 511 625 q 258 556 317 625 q 199 361 199 486 l 199 343 q 258 144 199 218 q 413 69 317 69 q 569 142 513 69 q 626 347 626 215 z "},"в":{"ha":719,"x_min":104,"x_max":657,"o":"m 210 72 q 322 64 261 64 q 554 215 554 64 q 308 353 554 353 l 210 353 l 210 72 m 210 422 l 307 422 q 463 456 407 422 q 518 547 518 489 q 314 658 518 658 q 210 650 260 658 l 210 422 m 657 208 q 318 -10 657 -10 q 104 6 194 -10 l 104 717 q 307 732 203 732 q 547 683 475 732 q 618 557 618 633 q 575 452 618 494 q 454 393 532 410 l 454 392 q 605 328 553 376 q 657 208 657 281 z "},"г":{"ha":688,"x_min":104,"x_max":632,"o":"m 104 722 l 632 722 l 632 635 l 211 635 l 211 0 l 104 0 l 104 722 z "},"д":{"ha":879,"x_min":56,"x_max":824,"o":"m 243 83 l 625 83 l 625 639 l 326 639 q 326 454 326 507 q 323 331 326 401 q 316 241 319 261 q 301 185 313 221 q 278 133 290 149 q 243 83 267 117 m 122 83 q 165 137 153 121 q 193 190 178 153 q 212 247 208 226 q 220 334 215 267 q 225 456 225 401 q 225 639 225 511 l 225 722 l 726 722 l 726 83 l 824 83 l 824 -167 l 722 -167 l 722 0 l 157 0 l 157 -167 l 56 -167 l 56 83 l 122 83 z "},"е":{"ha":729,"x_min":56,"x_max":667,"o":"m 621 21 q 406 -14 507 -14 q 145 81 235 -14 q 56 361 56 175 q 141 645 56 554 q 375 736 226 736 q 667 371 667 736 q 664 333 667 358 l 163 333 q 414 67 171 67 q 621 113 510 67 l 621 21 m 164 415 l 563 415 q 375 656 558 656 q 164 415 178 656 z "},"ж":{"ha":1056,"x_min":69,"x_max":986,"o":"m 476 0 l 476 333 l 403 333 l 178 0 l 69 0 l 324 378 l 76 722 l 186 722 l 403 419 l 476 419 l 476 722 l 579 722 l 579 419 l 653 419 l 869 722 l 979 722 l 732 378 l 986 0 l 878 0 l 653 333 l 579 333 l 579 0 l 476 0 z "},"з":{"ha":701,"x_min":63,"x_max":639,"o":"m 63 115 q 306 69 189 69 q 532 206 532 69 q 460 310 532 275 q 226 344 389 344 l 181 344 l 181 426 l 226 426 q 521 544 521 426 q 301 656 521 656 q 72 607 196 656 l 72 694 q 310 736 188 736 q 543 686 458 736 q 628 558 628 636 q 581 454 628 501 q 447 388 535 407 l 447 385 q 591 315 543 368 q 639 194 639 261 q 553 42 639 97 q 310 -14 468 -14 q 63 29 189 -14 l 63 115 z "},"и":{"ha":811,"x_min":104,"x_max":707,"o":"m 210 142 l 213 142 l 593 722 l 707 722 l 707 0 l 601 0 l 601 581 l 599 581 l 218 0 l 104 0 l 104 722 l 210 722 l 210 142 z "},"й":{"ha":811,"x_min":104,"x_max":707,"o":"m 210 722 l 210 142 l 213 142 l 593 722 l 707 722 l 707 0 l 601 0 l 601 581 l 599 581 l 218 0 l 104 0 l 104 722 l 210 722 m 575 1024 l 663 1024 q 590 879 663 939 q 406 819 517 819 q 222 879 294 819 q 149 1024 149 939 l 236 1024 q 288 935 239 972 q 406 899 336 899 q 524 935 475 899 q 575 1024 572 972 z "},"к":{"ha":760,"x_min":104,"x_max":697,"o":"m 214 350 l 211 350 l 211 0 l 104 0 l 104 722 l 211 722 l 211 400 l 214 400 l 563 722 l 694 722 l 315 375 l 697 0 l 567 0 l 214 350 z "},"л":{"ha":861,"x_min":35,"x_max":757,"o":"m 222 367 l 222 722 l 757 722 l 757 0 l 656 0 l 656 636 l 322 636 l 322 350 q 262 68 322 143 q 35 -14 201 -7 l 35 72 q 149 98 111 75 q 204 183 186 121 q 222 367 222 244 z "},"м":{"ha":971,"x_min":104,"x_max":867,"o":"m 867 0 l 761 0 l 761 589 l 758 589 l 531 214 l 438 214 l 210 589 l 207 589 l 207 0 l 104 0 l 104 722 l 226 722 l 483 292 l 486 292 l 742 722 l 867 722 l 867 0 z "},"н":{"ha":796,"x_min":104,"x_max":692,"o":"m 213 347 l 213 0 l 104 0 l 104 722 l 213 722 l 213 428 l 583 428 l 583 722 l 692 722 l 692 0 l 583 0 l 583 347 l 213 347 z "},"о":{"ha":774,"x_min":56,"x_max":718,"o":"m 143 638 q 386 736 231 736 q 630 638 542 736 q 718 361 718 539 q 630 85 718 183 q 386 -14 542 -14 q 143 85 231 -14 q 56 361 56 183 q 143 638 56 539 m 164 361 q 386 69 164 69 q 608 361 608 69 q 386 653 608 653 q 164 361 164 653 z "},"п":{"ha":782,"x_min":104,"x_max":678,"o":"m 104 722 l 678 722 l 678 0 l 575 0 l 575 636 l 206 636 l 206 0 l 104 0 l 104 722 z "},"р":{"ha":796,"x_min":104,"x_max":733,"o":"m 104 722 l 204 722 l 206 618 l 208 618 q 442 736 300 736 q 655 638 576 736 q 733 361 733 540 q 652 87 733 188 q 442 -14 571 -14 q 214 94 300 -14 l 211 94 l 211 -306 l 104 -306 l 104 722 m 628 361 q 419 653 628 653 q 273 595 335 653 q 211 460 211 538 l 211 263 q 274 126 211 183 q 419 69 336 69 q 573 144 518 69 q 628 361 628 218 z "},"с":{"ha":685,"x_min":56,"x_max":588,"o":"m 588 110 l 588 17 q 396 -14 490 -14 q 144 81 232 -14 q 56 361 56 176 q 141 640 56 544 q 382 736 226 736 q 581 711 486 736 l 581 617 q 389 650 486 650 q 167 361 167 650 q 225 142 167 211 q 403 72 283 72 q 588 110 497 72 z "},"т":{"ha":739,"x_min":63,"x_max":676,"o":"m 676 638 l 425 638 l 425 0 l 314 0 l 314 638 l 63 638 l 63 722 l 676 722 l 676 638 z "},"у":{"ha":781,"x_min":56,"x_max":732,"o":"m 56 722 l 169 722 l 401 124 l 404 124 l 621 722 l 732 722 l 451 0 q 297 -253 379 -186 q 65 -319 215 -319 l 65 -235 q 236 -187 178 -235 q 349 0 294 -140 l 56 722 z "},"ф":{"ha":1024,"x_min":63,"x_max":961,"o":"m 563 -306 l 461 -306 l 461 51 l 458 51 q 308 -14 396 -14 q 128 81 194 -14 q 63 361 63 176 q 128 641 63 546 q 308 736 194 736 q 458 671 396 736 l 461 671 l 461 1042 l 563 1042 l 563 671 l 565 671 q 715 736 628 736 q 895 641 829 736 q 961 361 961 546 q 895 81 961 176 q 715 -14 829 -14 q 565 51 628 -14 l 563 51 l 563 -306 m 694 650 q 563 574 619 650 l 563 149 q 694 72 619 72 q 816 146 774 72 q 858 361 858 219 q 816 576 858 503 q 694 650 774 650 m 329 72 q 461 149 404 72 l 461 574 q 329 650 404 650 q 207 576 250 650 q 164 361 164 503 q 207 146 164 219 q 329 72 250 72 z "},"х":{"ha":754,"x_min":69,"x_max":685,"o":"m 76 722 l 196 722 l 378 435 l 381 435 l 563 722 l 678 722 l 439 367 l 685 0 l 565 0 l 376 299 l 374 299 l 186 0 l 69 0 l 317 367 l 76 722 z "},"ц":{"ha":846,"x_min":104,"x_max":797,"o":"m 104 0 l 104 722 l 206 722 l 206 86 l 575 86 l 575 722 l 678 722 l 678 86 l 797 86 l 797 -167 l 706 -167 l 706 0 l 104 0 z "},"ч":{"ha":782,"x_min":90,"x_max":678,"o":"m 576 722 l 678 722 l 678 0 l 576 0 l 576 243 q 358 199 483 199 q 149 252 208 199 q 90 440 90 306 l 90 722 l 190 722 l 190 460 q 228 320 190 356 q 375 285 267 285 q 576 328 493 285 l 576 722 z "},"ш":{"ha":1019,"x_min":104,"x_max":915,"o":"m 204 722 l 204 86 l 461 86 l 461 722 l 558 722 l 558 86 l 815 86 l 815 722 l 915 722 l 915 0 l 104 0 l 104 722 l 204 722 z "},"щ":{"ha":1075,"x_min":104,"x_max":1026,"o":"m 204 722 l 204 86 l 461 86 l 461 722 l 558 722 l 558 86 l 815 86 l 815 722 l 915 722 l 915 86 l 1026 86 l 1026 -167 l 933 -167 l 933 0 l 104 0 l 104 722 l 204 722 z "},"ъ":{"ha":879,"x_min":49,"x_max":824,"o":"m 724 257 q 476 428 724 428 q 364 417 417 428 l 364 82 q 483 69 421 69 q 724 257 724 69 m 364 500 q 490 511 424 511 q 739 444 654 511 q 824 257 824 376 q 476 -14 824 -14 q 261 7 361 -14 l 261 636 l 49 636 l 49 722 l 364 722 l 364 500 z "},"ы":{"ha":989,"x_min":104,"x_max":885,"o":"m 785 0 l 785 722 l 885 722 l 885 0 l 785 0 m 104 722 l 206 722 l 206 500 q 333 511 265 511 q 582 444 497 511 q 667 257 667 376 q 319 -14 667 -14 q 104 7 204 -14 l 104 722 m 206 417 l 206 82 q 326 69 261 69 q 567 257 567 69 q 319 428 567 428 q 206 417 258 428 z "},"ь":{"ha":722,"x_min":104,"x_max":667,"o":"m 104 722 l 206 722 l 206 500 q 333 511 265 511 q 582 444 497 511 q 667 257 667 376 q 319 -14 667 -14 q 104 7 204 -14 l 104 722 m 206 417 l 206 82 q 326 69 261 69 q 567 257 567 69 q 319 428 567 428 q 206 417 258 428 z "},"э":{"ha":692,"x_min":97,"x_max":629,"o":"m 146 319 l 146 403 l 517 403 q 296 650 501 650 q 104 617 199 650 l 104 711 q 303 736 199 736 q 544 640 458 736 q 629 361 629 544 q 541 81 629 176 q 289 -14 453 -14 q 97 17 194 -14 l 97 110 q 282 72 188 72 q 450 132 392 72 q 517 319 508 192 l 146 319 z "},"ю":{"ha":1079,"x_min":104,"x_max":1017,"o":"m 697 -14 q 473 74 557 -14 q 379 319 389 163 l 204 319 l 204 0 l 104 0 l 104 722 l 204 722 l 204 403 l 379 403 q 473 648 389 560 q 697 736 557 736 q 932 637 847 736 q 1017 361 1017 538 q 932 85 1017 185 q 697 -14 847 -14 m 538 144 q 697 69 593 69 q 857 144 801 69 q 913 361 913 219 q 857 578 913 503 q 697 653 801 653 q 537 578 593 653 q 481 361 481 503 q 538 144 481 219 z "},"я":{"ha":735,"x_min":56,"x_max":631,"o":"m 269 344 q 133 408 186 363 q 79 529 79 453 q 406 732 79 732 q 631 717 521 732 l 631 0 l 525 0 l 525 310 l 429 310 q 323 291 353 310 q 256 196 293 272 l 163 0 l 56 0 l 157 204 q 215 300 190 271 q 269 342 239 329 l 269 344 m 525 388 l 525 644 q 410 653 469 653 q 181 521 181 653 q 425 388 181 388 l 525 388 z "},"ё":{"ha":729,"x_min":56,"x_max":667,"o":"m 621 21 q 406 -14 507 -14 q 145 81 235 -14 q 56 361 56 175 q 141 645 56 554 q 375 736 226 736 q 667 371 667 736 q 664 333 667 358 l 163 333 q 414 67 171 67 q 621 113 510 67 l 621 21 m 461 847 l 461 1024 l 563 1024 l 563 847 l 461 847 m 183 847 l 183 1024 l 285 1024 l 285 847 l 183 847 m 164 415 l 563 415 q 375 656 558 656 q 164 415 178 656 z "},"‐":{"ha":342,"x_min":-3,"x_max":344,"o":"m -3 454 l -3 546 l 344 546 l 344 454 l -3 454 z "},"―":{"ha":1383,"x_min":-3,"x_max":1386,"o":"m -3 454 l -3 546 l 1386 546 l 1386 454 l -3 454 z "},"‘":{"ha":401,"x_min":63,"x_max":304,"o":"m 201 726 l 63 726 l 201 1069 l 304 1069 l 201 726 z "},"’":{"ha":401,"x_min":97,"x_max":339,"o":"m 339 1069 l 200 726 l 97 726 l 199 1069 l 339 1069 z "},"“":{"ha":636,"x_min":56,"x_max":546,"o":"m 546 1069 l 444 726 l 314 726 l 453 1069 l 546 1069 m 186 726 l 56 726 l 194 1069 l 288 1069 l 186 726 z "},"”":{"ha":636,"x_min":90,"x_max":581,"o":"m 442 726 l 349 726 l 451 1069 l 581 1069 l 442 726 m 183 726 l 90 726 l 192 1069 l 322 1069 l 183 726 z "},"†":{"ha":768,"x_min":83,"x_max":685,"o":"m 685 722 l 685 639 l 435 639 l 435 -162 l 333 -162 l 333 639 l 83 639 l 83 722 l 333 722 l 333 1014 l 435 1014 l 435 722 l 685 722 z "},"‡":{"ha":796,"x_min":97,"x_max":699,"o":"m 699 639 l 449 639 l 449 315 l 699 315 l 699 232 l 449 232 l 449 -162 l 347 -162 l 347 232 l 97 232 l 97 315 l 347 315 l 347 639 l 97 639 l 97 722 l 347 722 l 347 1014 l 449 1014 l 449 722 l 699 722 l 699 639 z "},"‥":{"ha":1389,"x_min":282,"x_max":1107,"o":"m 976 403 l 976 597 l 1107 597 l 1107 403 l 976 403 m 282 403 l 282 597 l 413 597 l 413 403 l 282 403 z "},"…":{"ha":1389,"x_min":167,"x_max":1222,"o":"m 1092 403 l 1092 597 l 1222 597 l 1222 403 l 1092 403 m 629 403 l 629 597 l 760 597 l 760 403 l 629 403 m 167 403 l 167 597 l 297 597 l 297 403 l 167 403 z "},"‰":{"ha":1444,"x_min":56,"x_max":1389,"o":"m 1032 57 q 976 253 976 126 q 1031 449 976 379 q 1183 518 1086 518 q 1335 449 1281 518 q 1389 253 1389 379 q 1335 56 1389 126 q 1183 -14 1281 -14 q 1032 57 1086 -14 m 586 57 q 531 253 531 126 q 585 449 531 379 q 738 518 640 518 q 889 449 835 518 q 943 253 943 379 q 889 56 943 126 q 738 -14 835 -14 q 586 57 640 -14 m 706 1014 l 801 1014 l 293 0 l 197 0 l 706 1014 m 110 565 q 56 761 56 635 q 110 958 56 888 q 261 1028 164 1028 q 413 958 358 1028 q 468 761 468 888 q 413 565 468 635 q 261 496 358 496 q 110 565 164 496 m 1183 69 q 1292 253 1292 69 q 1183 435 1292 435 q 1074 253 1074 435 q 1183 69 1074 69 m 847 253 q 738 435 847 435 q 628 253 628 435 q 738 69 628 69 q 847 253 847 69 m 261 579 q 371 761 371 579 q 261 944 371 944 q 153 761 153 944 q 261 579 153 579 z "},"′":{"ha":364,"x_min":83,"x_max":315,"o":"m 185 1069 l 315 1069 l 168 792 l 83 792 l 185 1069 z "},"″":{"ha":586,"x_min":76,"x_max":544,"o":"m 422 1069 l 544 1069 l 397 792 l 322 792 l 422 1069 m 178 1069 l 299 1069 l 151 792 l 76 792 l 178 1069 z "},"※":{"ha":1389,"x_min":168,"x_max":1221,"o":"m 274 396 q 201 426 231 396 q 171 499 171 457 q 201 570 171 540 q 274 600 231 600 q 346 570 317 600 q 375 499 375 540 q 345 426 375 457 q 274 396 315 396 m 796 76 q 767 5 796 35 q 694 -25 738 -25 q 622 5 651 -25 q 593 76 593 35 q 622 149 593 119 q 694 179 651 179 q 767 149 738 179 q 796 76 796 119 m 1115 600 q 1188 570 1157 600 q 1218 499 1218 540 q 1188 426 1218 457 q 1115 396 1157 396 q 1044 426 1074 396 q 1014 499 1014 457 q 1043 570 1014 540 q 1115 600 1072 600 m 796 919 q 767 847 796 876 q 694 818 738 818 q 622 847 651 818 q 593 919 593 876 q 622 991 593 961 q 694 1021 651 1021 q 767 991 738 1021 q 796 919 796 961 m 1221 978 l 747 503 l 1221 28 l 1169 -24 l 694 450 l 219 -24 l 168 28 l 642 503 l 168 978 l 219 1031 l 694 556 l 1169 1031 l 1221 978 z "},"℃":{"ha":1417,"x_min":56,"x_max":1326,"o":"m 1021 935 q 728 819 838 935 q 619 507 619 703 q 731 195 619 311 q 1021 79 843 79 q 1289 158 1167 79 l 1326 75 q 1011 -14 1190 -14 q 644 128 782 -14 q 507 507 507 269 q 643 888 507 747 q 1011 1028 779 1028 q 1326 939 1190 1028 l 1289 856 q 1021 935 1167 935 m 118 664 q 56 815 56 726 q 117 966 56 904 q 268 1028 179 1028 q 419 966 357 1028 q 482 815 482 904 q 419 664 482 726 q 268 601 357 601 q 118 664 179 601 m 176 907 q 139 815 139 869 q 176 723 139 761 q 268 685 214 685 q 360 723 322 685 q 399 815 399 761 q 360 907 399 869 q 268 944 322 944 q 176 907 214 944 z "},"№":{"ha":1424,"x_min":118,"x_max":1340,"o":"m 844 0 l 844 74 l 1326 74 l 1326 0 l 844 0 m 900 232 q 831 450 831 313 q 900 669 831 588 q 1086 750 969 750 q 1272 669 1203 750 q 1340 450 1340 589 q 1272 231 1340 311 q 1086 150 1203 150 q 900 232 969 150 m 118 0 l 118 1014 l 239 1014 l 653 182 l 656 182 l 656 1014 l 761 1014 l 761 0 l 640 0 l 228 832 l 225 832 l 225 0 l 118 0 m 972 286 q 1086 228 1014 228 q 1199 286 1158 228 q 1240 450 1240 344 q 1199 614 1240 556 q 1086 672 1158 672 q 972 614 1014 672 q 931 450 931 556 q 972 286 931 344 z "},"Å":{"ha":963,"x_min":49,"x_max":914,"o":"m 557 1313 q 482 1343 525 1343 q 407 1312 439 1343 q 375 1236 375 1281 q 407 1160 375 1192 q 482 1129 439 1129 q 556 1160 525 1129 q 588 1236 588 1192 q 557 1313 588 1281 m 49 0 l 419 1014 l 544 1014 l 914 0 l 796 0 l 693 296 l 265 296 l 164 0 l 49 0 m 603 1357 q 653 1236 653 1307 q 603 1115 653 1165 q 482 1065 553 1065 q 360 1115 411 1065 q 310 1236 310 1165 q 360 1357 310 1307 q 482 1407 411 1407 q 603 1357 553 1407 m 296 385 l 663 385 l 481 914 l 478 914 l 296 385 z "},"Ⅰ":{"ha":385,"x_min":132,"x_max":253,"o":"m 132 0 l 132 1014 l 253 1014 l 253 0 l 132 0 z "},"Ⅱ":{"ha":750,"x_min":132,"x_max":618,"o":"m 500 0 l 500 1014 l 618 1014 l 618 0 l 500 0 m 132 0 l 132 1014 l 250 1014 l 250 0 l 132 0 z "},"Ⅲ":{"ha":1056,"x_min":132,"x_max":924,"o":"m 808 0 l 808 1014 l 924 1014 l 924 0 l 808 0 m 469 0 l 469 1014 l 586 1014 l 586 0 l 469 0 m 132 0 l 132 1014 l 247 1014 l 247 0 l 132 0 z "},"Ⅳ":{"ha":1243,"x_min":132,"x_max":1194,"o":"m 447 1014 l 763 110 l 765 110 l 1079 1014 l 1194 1014 l 824 0 l 699 0 l 329 1014 l 447 1014 m 132 0 l 132 1014 l 250 1014 l 250 0 l 132 0 z "},"Ⅴ":{"ha":963,"x_min":49,"x_max":914,"o":"m 168 1014 l 482 110 l 485 110 l 799 1014 l 914 1014 l 544 0 l 419 0 l 49 1014 l 168 1014 z "},"Ⅵ":{"ha":1243,"x_min":49,"x_max":1111,"o":"m 794 1014 l 914 1014 l 544 0 l 419 0 l 49 1014 l 164 1014 l 478 110 l 481 110 l 794 1014 m 993 0 l 993 1014 l 1111 1014 l 1111 0 l 993 0 z "},"Ⅶ":{"ha":1579,"x_min":49,"x_max":1447,"o":"m 794 1014 l 914 1014 l 544 0 l 419 0 l 49 1014 l 164 1014 l 478 110 l 481 110 l 794 1014 m 1331 0 l 1331 1014 l 1447 1014 l 1447 0 l 1331 0 m 993 0 l 993 1014 l 1108 1014 l 1108 0 l 993 0 z "},"Ⅷ":{"ha":1875,"x_min":49,"x_max":1743,"o":"m 1628 0 l 1628 1014 l 1743 1014 l 1743 0 l 1628 0 m 1308 0 l 1308 1014 l 1424 1014 l 1424 0 l 1308 0 m 989 0 l 989 1014 l 1104 1014 l 1104 0 l 989 0 m 794 1014 l 914 1014 l 544 0 l 419 0 l 49 1014 l 164 1014 l 478 110 l 481 110 l 794 1014 z "},"Ⅸ":{"ha":1310,"x_min":160,"x_max":1150,"o":"m 761 436 l 758 436 l 500 0 l 372 0 l 692 514 l 379 1014 l 508 1014 l 763 592 l 765 592 l 1018 1014 l 1143 1014 l 832 514 l 1150 0 l 1019 0 l 761 436 m 160 0 l 160 1014 l 278 1014 l 278 0 l 160 0 z "},"Ⅹ":{"ha":903,"x_min":63,"x_max":840,"o":"m 451 436 l 449 436 l 189 0 l 63 0 l 381 514 l 69 1014 l 199 1014 l 451 592 l 454 592 l 708 1014 l 833 1014 l 522 514 l 840 0 l 710 0 l 451 436 z "},"←":{"ha":1389,"x_min":163,"x_max":1171,"o":"m 351 458 l 608 233 l 551 167 l 163 507 l 551 847 l 608 781 l 351 556 l 1171 556 l 1171 458 l 351 458 z "},"↑":{"ha":1014,"x_min":167,"x_max":847,"o":"m 458 850 l 233 593 l 167 650 l 507 1039 l 847 650 l 781 593 l 556 850 l 556 31 l 458 31 l 458 850 z "},"→":{"ha":1389,"x_min":218,"x_max":1226,"o":"m 218 458 l 218 556 l 1038 556 l 781 781 l 838 847 l 1226 507 l 838 167 l 781 233 l 1038 458 l 218 458 z "},"↓":{"ha":1014,"x_min":167,"x_max":847,"o":"m 556 164 l 781 421 l 847 364 l 507 -25 l 167 364 l 233 421 l 458 164 l 458 983 l 556 983 l 556 164 z "},"⇒":{"ha":1389,"x_min":218,"x_max":1226,"o":"m 218 386 l 218 451 l 1065 451 l 1129 507 l 1065 563 l 218 563 l 218 628 l 992 628 l 782 813 l 824 861 l 1226 507 l 824 153 l 782 201 l 992 386 l 218 386 z "},"⇔":{"ha":1389,"x_min":107,"x_max":1282,"o":"m 838 813 l 879 861 l 1282 507 l 879 153 l 838 201 l 1047 386 l 342 386 l 551 201 l 510 153 l 107 507 l 510 861 l 551 813 l 342 628 l 1047 628 l 838 813 m 1121 563 l 268 563 l 204 507 l 268 451 l 1121 451 l 1185 507 l 1121 563 z "},"∀":{"ha":949,"x_min":42,"x_max":907,"o":"m 258 718 l 686 718 l 789 1014 l 907 1014 l 538 0 l 413 0 l 42 1014 l 157 1014 l 258 718 m 289 629 l 471 100 l 474 100 l 656 629 l 289 629 z "},"∂":{"ha":836,"x_min":56,"x_max":774,"o":"m 390 681 q 647 572 551 681 l 650 574 q 572 847 638 763 q 379 931 507 931 q 258 908 331 931 q 124 851 185 886 l 90 939 q 238 1002 151 976 q 385 1028 325 1028 q 678 884 583 1028 q 774 419 774 740 q 680 94 774 203 q 414 -14 586 -14 q 156 85 256 -14 q 56 347 56 183 q 146 591 56 501 q 390 681 236 681 m 414 79 q 594 149 528 79 q 660 350 660 219 q 590 525 660 456 q 414 594 521 594 q 233 528 300 594 q 167 347 167 461 q 234 149 167 219 q 414 79 301 79 z "},"∃":{"ha":815,"x_min":104,"x_max":697,"o":"m 586 921 l 104 921 l 104 1014 l 697 1014 l 697 0 l 104 0 l 104 93 l 586 93 l 586 501 l 132 501 l 132 590 l 586 590 l 586 921 z "},"∇":{"ha":949,"x_min":42,"x_max":907,"o":"m 189 922 l 471 100 l 474 100 l 757 922 l 189 922 m 157 1014 l 789 1014 l 826 1014 l 907 1014 l 538 0 l 413 0 l 42 1014 l 122 1014 l 157 1014 z "},"∈":{"ha":851,"x_min":56,"x_max":754,"o":"m 754 18 l 433 18 q 161 115 267 18 q 56 361 56 213 q 161 607 56 510 q 433 704 267 704 l 754 704 l 754 615 l 444 615 q 242 556 322 615 q 150 400 163 496 l 754 400 l 754 322 l 150 322 q 242 167 163 226 q 444 107 322 107 l 754 107 l 754 18 z "},"∋":{"ha":851,"x_min":97,"x_max":796,"o":"m 97 322 l 97 400 l 701 400 q 609 556 689 496 q 407 615 529 615 l 97 615 l 97 704 l 419 704 q 691 607 586 704 q 796 361 796 510 q 691 115 796 213 q 419 18 586 18 l 97 18 l 97 107 l 407 107 q 609 167 529 107 q 701 322 689 226 l 97 322 z "},"∑":{"ha":963,"x_min":97,"x_max":865,"o":"m 865 1014 l 865 919 l 225 919 l 613 385 l 224 -211 l 865 -211 l 865 -306 l 97 -306 l 97 -211 l 486 385 l 97 919 l 97 1014 l 865 1014 z "},"√":{"ha":1067,"x_min":63,"x_max":1039,"o":"m 63 611 l 301 611 l 526 -49 l 529 -49 l 939 1125 l 1039 1125 l 597 -111 l 454 -111 l 215 532 l 63 532 l 63 611 z "},"∝":{"ha":1003,"x_min":56,"x_max":926,"o":"m 926 551 q 857 560 892 560 q 629 365 689 560 q 858 163 688 163 q 926 172 897 163 l 926 79 q 854 69 888 69 q 585 268 674 69 l 582 268 q 322 69 499 69 q 130 150 204 69 q 56 361 56 231 q 130 572 56 492 q 322 653 204 653 q 592 454 503 653 l 594 454 q 854 653 678 653 q 926 644 883 653 l 926 551 m 546 357 q 461 508 518 456 q 329 560 404 560 q 198 506 247 560 q 149 361 149 453 q 197 217 149 271 q 329 163 246 163 q 462 213 406 163 q 546 357 518 264 z "},"∞":{"ha":1176,"x_min":56,"x_max":1121,"o":"m 1121 361 q 1044 156 1121 242 q 854 69 968 69 q 585 268 674 69 l 582 268 q 322 69 499 69 q 130 150 204 69 q 56 361 56 231 q 130 572 56 492 q 322 653 204 653 q 592 454 503 653 l 594 454 q 854 653 678 653 q 1047 572 972 653 q 1121 361 1121 492 m 1028 361 q 979 506 1028 451 q 847 560 931 560 q 714 509 771 560 q 629 365 657 458 q 714 215 657 267 q 847 163 771 163 q 977 222 926 163 q 1028 361 1028 281 m 546 357 q 461 508 518 456 q 329 560 404 560 q 198 506 247 560 q 149 361 149 453 q 197 217 149 271 q 329 163 246 163 q 462 213 406 163 q 546 357 518 264 z "},"∟":{"ha":1025,"x_min":118,"x_max":942,"o":"m 219 889 l 219 97 l 942 97 l 942 0 l 118 0 l 118 889 l 219 889 z "},"∠":{"ha":1056,"x_min":49,"x_max":965,"o":"m 231 97 l 965 97 l 965 0 l 49 0 l 632 917 l 718 863 l 231 97 z "},"∥":{"ha":1057,"x_min":49,"x_max":1008,"o":"m 374 -69 l 294 -14 l 928 918 l 1008 864 l 374 -69 m 129 82 l 49 136 l 683 1069 l 763 1014 l 129 82 z "},"∧":{"ha":774,"x_min":49,"x_max":725,"o":"m 611 0 l 386 715 l 383 715 l 158 0 l 49 0 l 315 778 l 458 778 l 725 0 l 611 0 z "},"∨":{"ha":774,"x_min":49,"x_max":725,"o":"m 163 778 l 388 63 l 390 63 l 614 778 l 725 778 l 458 0 l 315 0 l 49 778 l 163 778 z "},"∩":{"ha":893,"x_min":104,"x_max":789,"o":"m 199 446 l 199 0 l 104 0 l 104 447 q 199 708 104 610 q 447 806 293 806 q 695 708 601 806 q 789 447 789 610 l 789 0 l 694 0 l 694 446 q 627 644 694 571 q 447 718 560 718 q 267 644 335 718 q 199 446 199 571 z "},"∪":{"ha":893,"x_min":104,"x_max":789,"o":"m 694 332 l 694 778 l 789 778 l 789 331 q 695 70 789 168 q 447 -28 601 -28 q 199 70 293 -28 q 104 331 104 168 l 104 778 l 199 778 l 199 332 q 267 133 199 207 q 447 60 335 60 q 627 133 560 60 q 694 332 694 207 z "},"∫":{"ha":807,"x_min":63,"x_max":744,"o":"m 311 -96 l 381 818 q 444 974 388 919 q 600 1028 501 1028 q 744 1007 672 1028 l 729 913 q 610 931 669 931 q 496 804 506 931 l 426 -110 q 363 -265 419 -211 q 207 -319 306 -319 q 63 -299 136 -319 l 78 -204 q 197 -222 138 -222 q 311 -96 301 -222 z "},"∬":{"ha":1224,"x_min":56,"x_max":1168,"o":"m 735 -96 l 804 818 q 868 974 811 919 q 1024 1028 925 1028 q 1168 1007 1094 1028 l 1153 913 q 1033 931 1093 931 q 919 804 929 931 l 850 -110 q 786 -265 843 -211 q 631 -319 729 -319 q 486 -299 558 -319 l 501 -204 q 621 -222 561 -222 q 735 -96 725 -222 m 304 -96 l 374 818 q 438 974 381 919 q 593 1028 494 1028 q 738 1007 664 1028 l 722 913 q 603 931 663 931 q 489 804 499 931 l 419 -110 q 356 -265 413 -211 q 200 -319 299 -319 q 56 -299 128 -319 l 71 -204 q 190 -222 131 -222 q 304 -96 294 -222 z "},"∮":{"ha":861,"x_min":69,"x_max":792,"o":"m 469 104 q 627 192 564 119 q 690 361 690 265 q 640 515 690 447 q 508 608 589 583 l 469 104 m 517 713 q 714 585 636 683 q 792 361 792 488 q 697 117 792 219 q 463 1 601 14 l 454 -110 q 390 -265 447 -211 q 233 -319 332 -319 q 89 -299 161 -319 l 106 -204 q 225 -222 165 -222 q 338 -96 328 -222 l 346 10 q 148 136 226 38 q 69 361 69 235 q 165 606 69 503 q 400 721 261 710 l 407 818 q 472 974 414 919 q 628 1028 529 1028 q 772 1007 700 1028 l 756 913 q 636 931 696 931 q 524 804 533 931 l 517 713 m 392 618 q 234 531 297 604 q 171 361 171 458 q 222 207 171 275 q 354 114 274 139 l 392 618 z "},"∴":{"ha":996,"x_min":146,"x_max":850,"o":"m 719 0 l 719 194 l 850 194 l 850 0 l 719 0 m 146 0 l 146 194 l 275 194 l 275 0 l 146 0 m 433 538 l 433 732 l 563 732 l 563 538 l 433 538 z "},"∵":{"ha":996,"x_min":146,"x_max":850,"o":"m 719 538 l 719 732 l 850 732 l 850 538 l 719 538 m 146 538 l 146 732 l 275 732 l 275 538 l 146 538 m 433 0 l 433 194 l 563 194 l 563 0 l 433 0 z "},"∽":{"ha":1176,"x_min":56,"x_max":1121,"o":"m 833 157 q 975 212 922 157 q 1028 361 1028 267 q 979 506 1028 451 q 851 560 931 560 q 629 340 690 560 q 322 69 551 69 q 130 150 204 69 q 56 361 56 231 q 135 572 56 490 q 343 653 215 653 l 343 565 q 201 510 254 565 q 149 361 149 456 q 197 217 149 271 q 324 163 244 163 q 546 382 485 163 q 854 653 624 653 q 1047 572 972 653 q 1121 361 1121 492 q 1041 151 1121 232 q 833 69 961 69 l 833 157 z "},"≒":{"ha":1046,"x_min":125,"x_max":921,"o":"m 722 -69 l 722 115 l 851 115 l 851 -69 l 722 -69 m 125 199 l 125 288 l 921 288 l 921 199 l 125 199 m 125 518 l 125 607 l 921 607 l 921 518 l 125 518 m 194 690 l 194 875 l 324 875 l 324 690 l 194 690 z "},"≠":{"ha":1046,"x_min":125,"x_max":921,"o":"m 125 199 l 125 288 l 431 288 l 513 518 l 125 518 l 125 607 l 544 607 l 617 808 l 708 775 l 647 607 l 921 607 l 921 518 l 617 518 l 533 288 l 921 288 l 921 199 l 501 199 l 431 -3 l 339 31 l 399 199 l 125 199 z "},"≡":{"ha":1046,"x_min":125,"x_max":921,"o":"m 125 115 l 125 199 l 921 199 l 921 115 l 125 115 m 125 361 l 125 444 l 921 444 l 921 361 l 125 361 m 125 607 l 125 690 l 921 690 l 921 607 l 125 607 z "},"≦":{"ha":1046,"x_min":125,"x_max":921,"o":"m 125 -107 l 125 -25 l 921 -25 l 921 -107 l 125 -107 m 125 121 l 125 201 l 921 201 l 921 121 l 125 121 m 921 858 l 200 608 l 200 606 l 921 356 l 921 264 l 125 551 l 125 661 l 921 949 l 921 858 z "},"≧":{"ha":1046,"x_min":125,"x_max":921,"o":"m 125 -107 l 125 -25 l 921 -25 l 921 -107 l 125 -107 m 125 121 l 125 201 l 921 201 l 921 121 l 125 121 m 125 858 l 125 949 l 921 661 l 921 551 l 125 264 l 125 356 l 846 606 l 846 608 l 125 858 z "},"≪":{"ha":1319,"x_min":76,"x_max":1201,"o":"m 1201 749 l 650 404 l 650 401 l 1201 57 l 1201 -42 l 581 350 l 581 456 l 1201 847 l 1201 749 m 697 749 l 144 404 l 144 401 l 697 57 l 697 -42 l 76 350 l 76 456 l 697 847 l 697 749 z "},"≫":{"ha":1319,"x_min":118,"x_max":1243,"o":"m 118 749 l 118 847 l 739 456 l 739 350 l 118 -42 l 118 57 l 669 401 l 669 404 l 118 749 m 622 749 l 622 847 l 1243 456 l 1243 350 l 622 -42 l 622 57 l 1175 401 l 1175 404 l 622 749 z "},"⊂":{"ha":963,"x_min":56,"x_max":865,"o":"m 446 108 l 865 108 l 865 18 l 433 18 q 161 115 267 18 q 56 361 56 213 q 161 607 56 510 q 433 704 267 704 l 865 704 l 865 614 l 446 614 q 235 543 315 614 q 156 361 156 472 q 235 179 156 250 q 446 108 315 108 z "},"⊃":{"ha":963,"x_min":97,"x_max":907,"o":"m 517 614 l 97 614 l 97 704 l 531 704 q 802 607 697 704 q 907 361 907 510 q 802 115 907 213 q 531 18 697 18 l 97 18 l 97 108 l 517 108 q 728 179 647 108 q 808 361 808 250 q 728 543 808 472 q 517 614 647 614 z "},"⊆":{"ha":1060,"x_min":125,"x_max":935,"o":"m 139 -65 l 139 24 l 935 24 l 935 -65 l 139 -65 m 515 285 l 935 285 l 935 194 l 503 194 q 231 292 336 194 q 125 538 125 389 q 231 783 125 686 q 503 879 336 879 l 935 879 l 935 789 l 515 789 q 305 719 385 789 q 225 538 225 649 q 305 356 225 426 q 515 285 385 285 z "},"⊇":{"ha":1060,"x_min":125,"x_max":935,"o":"m 125 -65 l 125 24 l 921 24 l 921 -65 l 125 -65 m 544 789 l 125 789 l 125 879 l 558 879 q 830 783 725 879 q 935 538 935 686 q 830 292 935 389 q 558 194 725 194 l 125 194 l 125 285 l 544 285 q 756 356 675 285 q 836 538 836 426 q 756 719 836 649 q 544 789 675 789 z "},"⊥":{"ha":1222,"x_min":104,"x_max":1118,"o":"m 104 0 l 104 97 l 556 97 l 556 1014 l 667 1014 l 667 97 l 1118 97 l 1118 0 l 104 0 z "},"⊿":{"ha":1111,"x_min":49,"x_max":993,"o":"m 928 65 l 928 788 l 206 65 l 928 65 m 993 0 l 49 0 l 993 944 l 993 0 z "},"⌒":{"ha":1389,"x_min":111,"x_max":1278,"o":"m 111 875 l 111 967 q 694 1149 365 1149 q 1278 967 1024 1149 l 1278 875 q 694 1056 1018 1056 q 111 875 371 1056 z "},"①":{"ha":1389,"x_min":65,"x_max":1324,"o":"m 660 885 l 771 885 l 771 115 l 660 115 l 660 767 l 658 767 l 439 600 l 439 719 l 660 885 m 939 -79 q 694 -129 822 -129 q 450 -79 567 -129 q 249 55 333 -29 q 115 256 165 139 q 65 500 65 372 q 115 744 65 628 q 249 945 165 861 q 450 1079 333 1029 q 694 1129 567 1129 q 939 1079 822 1129 q 1140 945 1056 1029 q 1274 744 1224 861 q 1324 500 1324 628 q 1274 256 1324 372 q 1140 55 1224 139 q 939 -79 1056 -29 m 306 111 q 694 -51 467 -51 q 1084 110 922 -51 q 1246 500 1246 272 q 1084 890 1246 728 q 694 1051 922 1051 q 305 890 467 1051 q 143 500 143 728 q 306 111 143 272 z "},"②":{"ha":1389,"x_min":65,"x_max":1324,"o":"m 594 206 l 594 204 l 942 204 l 942 115 l 449 115 l 449 204 q 750 481 674 383 q 826 665 826 578 q 789 769 826 733 q 676 806 750 806 q 464 744 579 806 l 464 846 q 690 896 568 896 q 874 838 808 896 q 938 675 938 779 q 864 471 938 574 q 594 206 793 372 m 306 111 q 694 -51 467 -51 q 1084 110 922 -51 q 1246 500 1246 272 q 1084 890 1246 728 q 694 1051 922 1051 q 305 890 467 1051 q 143 500 143 728 q 306 111 143 272 m 939 -79 q 694 -129 822 -129 q 450 -79 567 -129 q 249 55 333 -29 q 115 256 165 139 q 65 500 65 372 q 115 744 65 628 q 249 945 165 861 q 450 1079 333 1029 q 694 1129 567 1129 q 939 1079 822 1129 q 1140 945 1056 1029 q 1274 744 1224 861 q 1324 500 1324 628 q 1274 256 1324 372 q 1140 55 1224 139 q 939 -79 1056 -29 z "},"③":{"ha":1389,"x_min":65,"x_max":1324,"o":"m 682 565 l 682 563 l 717 563 q 881 508 822 563 q 939 354 939 454 q 867 168 939 232 q 658 104 794 104 q 454 144 547 104 l 454 243 q 654 193 554 193 q 786 233 742 193 q 832 353 832 272 q 786 453 832 422 q 631 486 740 486 l 550 486 l 550 565 l 793 794 l 793 796 l 449 796 l 449 885 l 928 885 l 928 796 l 682 565 m 306 111 q 694 -51 467 -51 q 1084 110 922 -51 q 1246 500 1246 272 q 1084 890 1246 728 q 694 1051 922 1051 q 305 890 467 1051 q 143 500 143 728 q 306 111 143 272 m 939 -79 q 694 -129 822 -129 q 450 -79 567 -129 q 249 55 333 -29 q 115 256 165 139 q 65 500 65 372 q 115 744 65 628 q 249 945 165 861 q 450 1079 333 1029 q 694 1129 567 1129 q 939 1079 822 1129 q 1140 945 1056 1029 q 1274 744 1224 861 q 1324 500 1324 628 q 1274 256 1324 372 q 1140 55 1224 139 q 939 -79 1056 -29 z "},"④":{"ha":1389,"x_min":65,"x_max":1324,"o":"m 815 374 l 940 374 l 940 288 l 815 288 l 815 115 l 710 115 l 710 288 l 342 288 l 342 374 l 710 885 l 815 885 l 815 374 m 710 374 l 710 740 l 708 740 l 446 376 l 446 374 l 710 374 m 306 111 q 694 -51 467 -51 q 1084 110 922 -51 q 1246 500 1246 272 q 1084 890 1246 728 q 694 1051 922 1051 q 305 890 467 1051 q 143 500 143 728 q 306 111 143 272 m 939 -79 q 694 -129 822 -129 q 450 -79 567 -129 q 249 55 333 -29 q 115 256 165 139 q 65 500 65 372 q 115 744 65 628 q 249 945 165 861 q 450 1079 333 1029 q 694 1129 567 1129 q 939 1079 822 1129 q 1140 945 1056 1029 q 1274 744 1224 861 q 1324 500 1324 628 q 1274 256 1324 372 q 1140 55 1224 139 q 939 -79 1056 -29 z "},"⑤":{"ha":1389,"x_min":65,"x_max":1324,"o":"m 572 572 l 575 572 q 707 604 633 604 q 885 543 821 604 q 949 369 949 482 q 885 182 949 247 q 651 104 810 104 q 460 143 553 104 l 460 239 q 649 193 564 193 q 801 244 754 193 q 842 369 842 286 q 804 481 842 443 q 689 519 765 519 q 558 475 613 519 l 465 475 l 486 885 l 915 885 l 915 796 l 583 796 l 572 572 m 306 111 q 694 -51 467 -51 q 1084 110 922 -51 q 1246 500 1246 272 q 1084 890 1246 728 q 694 1051 922 1051 q 305 890 467 1051 q 143 500 143 728 q 306 111 143 272 m 939 -79 q 694 -129 822 -129 q 450 -79 567 -129 q 249 55 333 -29 q 115 256 165 139 q 65 500 65 372 q 115 744 65 628 q 249 945 165 861 q 450 1079 333 1029 q 694 1129 567 1129 q 939 1079 822 1129 q 1140 945 1056 1029 q 1274 744 1224 861 q 1324 500 1324 628 q 1274 256 1324 372 q 1140 55 1224 139 q 939 -79 1056 -29 z "},"⑥":{"ha":1389,"x_min":65,"x_max":1324,"o":"m 529 551 q 589 597 554 579 q 719 629 644 629 q 910 563 843 629 q 979 376 979 494 q 904 176 979 247 q 699 104 828 104 q 479 199 553 104 q 418 425 418 278 q 497 778 418 668 q 742 896 582 896 q 901 872 822 896 l 901 782 q 744 811 828 811 q 588 738 644 811 q 528 551 538 675 l 529 551 m 699 550 q 572 503 619 550 q 524 375 524 454 q 571 238 524 286 q 699 189 618 189 q 828 236 781 189 q 874 375 874 282 q 826 503 874 456 q 699 550 779 550 m 939 -79 q 694 -129 822 -129 q 450 -79 567 -129 q 249 55 333 -29 q 115 256 165 139 q 65 500 65 372 q 115 744 65 628 q 249 945 165 861 q 450 1079 333 1029 q 694 1129 567 1129 q 939 1079 822 1129 q 1140 945 1056 1029 q 1274 744 1224 861 q 1324 500 1324 628 q 1274 256 1324 372 q 1140 55 1224 139 q 939 -79 1056 -29 m 306 111 q 694 -51 467 -51 q 1084 110 922 -51 q 1246 500 1246 272 q 1084 890 1246 728 q 694 1051 922 1051 q 305 890 467 1051 q 143 500 143 728 q 306 111 143 272 z "},"⑦":{"ha":1389,"x_min":65,"x_max":1324,"o":"m 849 793 l 849 796 l 442 796 l 442 885 l 953 885 l 953 796 q 656 115 779 506 l 542 115 q 849 793 667 494 m 306 111 q 694 -51 467 -51 q 1084 110 922 -51 q 1246 500 1246 272 q 1084 890 1246 728 q 694 1051 922 1051 q 305 890 467 1051 q 143 500 143 728 q 306 111 143 272 m 939 -79 q 694 -129 822 -129 q 450 -79 567 -129 q 249 55 333 -29 q 115 256 165 139 q 65 500 65 372 q 115 744 65 628 q 249 945 165 861 q 450 1079 333 1029 q 694 1129 567 1129 q 939 1079 822 1129 q 1140 945 1056 1029 q 1274 744 1224 861 q 1324 500 1324 628 q 1274 256 1324 372 q 1140 55 1224 139 q 939 -79 1056 -29 z "},"⑧":{"ha":1389,"x_min":65,"x_max":1324,"o":"m 686 482 q 560 426 603 461 q 511 328 511 386 q 560 225 511 264 q 694 185 611 185 q 829 225 781 185 q 876 328 876 264 q 829 425 876 386 q 686 482 783 461 m 503 844 q 694 896 571 896 q 886 844 818 896 q 956 707 956 792 q 907 592 956 643 q 810 531 869 554 l 810 528 q 982 324 982 472 q 906 164 982 222 q 694 104 826 104 q 483 164 563 104 q 407 324 407 222 q 453 442 407 392 q 576 518 496 489 l 576 521 q 478 592 517 547 q 433 707 433 644 q 503 844 433 792 m 813 782 q 694 815 771 815 q 578 782 619 815 q 536 697 536 750 q 582 611 536 647 q 697 561 624 578 q 804 608 761 576 q 854 697 854 646 q 813 782 854 750 m 306 111 q 694 -51 467 -51 q 1084 110 922 -51 q 1246 500 1246 272 q 1084 890 1246 728 q 694 1051 922 1051 q 305 890 467 1051 q 143 500 143 728 q 306 111 143 272 m 939 -79 q 694 -129 822 -129 q 450 -79 567 -129 q 249 55 333 -29 q 115 256 165 139 q 65 500 65 372 q 115 744 65 628 q 249 945 165 861 q 450 1079 333 1029 q 694 1129 567 1129 q 939 1079 822 1129 q 1140 945 1056 1029 q 1274 744 1224 861 q 1324 500 1324 628 q 1274 256 1324 372 q 1140 55 1224 139 q 939 -79 1056 -29 z "},"⑨":{"ha":1389,"x_min":65,"x_max":1324,"o":"m 644 189 q 806 263 747 189 q 861 449 856 325 l 860 449 q 797 403 840 425 q 669 371 738 371 q 479 439 549 371 q 410 631 410 507 q 485 825 410 756 q 690 896 561 896 q 897 817 825 896 q 971 582 971 736 q 893 221 971 329 q 647 104 808 104 q 478 128 564 104 l 478 218 q 644 189 556 189 m 865 632 q 817 764 865 715 q 690 811 769 811 q 561 764 608 811 q 515 632 515 718 q 563 497 515 544 q 690 450 610 450 q 818 499 771 450 q 865 632 865 547 m 306 111 q 694 -51 467 -51 q 1084 110 922 -51 q 1246 500 1246 272 q 1084 890 1246 728 q 694 1051 922 1051 q 305 890 467 1051 q 143 500 143 728 q 306 111 143 272 m 939 -79 q 694 -129 822 -129 q 450 -79 567 -129 q 249 55 333 -29 q 115 256 165 139 q 65 500 65 372 q 115 744 65 628 q 249 945 165 861 q 450 1079 333 1029 q 694 1129 567 1129 q 939 1079 822 1129 q 1140 945 1056 1029 q 1274 744 1224 861 q 1324 500 1324 628 q 1274 256 1324 372 q 1140 55 1224 139 q 939 -79 1056 -29 z "},"⑩":{"ha":1389,"x_min":65,"x_max":1324,"o":"m 438 885 l 535 885 l 535 115 l 438 115 l 438 740 l 436 740 l 282 581 l 282 726 l 438 885 m 936 729 q 850 796 907 796 q 764 729 793 796 q 733 500 733 657 q 764 271 733 343 q 850 204 793 204 q 936 271 907 204 q 967 500 967 343 q 936 729 967 657 m 1008 200 q 850 104 956 104 q 692 200 744 104 q 639 500 639 297 q 692 800 639 703 q 850 896 744 896 q 1008 800 956 896 q 1061 500 1061 703 q 1008 200 1061 297 m 306 111 q 694 -51 467 -51 q 1084 110 922 -51 q 1246 500 1246 272 q 1084 890 1246 728 q 694 1051 922 1051 q 305 890 467 1051 q 143 500 143 728 q 306 111 143 272 m 939 -79 q 694 -129 822 -129 q 450 -79 567 -129 q 249 55 333 -29 q 115 256 165 139 q 65 500 65 372 q 115 744 65 628 q 249 945 165 861 q 450 1079 333 1029 q 694 1129 567 1129 q 939 1079 822 1129 q 1140 945 1056 1029 q 1274 744 1224 861 q 1324 500 1324 628 q 1274 256 1324 372 q 1140 55 1224 139 q 939 -79 1056 -29 z "},"⑪":{"ha":1389,"x_min":65,"x_max":1324,"o":"m 869 885 l 965 885 l 965 115 l 869 115 l 869 740 l 868 740 l 714 581 l 714 726 l 869 885 m 465 885 l 563 885 l 563 115 l 465 115 l 465 740 l 464 740 l 310 581 l 310 726 l 465 885 m 306 111 q 694 -51 467 -51 q 1084 110 922 -51 q 1246 500 1246 272 q 1084 890 1246 728 q 694 1051 922 1051 q 305 890 467 1051 q 143 500 143 728 q 306 111 143 272 m 939 -79 q 694 -129 822 -129 q 450 -79 567 -129 q 249 55 333 -29 q 115 256 165 139 q 65 500 65 372 q 115 744 65 628 q 249 945 165 861 q 450 1079 333 1029 q 694 1129 567 1129 q 939 1079 822 1129 q 1140 945 1056 1029 q 1274 744 1224 861 q 1324 500 1324 628 q 1274 256 1324 372 q 1140 55 1224 139 q 939 -79 1056 -29 z "},"⑫":{"ha":1389,"x_min":65,"x_max":1324,"o":"m 792 222 l 792 221 l 1032 221 l 1032 115 l 669 115 l 669 221 q 881 488 829 397 q 933 661 933 581 q 904 760 933 728 q 835 788 879 788 q 682 728 767 788 l 682 849 q 847 896 760 896 q 982 836 933 896 q 1029 672 1029 779 q 978 478 1029 578 q 792 222 929 382 m 438 885 l 535 885 l 535 115 l 438 115 l 438 740 l 436 740 l 282 581 l 282 726 l 438 885 m 306 111 q 694 -51 467 -51 q 1084 110 922 -51 q 1246 500 1246 272 q 1084 890 1246 728 q 694 1051 922 1051 q 305 890 467 1051 q 143 500 143 728 q 306 111 143 272 m 939 -79 q 694 -129 822 -129 q 450 -79 567 -129 q 249 55 333 -29 q 115 256 165 139 q 65 500 65 372 q 115 744 65 628 q 249 945 165 861 q 450 1079 333 1029 q 694 1129 567 1129 q 939 1079 822 1129 q 1140 945 1056 1029 q 1274 744 1224 861 q 1324 500 1324 628 q 1274 256 1324 372 q 1140 55 1224 139 q 939 -79 1056 -29 z "},"⑬":{"ha":1389,"x_min":65,"x_max":1324,"o":"m 796 475 l 743 475 l 743 564 l 908 778 l 908 779 l 668 779 l 668 885 l 1021 885 l 1021 779 l 850 565 l 850 564 l 872 564 q 988 508 946 564 q 1029 354 1029 453 q 976 168 1029 233 q 826 104 925 104 q 674 143 743 104 l 674 258 q 819 208 749 208 q 907 244 875 208 q 938 351 938 281 q 906 446 938 417 q 858 469 889 463 q 796 475 835 475 m 438 885 l 535 885 l 535 115 l 438 115 l 438 740 l 436 740 l 282 581 l 282 726 l 438 885 m 306 111 q 694 -51 467 -51 q 1084 110 922 -51 q 1246 500 1246 272 q 1084 890 1246 728 q 694 1051 922 1051 q 305 890 467 1051 q 143 500 143 728 q 306 111 143 272 m 939 -79 q 694 -129 822 -129 q 450 -79 567 -129 q 249 55 333 -29 q 115 256 165 139 q 65 500 65 372 q 115 744 65 628 q 249 945 165 861 q 450 1079 333 1029 q 694 1129 567 1129 q 939 1079 822 1129 q 1140 945 1056 1029 q 1274 744 1224 861 q 1324 500 1324 628 q 1274 256 1324 372 q 1140 55 1224 139 q 939 -79 1056 -29 z "},"⑭":{"ha":1389,"x_min":65,"x_max":1324,"o":"m 879 719 l 878 719 l 704 382 l 704 379 l 879 379 l 879 719 m 438 885 l 535 885 l 535 115 l 438 115 l 438 740 l 436 740 l 282 581 l 282 726 l 438 885 m 968 276 l 968 115 l 879 115 l 879 276 l 619 276 l 619 379 l 879 885 l 968 885 l 968 379 l 1056 379 l 1056 276 l 968 276 m 306 111 q 694 -51 467 -51 q 1084 110 922 -51 q 1246 500 1246 272 q 1084 890 1246 728 q 694 1051 922 1051 q 305 890 467 1051 q 143 500 143 728 q 306 111 143 272 m 939 -79 q 694 -129 822 -129 q 450 -79 567 -129 q 249 55 333 -29 q 115 256 165 139 q 65 500 65 372 q 115 744 65 628 q 249 945 165 861 q 450 1079 333 1029 q 694 1129 567 1129 q 939 1079 822 1129 q 1140 945 1056 1029 q 1274 744 1224 861 q 1324 500 1324 628 q 1274 256 1324 372 q 1140 55 1224 139 q 939 -79 1056 -29 z "},"⑮":{"ha":1389,"x_min":65,"x_max":1324,"o":"m 772 578 l 774 578 q 861 607 814 607 q 990 546 946 607 q 1036 371 1036 483 q 986 178 1036 244 q 818 104 933 104 q 678 139 743 104 l 678 251 q 815 208 751 208 q 917 256 883 208 q 946 371 946 299 q 919 472 946 435 q 844 507 894 507 q 764 464 801 507 l 681 464 l 694 885 l 1013 885 l 1013 779 l 779 779 l 772 578 m 438 885 l 535 885 l 535 115 l 438 115 l 438 740 l 436 740 l 282 581 l 282 726 l 438 885 m 306 111 q 694 -51 467 -51 q 1084 110 922 -51 q 1246 500 1246 272 q 1084 890 1246 728 q 694 1051 922 1051 q 305 890 467 1051 q 143 500 143 728 q 306 111 143 272 m 939 -79 q 694 -129 822 -129 q 450 -79 567 -129 q 249 55 333 -29 q 115 256 165 139 q 65 500 65 372 q 115 744 65 628 q 249 945 165 861 q 450 1079 333 1029 q 694 1129 567 1129 q 939 1079 822 1129 q 1140 945 1056 1029 q 1274 744 1224 861 q 1324 500 1324 628 q 1274 256 1324 372 q 1140 55 1224 139 q 939 -79 1056 -29 z "},"⑯":{"ha":1389,"x_min":65,"x_max":1324,"o":"m 1057 376 q 1003 176 1057 250 q 853 104 949 104 q 701 186 756 104 q 647 435 647 268 q 715 794 647 682 q 883 896 775 896 q 1001 872 942 896 l 1001 769 q 886 800 946 800 q 789 746 826 800 q 740 564 749 686 q 744 569 742 567 q 749 575 747 572 q 869 629 794 629 q 1007 563 957 629 q 1057 376 1057 496 m 438 885 l 535 885 l 535 115 l 438 115 l 438 740 l 436 740 l 282 581 l 282 726 l 438 885 m 853 200 q 936 244 904 200 q 968 374 968 292 q 936 497 968 453 q 853 540 906 540 q 769 496 801 540 q 738 374 738 449 q 769 244 738 292 q 853 200 800 200 m 306 111 q 694 -51 467 -51 q 1084 110 922 -51 q 1246 500 1246 272 q 1084 890 1246 728 q 694 1051 922 1051 q 305 890 467 1051 q 143 500 143 728 q 306 111 143 272 m 939 -79 q 694 -129 822 -129 q 450 -79 567 -129 q 249 55 333 -29 q 115 256 165 139 q 65 500 65 372 q 115 744 65 628 q 249 945 165 861 q 450 1079 333 1029 q 694 1129 567 1129 q 939 1079 822 1129 q 1140 945 1056 1029 q 1274 744 1224 861 q 1324 500 1324 628 q 1274 256 1324 372 q 1140 55 1224 139 q 939 -79 1056 -29 z "},"⑰":{"ha":1389,"x_min":65,"x_max":1324,"o":"m 921 464 q 826 115 869 296 l 728 115 q 949 776 822 492 l 949 779 l 664 779 l 664 885 l 1039 885 l 1039 779 q 921 464 967 610 m 535 885 l 535 115 l 438 115 l 438 740 l 436 740 l 282 581 l 282 726 l 438 885 l 535 885 m 939 -79 q 694 -129 822 -129 q 450 -79 567 -129 q 249 55 333 -29 q 115 256 165 139 q 65 500 65 372 q 115 744 65 628 q 249 945 165 861 q 450 1079 333 1029 q 694 1129 567 1129 q 939 1079 822 1129 q 1140 945 1056 1029 q 1274 744 1224 861 q 1324 500 1324 628 q 1274 256 1324 372 q 1140 55 1224 139 q 939 -79 1056 -29 m 306 111 q 694 -51 467 -51 q 1084 110 922 -51 q 1246 500 1246 272 q 1084 890 1246 728 q 694 1051 922 1051 q 305 890 467 1051 q 143 500 143 728 q 306 111 143 272 z "},"⑱":{"ha":1389,"x_min":65,"x_max":1324,"o":"m 938 531 l 938 528 q 1021 457 989 503 q 1061 324 1061 399 q 1004 164 1061 224 q 850 104 947 104 q 694 164 751 104 q 639 324 639 221 q 678 447 639 393 q 758 515 710 490 l 758 517 q 689 588 714 547 q 657 704 657 639 q 708 843 657 790 q 850 896 760 896 q 992 843 940 896 q 1043 704 1043 790 q 1010 597 1043 644 q 938 531 982 557 m 438 885 l 535 885 l 535 115 l 438 115 l 438 740 l 436 740 l 282 581 l 282 726 l 438 885 m 853 564 q 929 617 904 583 q 954 693 954 650 q 926 772 954 740 q 850 803 900 803 q 774 772 800 803 q 747 693 747 742 q 772 615 747 646 q 853 564 799 582 m 842 474 q 757 415 788 451 q 729 329 729 379 q 763 233 729 269 q 850 197 796 197 q 938 233 904 197 q 969 329 969 267 q 938 419 969 385 q 842 474 907 450 m 306 111 q 694 -51 467 -51 q 1084 110 922 -51 q 1246 500 1246 272 q 1084 890 1246 728 q 694 1051 922 1051 q 305 890 467 1051 q 143 500 143 728 q 306 111 143 272 m 939 -79 q 694 -129 822 -129 q 450 -79 567 -129 q 249 55 333 -29 q 115 256 165 139 q 65 500 65 372 q 115 744 65 628 q 249 945 165 861 q 450 1079 333 1029 q 694 1129 567 1129 q 939 1079 822 1129 q 1140 945 1056 1029 q 1274 744 1224 861 q 1324 500 1324 628 q 1274 256 1324 372 q 1140 55 1224 139 q 939 -79 1056 -29 z "},"⑲":{"ha":1389,"x_min":65,"x_max":1324,"o":"m 915 253 q 961 436 954 311 q 956 430 960 433 q 951 425 953 426 q 831 371 906 371 q 693 439 743 371 q 643 631 643 508 q 699 825 643 753 q 849 896 753 896 q 999 815 944 896 q 1053 572 1053 733 q 996 226 1053 344 q 817 104 936 104 q 692 128 756 104 l 692 231 q 814 200 749 200 q 915 253 879 200 m 438 885 l 535 885 l 535 115 l 438 115 l 438 740 l 436 740 l 282 581 l 282 726 l 438 885 m 849 800 q 764 757 794 800 q 733 633 733 714 q 765 504 733 551 q 849 460 797 460 q 932 504 901 460 q 963 633 963 549 q 931 756 963 708 q 849 800 899 800 m 306 111 q 694 -51 467 -51 q 1084 110 922 -51 q 1246 500 1246 272 q 1084 890 1246 728 q 694 1051 922 1051 q 305 890 467 1051 q 143 500 143 728 q 306 111 143 272 m 939 -79 q 694 -129 822 -129 q 450 -79 567 -129 q 249 55 333 -29 q 115 256 165 139 q 65 500 65 372 q 115 744 65 628 q 249 945 165 861 q 450 1079 333 1029 q 694 1129 567 1129 q 939 1079 822 1129 q 1140 945 1056 1029 q 1274 744 1224 861 q 1324 500 1324 628 q 1274 256 1324 372 q 1140 55 1224 139 q 939 -79 1056 -29 z "},"⑳":{"ha":1389,"x_min":65,"x_max":1324,"o":"m 433 222 l 433 221 l 656 221 l 656 115 l 319 115 l 319 221 q 431 360 401 321 q 515 488 485 432 q 564 661 564 576 q 540 756 564 721 q 474 788 517 788 q 331 728 408 788 l 331 849 q 485 896 403 896 q 610 836 565 896 q 653 672 653 779 q 607 478 653 571 q 433 222 561 383 m 983 275 q 1010 500 1010 347 q 983 725 1010 653 q 901 796 956 796 q 821 725 847 796 q 794 500 794 653 q 821 275 794 347 q 901 204 847 204 q 983 275 956 204 m 901 104 q 753 204 800 104 q 706 500 706 301 q 753 796 706 699 q 901 896 800 896 q 1051 796 1003 896 q 1097 500 1097 703 q 1051 204 1097 297 q 901 104 1003 104 m 306 111 q 694 -51 467 -51 q 1084 110 922 -51 q 1246 500 1246 272 q 1084 890 1246 728 q 694 1051 922 1051 q 305 890 467 1051 q 143 500 143 728 q 306 111 143 272 m 939 -79 q 694 -129 822 -129 q 450 -79 567 -129 q 249 55 333 -29 q 115 256 165 139 q 65 500 65 372 q 115 744 65 628 q 249 945 165 861 q 450 1079 333 1029 q 694 1129 567 1129 q 939 1079 822 1129 q 1140 945 1056 1029 q 1274 744 1224 861 q 1324 500 1324 628 q 1274 256 1324 372 q 1140 55 1224 139 q 939 -79 1056 -29 z "},"─":{"ha":1389,"x_min":0,"x_max":1389,"o":"m 0 468 l 0 532 l 1389 532 l 1389 468 l 0 468 z "},"━":{"ha":1389,"x_min":0,"x_max":1389,"o":"m 0 399 l 0 601 l 1389 601 l 1389 399 l 0 399 z "},"│":{"ha":1389,"x_min":663,"x_max":726,"o":"m 663 -194 l 663 1194 l 726 1194 l 726 -194 l 663 -194 z "},"┃":{"ha":1389,"x_min":593,"x_max":796,"o":"m 593 -194 l 593 1194 l 796 1194 l 796 -194 l 593 -194 z "},"┌":{"ha":1389,"x_min":663,"x_max":1389,"o":"m 663 532 l 1389 532 l 1389 468 l 726 468 l 726 -194 l 663 -194 l 663 532 z "},"┏":{"ha":1389,"x_min":593,"x_max":1389,"o":"m 1389 601 l 1389 399 l 796 399 l 796 -194 l 593 -194 l 593 601 l 1389 601 z "},"┐":{"ha":1389,"x_min":0,"x_max":726,"o":"m 726 532 l 726 -194 l 663 -194 l 663 468 l 0 468 l 0 532 l 726 532 z "},"┓":{"ha":1389,"x_min":0,"x_max":796,"o":"m 0 601 l 796 601 l 796 -194 l 593 -194 l 593 399 l 0 399 l 0 601 z "},"└":{"ha":1389,"x_min":663,"x_max":1389,"o":"m 663 468 l 663 1194 l 726 1194 l 726 532 l 1389 532 l 1389 468 l 663 468 z "},"┗":{"ha":1389,"x_min":593,"x_max":1389,"o":"m 1389 399 l 593 399 l 593 1194 l 796 1194 l 796 601 l 1389 601 l 1389 399 z "},"┘":{"ha":1389,"x_min":0,"x_max":726,"o":"m 726 468 l 0 468 l 0 532 l 663 532 l 663 1194 l 726 1194 l 726 468 z "},"┛":{"ha":1389,"x_min":0,"x_max":796,"o":"m 0 399 l 0 601 l 593 601 l 593 1194 l 796 1194 l 796 399 l 0 399 z "},"├":{"ha":1389,"x_min":663,"x_max":1389,"o":"m 1389 532 l 1389 468 l 726 468 l 726 -194 l 663 -194 l 663 1194 l 726 1194 l 726 532 l 1389 532 z "},"┝":{"ha":1389,"x_min":663,"x_max":1389,"o":"m 663 -194 l 663 1194 l 726 1194 l 726 601 l 1389 601 l 1389 399 l 726 399 l 726 -194 l 663 -194 z "},"┠":{"ha":1389,"x_min":593,"x_max":1389,"o":"m 593 -194 l 593 1194 l 796 1194 l 796 532 l 1389 532 l 1389 468 l 796 468 l 796 -194 l 593 -194 z "},"┣":{"ha":1389,"x_min":593,"x_max":1389,"o":"m 593 -194 l 593 1194 l 796 1194 l 796 601 l 1389 601 l 1389 399 l 796 399 l 796 -194 l 593 -194 z "},"┤":{"ha":1389,"x_min":0,"x_max":726,"o":"m 726 -194 l 663 -194 l 663 468 l 0 468 l 0 532 l 663 532 l 663 1194 l 726 1194 l 726 -194 z "},"┥":{"ha":1389,"x_min":0,"x_max":726,"o":"m 726 -194 l 663 -194 l 663 399 l 0 399 l 0 601 l 663 601 l 663 1194 l 726 1194 l 726 -194 z "},"┨":{"ha":1389,"x_min":0,"x_max":796,"o":"m 796 -194 l 593 -194 l 593 468 l 0 468 l 0 532 l 593 532 l 593 1194 l 796 1194 l 796 -194 z "},"┫":{"ha":1389,"x_min":0,"x_max":796,"o":"m 796 -194 l 593 -194 l 593 399 l 0 399 l 0 601 l 593 601 l 593 1194 l 796 1194 l 796 -194 z "},"┬":{"ha":1389,"x_min":0,"x_max":1389,"o":"m 663 -194 l 663 468 l 0 468 l 0 532 l 1389 532 l 1389 468 l 726 468 l 726 -194 l 663 -194 z "},"┯":{"ha":1389,"x_min":0,"x_max":1389,"o":"m 1389 601 l 1389 399 l 726 399 l 726 -194 l 663 -194 l 663 399 l 0 399 l 0 601 l 1389 601 z "},"┰":{"ha":1389,"x_min":0,"x_max":1389,"o":"m 0 532 l 1389 532 l 1389 468 l 796 468 l 796 -194 l 593 -194 l 593 468 l 0 468 l 0 532 z "},"┳":{"ha":1389,"x_min":0,"x_max":1389,"o":"m 1389 601 l 1389 399 l 796 399 l 796 -194 l 593 -194 l 593 399 l 0 399 l 0 601 l 1389 601 z "},"┴":{"ha":1389,"x_min":0,"x_max":1389,"o":"m 1389 532 l 1389 468 l 0 468 l 0 532 l 663 532 l 663 1194 l 726 1194 l 726 532 l 1389 532 z "},"┷":{"ha":1389,"x_min":0,"x_max":1389,"o":"m 1389 399 l 0 399 l 0 601 l 663 601 l 663 1194 l 726 1194 l 726 601 l 1389 601 l 1389 399 z "},"┸":{"ha":1389,"x_min":0,"x_max":1389,"o":"m 0 468 l 0 532 l 593 532 l 593 1194 l 796 1194 l 796 532 l 1389 532 l 1389 468 l 0 468 z "},"┻":{"ha":1389,"x_min":0,"x_max":1389,"o":"m 1389 399 l 0 399 l 0 601 l 593 601 l 593 1194 l 796 1194 l 796 601 l 1389 601 l 1389 399 z "},"┼":{"ha":1389,"x_min":0,"x_max":1389,"o":"m 663 -194 l 663 468 l 0 468 l 0 532 l 663 532 l 663 1194 l 726 1194 l 726 532 l 1389 532 l 1389 468 l 726 468 l 726 -194 l 663 -194 z "},"┿":{"ha":1389,"x_min":0,"x_max":1389,"o":"m 1389 601 l 1389 399 l 726 399 l 726 -194 l 663 -194 l 663 399 l 0 399 l 0 601 l 663 601 l 663 1194 l 726 1194 l 726 601 l 1389 601 z "},"╂":{"ha":1389,"x_min":0,"x_max":1389,"o":"m 796 -194 l 593 -194 l 593 468 l 0 468 l 0 532 l 593 532 l 593 1194 l 796 1194 l 796 532 l 1389 532 l 1389 468 l 796 468 l 796 -194 z "},"╋":{"ha":1389,"x_min":0,"x_max":1389,"o":"m 796 1194 l 796 601 l 1389 601 l 1389 399 l 796 399 l 796 -194 l 593 -194 l 593 399 l 0 399 l 0 601 l 593 601 l 593 1194 l 796 1194 z "},"■":{"ha":1389,"x_min":188,"x_max":1201,"o":"m 188 0 l 188 1014 l 1201 1014 l 1201 0 l 188 0 z "},"□":{"ha":1389,"x_min":188,"x_max":1201,"o":"m 253 949 l 253 65 l 1136 65 l 1136 949 l 253 949 m 1201 0 l 188 0 l 188 1014 l 1201 1014 l 1201 0 z "},"▲":{"ha":1389,"x_min":69,"x_max":1319,"o":"m 1319 0 l 69 0 l 694 1083 l 1319 0 z "},"△":{"ha":1389,"x_min":69,"x_max":1319,"o":"m 1319 0 l 69 0 l 694 1083 l 1319 0 m 694 954 l 182 65 l 1207 65 l 694 954 z "},"▼":{"ha":1389,"x_min":69,"x_max":1319,"o":"m 1319 1028 l 694 -56 l 69 1028 l 1319 1028 z "},"▽":{"ha":1389,"x_min":69,"x_max":1319,"o":"m 694 74 l 1207 963 l 182 963 l 694 74 m 694 -56 l 69 1028 l 1319 1028 l 694 -56 z "},"◆":{"ha":1389,"x_min":42,"x_max":1347,"o":"m 694 -146 l 42 507 l 694 1160 l 1347 507 l 694 -146 z "},"◇":{"ha":1389,"x_min":42,"x_max":1347,"o":"m 694 1068 l 133 507 l 694 -54 l 1256 507 l 694 1068 m 694 -146 l 42 507 l 694 1160 l 1347 507 l 694 -146 z "},"○":{"ha":1389,"x_min":146,"x_max":1243,"o":"m 1036 849 q 694 990 894 990 q 353 849 494 990 q 211 507 211 707 q 353 165 211 307 q 694 24 494 24 q 1036 165 894 24 q 1178 507 1178 307 q 1036 849 1178 707 m 1083 119 q 694 -42 922 -42 q 306 119 467 -42 q 146 507 146 281 q 306 894 146 733 q 694 1056 467 1056 q 1083 894 922 1056 q 1243 507 1243 733 q 1083 119 1243 281 z "},"◎":{"ha":1389,"x_min":146,"x_max":1243,"o":"m 500 313 q 694 232 581 232 q 889 313 808 232 q 969 507 969 393 q 889 701 969 621 q 694 782 808 782 q 500 701 581 782 q 419 507 419 621 q 500 313 419 393 m 935 267 q 694 167 835 167 q 454 267 554 167 q 354 507 354 367 q 454 747 354 647 q 694 847 554 847 q 935 747 835 847 q 1035 507 1035 647 q 935 267 1035 367 m 1083 119 q 694 -42 922 -42 q 306 119 467 -42 q 146 507 146 281 q 306 894 146 733 q 694 1056 467 1056 q 1083 894 922 1056 q 1243 507 1243 733 q 1083 119 1243 281 m 353 165 q 694 24 494 24 q 1036 165 894 24 q 1178 507 1178 307 q 1036 849 1178 707 q 694 990 894 990 q 353 849 494 990 q 211 507 211 707 q 353 165 211 307 z "},"●":{"ha":1389,"x_min":146,"x_max":1243,"o":"m 1083 119 q 694 -42 922 -42 q 306 119 467 -42 q 146 507 146 281 q 306 894 146 733 q 694 1056 467 1056 q 1083 894 922 1056 q 1243 507 1243 733 q 1083 119 1243 281 z "},"◯":{"ha":1389,"x_min":35,"x_max":1354,"o":"m 1115 928 q 694 1101 942 1101 q 274 928 447 1101 q 100 507 100 754 q 274 86 100 260 q 694 -87 447 -87 q 1115 86 942 -87 q 1289 507 1289 260 q 1115 928 1289 754 m 951 -101 q 694 -153 829 -153 q 438 -101 560 -153 q 228 40 317 -49 q 87 251 139 129 q 35 507 35 372 q 87 763 35 642 q 228 974 139 885 q 438 1115 317 1063 q 694 1167 560 1167 q 951 1115 829 1167 q 1161 974 1072 1063 q 1302 763 1250 885 q 1354 507 1354 642 q 1302 251 1354 372 q 1161 40 1250 129 q 951 -101 1072 -49 z "},"★":{"ha":1389,"x_min":42,"x_max":1347,"o":"m 1347 715 l 944 422 l 1097 -53 l 694 242 l 292 -53 l 444 422 l 42 715 l 540 715 l 694 1189 l 849 715 l 1347 715 z "},"☆":{"ha":1389,"x_min":42,"x_max":1347,"o":"m 694 315 l 983 106 l 874 446 l 1163 656 l 804 656 l 694 994 l 585 656 l 226 656 l 515 446 l 406 106 l 694 315 m 694 242 l 292 -53 l 444 422 l 42 715 l 540 715 l 694 1189 l 849 715 l 1347 715 l 944 422 l 1097 -53 l 694 242 z "},"♀":{"ha":847,"x_min":90,"x_max":757,"o":"m 757 296 l 757 232 l 456 232 l 456 -42 l 392 -42 l 392 232 l 90 232 l 90 296 l 392 296 l 392 460 q 178 567 265 472 q 90 792 90 663 q 188 1027 90 929 q 424 1125 286 1125 q 659 1027 561 1125 q 757 792 757 929 q 669 567 757 663 q 456 460 582 472 l 456 296 l 757 296 m 235 603 q 424 524 313 524 q 613 602 535 524 q 692 792 692 681 q 613 981 692 903 q 424 1060 535 1060 q 234 981 313 1060 q 156 792 156 903 q 235 603 156 681 z "},"♂":{"ha":1188,"x_min":69,"x_max":1097,"o":"m 986 949 l 588 949 l 588 1014 l 1097 1014 l 1097 504 l 1032 504 l 1032 903 l 660 531 q 736 319 736 439 q 638 84 736 182 q 403 -14 540 -14 q 167 84 265 -14 q 69 319 69 182 q 167 555 69 457 q 403 653 265 653 q 614 576 522 653 l 986 949 m 214 131 q 403 51 292 51 q 592 130 514 51 q 671 319 671 208 q 592 509 671 431 q 403 588 514 588 q 213 509 292 588 q 135 319 135 431 q 214 131 135 208 z "},"♪":{"ha":868,"x_min":76,"x_max":792,"o":"m 271 271 q 375 243 328 271 l 378 246 l 378 1042 l 438 1042 q 501 970 443 1021 q 622 865 558 919 q 739 729 686 811 q 792 569 792 647 q 747 438 792 499 q 601 315 703 376 l 574 354 q 689 457 660 415 q 718 556 718 499 q 643 701 718 622 q 438 836 568 781 l 438 194 q 382 41 438 96 q 229 -14 326 -14 q 119 22 163 -14 q 76 111 76 57 q 131 225 76 179 q 271 271 185 271 z "},"♭":{"ha":903,"x_min":188,"x_max":771,"o":"m 188 1042 l 253 1042 l 253 586 q 549 708 396 708 q 712 652 653 708 q 771 497 771 596 q 617 188 771 321 q 188 -14 464 56 l 188 1042 m 253 508 l 253 72 q 535 235 438 131 q 632 475 632 339 q 489 625 632 625 q 253 508 374 625 z "},"♯":{"ha":976,"x_min":132,"x_max":844,"o":"m 674 822 l 844 865 l 844 744 l 674 701 l 674 435 l 844 478 l 844 357 l 674 313 l 674 28 l 614 28 l 614 297 l 364 235 l 364 -28 l 303 -28 l 303 219 l 132 176 l 132 297 l 303 340 l 303 607 l 132 564 l 132 685 l 303 729 l 303 986 l 364 986 l 364 744 l 614 807 l 614 1042 l 674 1042 l 674 822 m 614 686 l 364 622 l 364 356 l 614 419 l 614 686 z "},"　":{"ha":1389,"x_min":0,"x_max":0,"o":""},"、":{"ha":1389,"x_min":81,"x_max":443,"o":"m 443 -11 l 353 -82 q 81 214 211 88 l 165 290 q 443 -11 307 151 z "},"。":{"ha":1389,"x_min":85,"x_max":511,"o":"m 147 -47 q 85 104 85 15 q 147 255 85 193 q 299 317 210 317 q 449 255 388 317 q 511 104 511 193 q 449 -47 511 15 q 299 -110 388 -110 q 147 -47 210 -110 m 207 196 q 168 104 168 158 q 206 12 168 50 q 299 -26 244 -26 q 390 12 353 -26 q 428 104 428 50 q 390 196 428 158 q 299 233 353 233 q 207 196 244 233 z "},"〃":{"ha":1389,"x_min":214,"x_max":1101,"o":"m 776 25 l 675 74 q 990 960 926 490 l 1101 947 q 776 25 1036 453 m 315 103 l 214 153 q 538 960 472 533 l 647 947 q 315 103 581 494 z "},"々":{"ha":1389,"x_min":96,"x_max":1129,"o":"m 438 383 l 507 463 q 726 282 613 382 q 1018 778 958 529 l 529 778 q 182 293 389 503 l 96 360 q 549 1101 403 671 l 654 1079 q 575 872 613 954 l 1129 872 l 1129 778 q 804 211 1069 493 q 1019 -6 924 101 l 939 -78 q 438 383 711 175 z "},"〆":{"ha":1389,"x_min":157,"x_max":1272,"o":"m 514 636 q 337 502 403 636 q 261 90 271 368 q 694 586 439 313 q 514 636 603 636 m 851 600 q 1164 269 1013 479 l 1079 199 q 783 528 929 414 q 268 -69 464 188 l 157 -37 q 185 328 157 174 q 265 569 214 483 q 375 693 315 654 q 507 732 435 732 q 763 658 633 732 q 1193 1081 1011 918 l 1272 1008 q 851 600 1085 844 z "},"〇":{"ha":1389,"x_min":93,"x_max":1296,"o":"m 1119 75 q 694 -101 943 -101 q 269 75 446 -101 q 93 500 93 251 q 269 925 93 749 q 694 1101 446 1101 q 1119 925 943 1101 q 1296 500 1296 749 q 1119 75 1296 251 m 342 147 q 694 0 488 0 q 1048 147 901 0 q 1194 500 1194 293 q 1048 853 1194 707 q 694 1000 901 1000 q 341 853 488 1000 q 194 500 194 707 q 342 147 194 293 z "},"〈":{"ha":1389,"x_min":761,"x_max":1254,"o":"m 1254 1132 l 875 500 l 1254 -132 l 1142 -132 l 761 500 l 1142 1132 l 1254 1132 z "},"〉":{"ha":1389,"x_min":135,"x_max":628,"o":"m 135 1132 l 247 1132 l 628 500 l 247 -132 l 135 -132 l 514 500 l 135 1132 z "},"《":{"ha":1389,"x_min":553,"x_max":1254,"o":"m 1254 1132 l 875 500 l 1254 -132 l 1146 -132 l 767 500 l 1146 1132 l 1254 1132 m 1042 1132 l 661 500 l 1042 -132 l 933 -132 l 553 500 l 933 1132 l 1042 1132 z "},"》":{"ha":1389,"x_min":135,"x_max":836,"o":"m 135 1132 l 243 1132 l 622 500 l 243 -132 l 135 -132 l 514 500 l 135 1132 m 347 1132 l 456 1132 l 836 500 l 456 -132 l 347 -132 l 728 500 l 347 1132 z "},"「":{"ha":1389,"x_min":764,"x_max":1296,"o":"m 865 93 l 764 93 l 764 1143 l 1296 1143 l 1296 1056 l 865 1056 l 865 93 z "},"」":{"ha":1389,"x_min":93,"x_max":625,"o":"m 524 907 l 625 907 l 625 -143 l 93 -143 l 93 -56 l 524 -56 l 524 907 z "},"『":{"ha":1389,"x_min":713,"x_max":1296,"o":"m 1232 976 l 1232 1079 l 778 1079 l 778 107 l 879 107 l 879 976 l 1232 976 m 778 42 l 713 42 l 713 1143 l 1296 1143 l 1296 913 l 944 913 l 944 42 l 778 42 z "},"』":{"ha":1389,"x_min":93,"x_max":676,"o":"m 611 893 l 510 893 l 510 24 l 157 24 l 157 -79 l 611 -79 l 611 893 m 611 958 l 676 958 l 676 -143 l 93 -143 l 93 88 l 444 88 l 444 958 l 611 958 z "},"【":{"ha":1389,"x_min":847,"x_max":1254,"o":"m 847 -132 l 847 1132 l 1254 1132 q 1049 842 1122 1008 q 976 500 976 676 q 1049 158 976 324 q 1254 -132 1122 -8 l 847 -132 z "},"】":{"ha":1389,"x_min":135,"x_max":542,"o":"m 542 -132 l 135 -132 q 340 158 267 -8 q 413 500 413 324 q 340 842 413 676 q 135 1132 267 1008 l 542 1132 l 542 -132 z "},"〒":{"ha":1389,"x_min":153,"x_max":1236,"o":"m 636 576 l 153 576 l 153 674 l 1236 674 l 1236 576 l 753 576 l 753 -49 l 636 -49 l 636 576 m 153 938 l 153 1035 l 1236 1035 l 1236 938 l 153 938 z "},"〓":{"ha":1389,"x_min":167,"x_max":1222,"o":"m 167 -56 l 167 361 l 1222 361 l 1222 -56 l 167 -56 m 167 639 l 167 1056 l 1222 1056 l 1222 639 l 167 639 z "},"〔":{"ha":1389,"x_min":733,"x_max":1219,"o":"m 1219 1051 l 836 922 l 836 78 l 1219 -51 l 1219 -139 l 733 24 l 733 976 l 1219 1139 l 1219 1051 z "},"〕":{"ha":1389,"x_min":169,"x_max":656,"o":"m 169 1051 l 169 1139 l 656 976 l 656 24 l 169 -139 l 169 -51 l 553 78 l 553 922 l 169 1051 z "},"〝":{"ha":1389,"x_min":796,"x_max":1264,"o":"m 918 1143 l 1018 865 l 943 865 l 796 1143 l 918 1143 m 1163 1143 l 1264 865 l 1189 865 l 1042 1143 l 1163 1143 z "},"〟":{"ha":1389,"x_min":125,"x_max":593,"o":"m 471 -143 l 371 135 l 446 135 l 593 -143 l 471 -143 m 226 -143 l 125 135 l 200 135 l 347 -143 l 226 -143 z "},"ぁ":{"ha":1389,"x_min":242,"x_max":1147,"o":"m 800 1 q 983 88 917 24 q 1050 240 1050 153 q 925 426 1050 374 q 712 92 850 215 q 435 -31 574 -31 q 294 23 346 -31 q 242 171 242 76 q 316 374 242 285 q 519 507 390 463 l 519 663 l 285 663 l 285 746 l 519 746 l 519 882 l 614 882 l 614 746 l 1104 746 l 1104 663 l 614 663 l 614 532 q 754 543 674 543 q 1043 462 939 543 q 1147 240 1147 381 q 1061 29 1147 117 q 825 -86 975 -58 l 800 1 m 836 450 q 754 456 803 456 q 614 442 675 456 l 614 126 q 836 450 761 240 m 519 411 q 387 314 435 375 q 339 181 339 253 q 367 89 339 121 q 444 57 394 57 q 519 72 478 57 l 519 411 z "},"あ":{"ha":1389,"x_min":135,"x_max":1254,"o":"m 828 4 q 1066 117 979 33 q 1153 315 1153 200 q 978 564 1153 496 q 712 139 886 296 q 365 -18 538 -18 q 196 47 257 -18 q 135 226 135 111 q 227 480 135 368 q 482 646 319 592 l 482 851 l 185 851 l 185 940 l 482 940 l 482 1115 l 583 1115 l 583 940 l 1204 940 l 1204 851 l 583 851 l 583 672 q 768 690 676 690 q 1125 590 996 690 q 1254 315 1254 489 q 1147 54 1254 161 q 853 -87 1040 -53 l 828 4 m 885 589 q 768 597 832 597 q 583 576 669 597 l 583 154 q 755 333 675 221 q 885 589 835 444 m 482 544 q 302 416 368 497 q 236 236 236 335 q 272 116 236 158 q 375 74 308 74 q 482 96 428 74 l 482 544 z "},"ぃ":{"ha":1389,"x_min":264,"x_max":1153,"o":"m 907 736 l 999 767 q 1153 64 1153 471 l 1053 64 q 1015 422 1053 244 q 907 736 976 599 m 315 760 l 414 747 q 365 378 365 574 q 413 144 365 239 q 510 49 461 49 q 599 119 544 49 q 701 317 653 189 l 792 282 q 655 36 736 125 q 504 -53 574 -53 q 340 73 415 -53 q 264 378 264 199 q 315 760 264 588 z "},"い":{"ha":1389,"x_min":163,"x_max":1264,"o":"m 974 935 l 1071 968 q 1214 567 1164 794 q 1264 97 1264 339 l 1157 97 q 1109 546 1157 325 q 974 935 1061 767 m 328 947 q 268 486 268 732 q 332 183 268 306 q 461 60 396 60 q 576 149 506 60 q 708 404 646 239 l 806 367 q 638 64 738 174 q 454 -46 539 -46 q 254 110 346 -46 q 163 486 163 265 q 225 961 163 749 l 328 947 z "},"ぅ":{"ha":1389,"x_min":281,"x_max":1108,"o":"m 281 501 q 779 572 571 572 q 1031 508 953 572 q 1108 342 1108 444 q 951 70 1108 176 q 504 -58 794 -36 l 485 32 q 874 138 740 56 q 1008 338 1008 221 q 774 481 1008 481 q 303 411 606 481 l 281 501 m 438 758 l 449 847 q 946 808 697 808 l 946 715 q 438 758 725 715 z "},"う":{"ha":1389,"x_min":183,"x_max":1208,"o":"m 183 639 q 801 726 542 726 q 1113 647 1018 726 q 1208 444 1208 568 q 1012 107 1208 240 q 460 -56 815 -26 l 435 42 q 929 181 757 72 q 1101 440 1101 289 q 796 629 1101 629 q 206 544 569 629 l 183 639 m 378 975 l 390 1069 q 1004 1018 713 1018 l 1004 921 q 378 975 729 921 z "},"ぇ":{"ha":1389,"x_min":249,"x_max":1150,"o":"m 324 606 l 1018 606 l 1018 507 l 750 289 l 751 288 q 768 290 763 290 q 827 260 804 290 q 871 151 850 231 q 911 60 889 79 q 993 42 933 42 q 1132 61 1064 42 l 1150 -25 q 983 -47 1068 -47 q 848 -17 890 -47 q 785 97 806 14 q 748 194 767 168 q 701 219 729 219 q 617 183 669 219 q 306 -57 564 146 l 249 18 l 881 515 l 879 518 l 324 518 l 324 606 m 438 765 l 449 853 q 946 813 706 813 l 946 722 q 438 765 725 722 z "},"え":{"ha":1389,"x_min":142,"x_max":1261,"o":"m 232 768 l 1094 768 l 1094 665 l 750 382 l 751 381 q 774 383 765 383 q 849 346 821 383 q 907 197 878 308 q 960 78 932 103 q 1065 53 989 53 q 1243 78 1156 53 l 1261 -14 q 1056 -42 1160 -42 q 893 -3 944 -42 q 815 142 842 36 q 767 270 792 236 q 704 304 742 304 q 668 300 682 304 q 599 258 654 296 q 463 155 544 219 q 203 -53 381 90 l 142 25 l 946 674 l 944 676 l 232 676 l 232 768 m 378 982 l 390 1074 q 1004 1024 703 1024 l 1004 928 q 378 982 729 928 z "},"ぉ":{"ha":1389,"x_min":231,"x_max":1215,"o":"m 272 735 l 544 735 l 544 882 l 640 882 l 640 735 l 931 735 l 931 651 l 640 651 l 640 475 q 732 479 683 479 q 999 404 899 479 q 1100 226 1100 329 q 1019 24 1100 99 q 783 -65 939 -50 l 764 22 q 1001 222 1001 47 q 928 338 1001 288 q 732 388 854 388 q 640 383 683 388 l 640 111 q 604 -12 640 24 q 482 -47 568 -47 q 306 19 382 -47 q 231 176 231 86 q 313 350 231 272 q 544 460 394 428 l 544 651 l 272 651 l 272 735 m 968 726 l 1035 778 q 1215 540 1143 654 l 1142 494 q 968 726 1058 624 m 544 367 q 383 290 439 342 q 328 176 328 239 q 373 82 328 125 q 472 39 418 39 q 528 56 513 39 q 544 115 544 72 l 544 367 z "},"お":{"ha":1389,"x_min":121,"x_max":1326,"o":"m 171 926 l 514 926 l 514 1115 l 615 1115 l 615 926 l 972 926 l 972 838 l 615 838 l 615 600 q 740 607 681 607 q 1074 515 949 607 q 1199 296 1199 422 q 1099 45 1199 138 q 807 -65 1000 -47 l 786 28 q 1094 292 1094 61 q 999 444 1094 379 q 740 510 903 510 q 615 503 681 510 l 615 149 q 572 1 615 44 q 426 -42 529 -42 q 213 40 306 -42 q 121 232 121 122 q 224 449 121 351 q 514 585 326 546 l 514 838 l 171 838 l 171 926 m 1028 921 l 1100 979 q 1326 688 1222 847 l 1250 638 q 1028 921 1154 786 m 514 486 q 298 385 374 454 q 222 232 222 315 q 283 106 222 163 q 417 49 344 49 q 492 72 469 49 q 514 150 514 94 l 514 486 z "},"か":{"ha":1389,"x_min":118,"x_max":1338,"o":"m 135 740 l 135 833 l 406 833 q 465 1126 444 1004 l 565 1115 q 510 833 546 993 l 635 833 q 715 833 686 833 q 778 829 743 833 q 829 822 813 825 q 867 807 846 819 q 895 785 888 794 q 913 751 903 776 q 926 707 924 726 q 931 646 928 688 q 935 571 935 604 q 935 476 935 538 q 874 87 935 219 q 718 -46 813 -46 q 436 29 600 -46 l 469 122 q 699 56 625 56 q 758 99 729 56 q 808 244 786 142 q 829 490 829 347 q 829 558 829 536 q 827 612 829 581 q 824 655 825 643 q 817 685 824 667 q 807 709 810 704 q 790 724 804 714 q 769 734 776 733 q 738 738 761 735 q 701 740 715 740 q 653 740 686 740 l 488 740 q 213 -56 385 324 l 118 -18 q 383 740 281 342 l 135 740 m 996 924 l 1092 958 q 1338 253 1246 608 l 1239 228 q 996 924 1143 588 z "},"が":{"ha":1389,"x_min":118,"x_max":1332,"o":"m 893 1029 l 976 1074 q 1106 846 1044 961 l 1022 806 q 893 1029 968 908 m 1088 1082 l 1172 1128 q 1306 894 1254 993 l 1219 853 q 1088 1082 1156 971 m 135 740 l 135 833 l 406 833 q 465 1126 444 1004 l 565 1115 q 510 833 546 993 l 629 833 q 726 833 693 833 q 799 826 760 833 q 853 813 838 818 q 889 784 869 807 q 913 742 908 761 q 924 678 918 724 q 931 592 931 632 q 931 476 931 553 q 869 87 931 219 q 713 -46 807 -46 q 431 29 594 -46 l 465 122 q 694 56 621 56 q 739 81 717 56 q 781 158 761 107 q 812 295 800 208 q 824 490 824 382 q 824 558 824 538 q 822 612 824 579 q 819 656 819 644 q 813 686 819 667 q 802 710 806 706 q 785 724 799 714 q 765 734 772 733 q 734 738 757 735 q 697 740 711 740 q 649 740 682 740 l 488 740 q 213 -56 385 324 l 118 -18 q 383 740 281 342 l 135 740 m 1236 203 q 1006 719 1147 443 l 1099 760 q 1332 235 1240 486 l 1236 203 z "},"き":{"ha":1389,"x_min":143,"x_max":1247,"o":"m 740 947 q 724 1111 728 1026 l 825 1117 q 844 950 831 1038 q 1211 967 1022 956 l 1215 878 q 860 863 972 867 q 910 688 878 775 q 1244 701 1135 696 l 1247 614 q 944 600 1147 608 q 1083 353 994 486 l 990 288 q 626 378 797 378 q 344 222 344 378 q 438 74 344 122 q 742 25 532 25 q 1065 53 892 25 l 1078 -37 q 742 -65 907 -65 q 233 222 233 -65 q 328 397 233 328 q 626 465 422 465 q 928 406 774 465 l 929 408 q 838 597 883 492 q 143 586 463 586 l 143 674 q 804 683 492 674 q 756 860 776 763 q 193 850 421 850 l 193 939 q 740 947 461 939 z "},"ぎ":{"ha":1389,"x_min":129,"x_max":1369,"o":"m 985 1115 l 1061 1156 q 1178 949 1118 1063 l 1101 910 q 985 1115 1051 1006 m 1172 1138 l 1250 1179 q 1369 967 1306 1086 l 1292 928 q 1172 1138 1231 1043 m 685 1097 l 788 1103 q 806 936 794 1007 q 1044 947 881 939 l 1049 858 q 822 849 972 854 q 872 672 840 758 q 1231 688 1003 676 l 1233 600 q 907 586 1126 594 q 1046 339 957 471 l 951 274 q 589 364 758 364 q 315 208 315 364 q 409 60 315 108 q 714 11 503 11 q 1036 39 863 11 l 1049 -51 q 714 -79 878 -79 q 204 208 204 -79 q 298 382 204 313 q 589 451 392 451 q 890 392 736 451 l 892 394 q 800 582 835 499 q 129 572 483 572 l 129 660 q 767 669 465 660 q 718 846 739 749 q 179 836 397 836 l 179 925 q 701 933 435 925 q 685 1097 689 1013 z "},"く":{"ha":1389,"x_min":236,"x_max":1050,"o":"m 1007 1031 q 483 646 724 803 q 378 572 400 592 q 357 528 357 551 q 376 487 357 506 q 468 418 396 468 q 1050 -33 758 221 l 975 -108 q 406 335 689 139 q 265 443 294 411 q 236 528 236 475 q 267 616 236 583 q 417 726 297 649 q 939 1108 676 899 l 1007 1031 z "},"ぐ":{"ha":1389,"x_min":171,"x_max":1268,"o":"m 826 743 l 917 790 q 1058 542 993 665 l 968 497 q 826 743 918 592 m 1032 801 l 1122 850 q 1268 597 1200 724 l 1176 551 q 1032 801 1118 660 m 936 1038 q 418 650 675 824 q 314 574 336 594 q 292 528 292 553 q 310 486 292 504 q 403 417 329 468 q 979 -43 675 225 l 910 -122 q 340 332 621 133 q 200 442 229 410 q 171 528 171 475 q 203 619 171 585 q 351 732 235 653 q 874 1122 617 911 l 936 1038 z "},"け":{"ha":1389,"x_min":153,"x_max":1310,"o":"m 510 810 l 982 810 l 982 1079 l 1083 1079 l 1083 810 l 1310 810 l 1310 718 l 1083 718 l 1083 510 q 1051 203 1083 310 q 942 37 1019 96 q 706 -64 864 -22 l 674 28 q 787 63 744 47 q 867 104 829 78 q 925 160 906 131 q 959 240 944 189 q 978 353 974 290 q 982 510 982 415 l 982 718 l 510 718 l 510 810 m 326 1053 q 260 500 260 800 q 326 -53 260 200 l 222 -67 q 153 500 153 197 q 222 1067 153 803 l 326 1053 z "},"げ":{"ha":1389,"x_min":135,"x_max":1382,"o":"m 1040 1131 l 1118 1158 q 1213 940 1176 1032 l 1133 918 q 1040 1131 1097 1011 m 1301 939 q 1206 1157 1256 1056 l 1286 1186 q 1382 963 1343 1064 l 1301 939 m 204 1053 l 308 1039 q 240 486 240 781 q 308 -67 240 192 l 204 -81 q 135 486 135 183 q 204 1053 135 789 m 482 792 l 907 792 l 907 1065 l 1010 1065 l 1010 792 l 1282 792 l 1282 699 l 1010 699 l 1010 496 q 978 189 1010 296 q 868 23 946 82 q 632 -78 790 -36 l 600 14 q 732 58 685 38 q 818 109 779 78 q 874 192 857 140 q 899 313 890 243 q 907 496 907 383 l 907 699 l 482 699 l 482 792 z "},"こ":{"ha":1389,"x_min":181,"x_max":1183,"o":"m 306 896 l 306 990 l 1097 990 l 1097 896 l 306 896 m 1183 14 q 958 -28 1097 -11 q 704 -46 818 -46 q 322 34 463 -46 q 181 246 181 114 q 381 575 181 381 l 458 513 q 289 254 289 347 q 399 106 289 161 q 704 51 510 51 q 942 69 810 51 q 1161 111 1075 86 l 1183 14 z "},"ご":{"ha":1389,"x_min":167,"x_max":1300,"o":"m 889 743 l 971 788 q 1100 558 1033 685 l 1017 518 q 889 743 949 646 m 1083 796 l 1168 840 q 1300 608 1244 714 l 1215 567 q 1083 796 1151 685 m 292 924 l 292 1018 l 1083 1018 l 1083 924 l 292 924 m 1169 14 q 944 -28 1083 -11 q 690 -46 804 -46 q 308 34 449 -46 q 167 246 167 114 q 367 575 167 381 l 444 513 q 275 254 275 347 q 385 106 275 161 q 690 51 496 51 q 928 69 796 51 q 1147 111 1061 86 l 1169 14 z "},"さ":{"ha":1389,"x_min":143,"x_max":1249,"o":"m 794 915 q 774 1101 779 1004 l 875 1107 q 896 918 881 1006 q 1244 933 1018 922 l 1249 840 q 913 826 1138 835 q 1086 426 958 617 l 993 371 q 621 486 829 486 q 406 432 483 486 q 329 282 329 378 q 736 38 329 38 q 1064 69 893 38 l 1081 -24 q 736 -56 918 -56 q 491 -27 594 -56 q 331 51 388 1 q 248 159 274 100 q 222 288 222 218 q 326 501 222 422 q 615 579 431 579 q 928 507 776 579 l 929 508 q 813 824 851 649 q 143 813 453 813 l 143 906 q 794 915 488 906 z "},"ざ":{"ha":1389,"x_min":129,"x_max":1375,"o":"m 989 1119 l 1065 1160 q 1182 953 1122 1067 l 1106 914 q 989 1119 1056 1010 m 1176 1143 l 1254 1183 q 1375 972 1328 1063 l 1296 933 q 1176 1143 1235 1049 m 785 874 q 760 1088 768 972 l 861 1093 q 886 876 869 975 q 1231 892 1007 881 l 1235 799 q 906 785 1131 793 q 1072 413 954 588 l 979 357 q 607 472 815 472 q 392 418 469 472 q 315 268 315 364 q 722 24 315 24 q 1050 56 879 24 l 1067 -37 q 722 -69 904 -69 q 477 -41 581 -69 q 317 37 374 -12 q 234 145 260 86 q 208 274 208 204 q 313 487 208 408 q 601 565 417 565 q 914 493 763 565 l 915 494 q 804 782 842 625 q 129 771 440 771 l 129 864 q 785 874 475 864 z "},"し":{"ha":1389,"x_min":288,"x_max":1240,"o":"m 413 1071 q 396 444 396 694 q 412 231 396 314 q 465 104 428 149 q 550 44 501 60 q 676 28 599 28 q 943 138 822 28 q 1144 460 1064 249 l 1240 422 q 1005 53 1150 179 q 676 -74 860 -74 q 372 38 457 -74 q 288 444 288 150 q 303 1075 288 724 l 413 1071 z "},"じ":{"ha":1389,"x_min":254,"x_max":1208,"o":"m 739 989 l 829 1036 q 971 786 900 919 l 881 742 q 739 989 825 846 m 944 1047 l 1035 1096 q 1181 843 1113 969 l 1089 797 q 944 1047 1031 906 m 271 1075 l 379 1071 q 364 444 364 726 q 380 231 364 314 q 432 104 396 149 q 517 44 468 60 q 643 28 565 28 q 910 138 789 28 q 1111 460 1031 249 l 1208 422 q 972 53 1118 179 q 643 -74 826 -74 q 339 38 424 -74 q 254 444 254 150 q 271 1075 254 692 z "},"す":{"ha":1389,"x_min":101,"x_max":1288,"o":"m 101 949 l 806 949 l 806 1129 l 907 1129 l 907 949 l 1288 949 l 1288 861 l 907 861 l 907 550 q 933 379 933 468 q 822 65 933 174 q 464 -79 711 -44 l 449 18 q 736 117 644 43 q 835 321 828 192 l 835 339 l 832 339 q 621 246 768 246 q 428 322 506 246 q 351 510 351 397 q 428 698 351 622 q 621 774 506 774 q 803 711 726 774 l 806 711 l 806 861 l 101 861 l 101 949 m 636 338 q 765 388 714 338 q 817 510 817 438 q 765 631 817 582 q 636 681 714 681 q 508 631 560 681 q 456 510 456 582 q 508 388 456 438 q 636 338 560 338 z "},"ず":{"ha":1389,"x_min":79,"x_max":1354,"o":"m 942 678 l 1025 722 q 1154 494 1093 610 l 1071 453 q 942 678 1011 565 m 1136 731 l 1221 776 q 1354 543 1303 642 l 1268 501 q 1136 731 1204 619 m 79 949 l 750 949 l 750 1129 l 851 1129 l 851 949 l 1264 949 l 1264 861 l 851 861 l 851 550 q 878 379 878 468 q 767 65 878 174 q 408 -79 656 -44 l 393 18 q 681 117 589 43 q 779 321 772 192 l 779 339 l 776 339 q 565 246 713 246 q 373 322 450 246 q 296 510 296 397 q 373 698 296 622 q 565 774 450 774 q 747 711 671 774 l 750 711 l 750 861 l 79 861 l 79 949 m 451 632 q 400 510 400 582 q 451 388 400 438 q 581 338 503 338 q 710 388 658 338 q 761 510 761 438 q 710 631 761 582 q 581 681 658 681 q 451 632 503 681 z "},"せ":{"ha":1389,"x_min":100,"x_max":1289,"o":"m 324 1074 l 426 1074 l 426 810 q 969 824 604 813 l 969 1111 l 1069 1111 l 1069 826 q 1178 831 1107 828 q 1285 836 1250 835 l 1289 743 q 1181 738 1254 742 q 1069 733 1107 735 l 1069 497 q 1044 352 1069 388 q 940 317 1018 317 q 795 337 893 317 q 644 378 697 357 l 671 471 q 806 435 724 453 q 921 417 889 417 q 963 430 957 417 q 969 517 969 443 l 969 731 q 426 718 696 722 l 426 278 q 434 175 426 214 q 460 107 442 136 q 519 64 479 78 q 615 44 560 50 q 760 39 669 39 q 1144 67 965 39 l 1154 -28 q 760 -56 983 -56 q 603 -50 667 -56 q 488 -29 539 -44 q 408 9 438 -14 q 358 71 378 32 q 331 158 338 110 q 324 278 324 207 l 324 717 q 100 715 249 715 l 100 808 q 170 808 125 808 q 253 808 215 808 q 324 808 290 808 l 324 1074 z "},"ぜ":{"ha":1389,"x_min":78,"x_max":1379,"o":"m 288 1060 l 389 1060 l 389 786 q 906 799 650 790 l 906 1097 l 1004 1097 l 1004 801 q 1263 813 1099 804 l 1265 719 q 1004 710 1179 715 l 1004 479 q 978 334 1004 369 q 875 299 953 299 q 730 319 828 299 q 579 360 632 339 l 606 453 q 742 417 658 435 q 857 399 825 399 q 899 411 893 399 q 906 497 906 424 l 906 706 q 389 694 736 700 l 389 264 q 397 161 389 200 q 423 93 404 122 q 482 50 442 64 q 577 31 522 36 q 722 25 632 25 q 1107 53 928 25 l 1117 -42 q 722 -69 946 -69 q 503 -56 583 -69 q 372 -4 422 -43 q 304 96 321 35 q 288 264 288 157 l 288 693 q 182 692 251 693 q 78 692 113 692 l 78 785 q 182 785 113 785 q 288 786 251 786 l 288 1060 m 1032 1136 l 1113 1165 q 1204 947 1160 1063 l 1124 921 q 1032 1136 1096 993 m 1201 1160 l 1285 1188 q 1379 965 1350 1043 l 1296 939 q 1201 1160 1254 1044 z "},"そ":{"ha":1389,"x_min":99,"x_max":1263,"o":"m 319 1042 l 1071 1042 l 1071 951 q 478 607 743 710 l 479 604 l 1257 663 l 1263 569 l 918 544 q 658 399 747 485 q 569 219 569 314 q 921 31 569 31 q 1128 49 1036 31 l 1140 -46 q 921 -65 1035 -65 q 565 10 671 -65 q 458 208 458 86 q 721 529 458 397 l 719 532 l 104 486 l 99 579 q 470 681 278 593 q 900 946 663 769 l 899 949 l 319 949 l 319 1042 z "},"ぞ":{"ha":1389,"x_min":63,"x_max":1375,"o":"m 401 604 l 401 601 l 1219 663 l 1225 569 l 881 544 q 621 399 710 485 q 532 219 532 314 q 885 31 532 31 q 1092 49 1000 31 l 1103 -46 q 885 -65 997 -65 q 661 -43 754 -65 q 517 19 568 -21 q 444 105 467 58 q 421 208 421 151 q 683 529 421 397 l 683 532 l 68 486 l 63 579 q 413 686 211 590 q 828 946 615 782 l 826 949 l 282 949 l 282 1042 l 992 1042 l 999 951 q 401 604 661 711 m 1026 956 l 1108 985 q 1200 767 1156 882 l 1118 740 q 1026 956 1090 813 m 1197 979 l 1281 1007 q 1375 785 1346 863 l 1292 758 q 1197 979 1250 864 z "},"た":{"ha":1389,"x_min":111,"x_max":1251,"o":"m 1222 588 q 671 551 936 588 l 663 643 q 1222 681 942 681 l 1222 588 m 1239 79 l 1251 -14 q 958 -42 1093 -42 q 669 22 779 -42 q 560 188 560 86 q 715 401 560 290 l 781 339 q 689 260 715 292 q 663 197 663 228 q 744 92 663 133 q 958 51 825 51 q 1239 79 1083 51 m 153 847 l 153 940 l 383 940 q 417 1122 403 1038 l 518 1113 q 488 940 497 988 l 990 940 l 990 847 l 468 847 q 213 -71 365 356 l 111 -46 q 364 847 265 375 l 153 847 z "},"だ":{"ha":1389,"x_min":97,"x_max":1338,"o":"m 953 1096 l 1028 1138 q 1146 931 1094 1029 l 1068 892 q 953 1096 1015 994 m 1140 1119 l 1218 1160 q 1338 949 1281 1057 l 1258 910 q 1140 1119 1189 1042 m 649 629 q 1208 667 928 667 l 1208 574 q 657 538 922 574 l 649 629 m 1238 -28 q 944 -56 1079 -56 q 656 8 765 -56 q 546 174 546 72 q 701 388 546 276 l 767 325 q 675 246 701 278 q 649 183 649 214 q 730 78 649 119 q 944 38 811 38 q 1225 65 1069 38 l 1238 -28 m 139 833 l 139 926 l 369 926 q 403 1108 389 1022 l 504 1099 q 474 926 483 974 l 958 926 l 958 833 l 454 833 q 199 -85 351 342 l 97 -60 q 350 833 251 361 l 139 833 z "},"ち":{"ha":1389,"x_min":143,"x_max":1246,"o":"m 143 824 l 143 917 l 469 917 q 504 1108 481 967 l 607 1100 q 571 917 594 1015 l 1246 917 l 1246 824 l 549 824 q 428 499 504 661 l 429 496 q 606 558 507 533 q 782 583 704 583 q 1069 506 971 583 q 1167 282 1167 428 q 1031 36 1167 128 q 667 -56 896 -56 q 332 -24 499 -56 l 349 69 q 667 38 515 38 q 953 106 847 38 q 1060 288 1060 174 q 778 490 1060 490 q 565 456 678 490 q 368 365 451 421 l 279 407 q 446 824 390 625 l 143 824 z "},"ぢ":{"ha":1389,"x_min":129,"x_max":1379,"o":"m 994 1119 l 1069 1160 q 1188 953 1136 1051 l 1110 914 q 994 1119 1051 1026 m 1182 1143 l 1260 1183 q 1379 972 1322 1081 l 1300 933 q 1182 1143 1231 1065 m 129 792 l 129 885 l 451 885 q 490 1094 472 976 l 593 1086 q 553 885 579 993 l 1232 885 l 1232 792 l 529 792 q 414 485 482 631 l 415 482 q 592 544 493 519 q 768 569 690 569 q 1055 492 957 569 q 1153 268 1153 414 q 1017 22 1153 114 q 653 -69 882 -69 q 318 -37 485 -69 l 335 56 q 653 24 501 24 q 940 92 833 24 q 1046 274 1046 160 q 764 476 1046 476 q 551 442 664 476 q 354 351 438 407 l 265 393 q 426 792 375 610 l 129 792 z "},"っ":{"ha":1389,"x_min":235,"x_max":1153,"o":"m 235 669 q 732 754 565 754 q 1153 403 1153 754 q 974 83 1153 192 q 440 -25 796 -25 l 435 71 q 897 151 749 71 q 1046 393 1046 232 q 967 591 1046 526 q 724 656 889 656 q 257 574 576 656 l 235 669 z "},"つ":{"ha":1389,"x_min":122,"x_max":1264,"o":"m 122 844 q 740 951 532 951 q 1264 514 1264 951 q 1041 121 1264 256 q 379 -14 818 -14 l 372 88 q 1150 504 1150 88 q 1048 763 1150 679 q 732 847 946 847 q 146 743 543 847 l 122 844 z "},"づ":{"ha":1389,"x_min":99,"x_max":1361,"o":"m 975 1106 l 1051 1146 q 1168 939 1108 1053 l 1092 900 q 975 1106 1042 996 m 1163 1129 l 1240 1169 q 1361 958 1314 1049 l 1282 919 q 1163 1129 1221 1035 m 99 831 q 718 938 508 938 q 1240 500 1240 938 q 1017 107 1240 242 q 357 -28 794 -28 l 350 74 q 1128 490 1128 74 q 1025 749 1128 665 q 708 833 922 833 q 122 729 519 833 l 99 831 z "},"て":{"ha":1389,"x_min":132,"x_max":1261,"o":"m 132 964 q 1256 992 683 964 l 1261 894 q 724 728 911 863 q 538 399 538 594 q 644 146 538 239 q 931 53 751 53 q 1104 68 1013 53 l 1117 -31 q 926 -46 1031 -46 q 560 72 696 -46 q 424 389 424 189 q 531 678 424 550 q 836 881 639 807 l 836 883 q 132 867 422 867 l 132 964 z "},"で":{"ha":1389,"x_min":104,"x_max":1338,"o":"m 926 664 l 1008 708 q 1138 481 1076 596 l 1054 439 q 926 664 986 567 m 1121 717 l 1204 763 q 1338 529 1286 628 l 1253 488 q 1121 717 1189 606 m 104 867 l 104 964 q 1228 992 656 964 l 1233 894 q 696 725 882 863 q 510 383 510 588 q 617 121 510 217 q 903 25 724 25 q 1076 40 985 25 l 1089 -57 q 899 -74 996 -74 q 532 47 668 -74 q 396 374 396 167 q 503 674 396 543 q 810 881 611 806 l 808 883 q 104 867 392 867 z "},"と":{"ha":1389,"x_min":208,"x_max":1168,"o":"m 357 1072 l 465 1089 q 560 640 504 858 q 1136 824 779 742 l 1157 728 q 528 514 736 632 q 319 264 319 396 q 732 42 319 42 q 1157 74 922 42 l 1168 -24 q 732 -56 932 -56 q 342 25 475 -56 q 208 260 208 106 q 458 589 208 444 q 357 1072 394 843 z "},"ど":{"ha":1389,"x_min":181,"x_max":1250,"o":"m 838 1063 l 921 1107 q 1050 878 983 1004 l 967 838 q 838 1063 907 950 m 1032 1115 l 1117 1160 q 1250 928 1204 1015 l 1164 886 q 1032 1115 1100 1004 m 1129 672 q 488 465 685 571 q 292 232 292 358 q 704 28 292 28 q 1129 60 894 28 l 1140 -37 q 704 -69 904 -69 q 181 232 181 -69 q 438 549 181 414 q 329 1058 378 776 l 438 1075 q 539 597 476 843 q 1108 768 758 689 l 1129 672 z "},"な":{"ha":1389,"x_min":72,"x_max":1306,"o":"m 1293 801 q 1007 826 1156 825 l 1007 315 q 1304 110 1140 244 l 1240 35 q 1007 206 1100 147 q 931 1 1001 63 q 706 -60 861 -60 q 488 3 565 -60 q 410 176 410 67 q 487 343 410 283 q 706 403 564 403 q 906 361 797 403 l 906 921 q 1306 893 1132 921 l 1293 801 m 101 829 l 101 921 l 358 921 q 419 1132 396 1044 l 515 1118 q 461 921 492 1022 l 722 921 l 722 829 l 433 829 q 165 124 331 503 l 72 157 q 329 829 224 504 l 101 829 m 906 263 q 706 313 800 313 q 511 176 511 313 q 562 67 511 107 q 706 28 613 28 q 863 70 819 28 q 906 229 906 113 l 906 263 z "},"に":{"ha":1389,"x_min":167,"x_max":1240,"o":"m 615 847 l 615 942 l 1206 942 l 1206 847 l 615 847 m 340 1053 q 274 500 274 800 q 340 -53 274 200 l 236 -67 q 167 500 167 197 q 236 1067 167 803 l 340 1053 m 1225 133 l 1240 40 q 921 -3 1072 -3 q 620 67 731 -3 q 510 254 510 138 q 558 392 510 314 q 688 536 606 469 l 763 472 q 655 356 694 417 q 615 254 615 296 q 694 135 615 176 q 921 94 774 94 q 1225 133 1065 94 z "},"ぬ":{"ha":1389,"x_min":107,"x_max":1336,"o":"m 260 1049 l 351 1069 q 408 831 390 900 q 722 903 550 903 q 839 893 774 903 q 908 1121 878 1008 l 1004 1101 q 935 871 975 994 q 1179 699 1090 819 q 1268 417 1268 579 q 1239 196 1268 289 q 1336 79 1282 151 l 1265 25 q 1201 104 1246 51 q 958 -56 1114 -56 q 799 0 863 -56 q 736 143 736 56 q 798 284 736 231 q 963 338 860 338 q 1157 271 1068 338 q 1167 417 1167 329 q 1096 640 1167 544 q 903 776 1025 735 q 613 194 765 392 q 338 -4 461 -4 q 174 88 242 -4 q 107 343 107 181 q 164 589 107 476 q 325 779 221 701 q 260 1049 286 924 m 567 299 q 807 800 694 490 q 722 806 772 806 q 433 735 558 806 q 567 299 490 525 m 500 208 q 353 676 419 439 q 204 343 204 546 q 244 164 204 231 q 338 97 285 97 q 500 208 407 97 m 1133 175 q 958 250 1051 250 q 864 220 899 250 q 829 143 829 190 q 865 63 829 94 q 958 32 900 32 q 1133 175 1081 32 z "},"ね":{"ha":1389,"x_min":78,"x_max":1326,"o":"m 101 865 l 385 865 l 385 1093 l 482 1093 l 482 714 q 721 897 619 846 q 921 949 822 949 q 1264 458 1264 949 q 1232 222 1264 325 q 1326 103 1276 171 l 1258 43 q 1192 126 1222 89 q 921 -37 1099 -37 q 741 24 811 -37 q 671 185 671 86 q 739 343 671 283 q 921 403 807 403 q 1149 308 1043 403 q 1160 458 1160 379 q 1100 756 1160 663 q 917 850 1040 850 q 732 790 832 850 q 482 574 632 729 l 482 -79 l 385 -79 l 385 468 q 151 189 264 331 l 78 253 q 385 614 256 476 l 385 778 l 101 778 l 101 865 m 1122 204 q 1019 289 1061 268 q 921 310 976 310 q 810 275 851 310 q 768 185 768 240 q 810 92 768 128 q 921 56 853 56 q 1122 204 1065 56 z "},"の":{"ha":1389,"x_min":107,"x_max":1282,"o":"m 828 65 q 1088 197 994 83 q 1181 500 1181 311 q 1064 792 1181 676 q 765 913 947 907 q 692 457 736 643 q 596 176 649 271 q 490 42 543 81 q 375 4 438 4 q 191 125 275 4 q 107 421 107 246 q 285 846 107 682 q 750 1010 464 1010 q 1131 866 981 1010 q 1282 500 1282 722 q 1165 127 1282 269 q 849 -32 1049 -15 l 828 65 m 660 907 q 331 750 454 882 q 208 421 208 618 q 264 199 208 290 q 375 107 319 107 q 427 126 400 107 q 488 199 454 144 q 550 338 521 253 q 609 569 579 422 q 660 907 639 717 z "},"は":{"ha":1389,"x_min":135,"x_max":1290,"o":"m 1289 764 l 1043 764 l 1043 310 q 1290 94 1144 240 l 1219 25 q 1043 189 1119 126 q 769 -65 1033 -65 q 548 -1 626 -65 q 469 181 469 64 q 547 348 469 289 q 769 407 625 407 q 942 369 857 407 l 942 764 l 506 764 l 506 857 l 942 857 l 942 1088 l 1043 1088 l 1043 857 l 1289 857 l 1289 764 m 304 1053 q 236 500 236 794 q 304 -53 236 206 l 204 -67 q 135 500 135 197 q 204 1067 135 803 l 304 1053 m 942 261 q 765 313 853 313 q 571 181 571 313 q 765 28 571 28 q 900 72 858 28 q 942 213 942 115 l 942 261 z "},"ば":{"ha":1389,"x_min":111,"x_max":1379,"o":"m 1032 1132 l 1113 1160 q 1204 943 1164 1049 l 1124 917 q 1032 1132 1096 989 m 1201 1156 l 1285 1183 q 1379 961 1350 1039 l 1296 935 q 1201 1156 1254 1040 m 460 833 l 885 833 l 885 1074 l 988 1074 l 988 833 l 1265 833 l 1265 740 l 988 740 l 988 303 q 1243 81 1089 235 l 1172 11 q 986 182 1079 107 q 724 -79 981 -79 q 501 -15 581 -79 q 422 167 422 50 q 501 334 422 275 q 724 393 579 393 q 885 360 807 393 l 885 740 l 460 740 l 460 833 m 281 1039 q 213 486 213 781 q 281 -67 213 192 l 181 -81 q 111 486 111 183 q 181 1053 111 789 l 281 1039 m 885 253 q 718 299 801 299 q 524 167 524 299 q 718 14 524 14 q 844 58 804 14 q 885 199 885 101 l 885 253 z "},"ぱ":{"ha":1389,"x_min":93,"x_max":1382,"o":"m 1021 1007 q 1074 1135 1021 1082 q 1201 1188 1126 1188 q 1329 1135 1276 1188 q 1382 1007 1382 1082 q 1340 890 1382 940 q 1233 829 1297 840 l 1233 746 l 969 746 l 969 296 q 1217 81 1071 226 l 1147 11 q 969 175 1053 107 q 697 -79 960 -79 q 475 -15 554 -79 q 396 167 396 50 q 474 334 396 275 q 697 393 553 393 q 868 356 783 393 l 868 746 l 447 746 l 447 838 l 868 838 l 868 1074 l 969 1074 l 969 838 l 1138 838 q 1053 904 1086 858 q 1021 1007 1021 950 m 163 1053 l 263 1039 q 194 486 194 781 q 263 -67 194 192 l 163 -81 q 93 486 93 183 q 163 1053 93 789 m 1274 936 q 1303 1007 1303 965 q 1273 1078 1303 1049 q 1201 1108 1243 1108 q 1130 1078 1160 1108 q 1100 1007 1100 1049 q 1130 935 1100 965 q 1201 906 1160 906 q 1274 936 1243 906 m 868 247 q 692 299 779 299 q 497 167 497 299 q 692 14 497 14 q 826 58 785 14 q 868 199 868 101 l 868 247 z "},"ひ":{"ha":1389,"x_min":135,"x_max":1343,"o":"m 135 996 l 639 996 l 639 900 q 397 661 490 813 q 303 357 303 510 q 389 112 303 196 q 635 28 475 28 q 897 132 801 28 q 993 421 993 236 q 857 972 993 689 l 933 1033 q 1123 828 1010 938 q 1343 638 1236 719 l 1286 560 q 1026 793 1157 657 l 1025 792 q 1097 399 1097 579 q 972 60 1097 185 q 635 -65 847 -65 q 312 43 426 -65 q 197 351 197 151 q 276 645 197 499 q 492 900 354 792 l 490 903 l 135 903 l 135 996 z "},"び":{"ha":1389,"x_min":121,"x_max":1361,"o":"m 949 1081 l 1032 1125 q 1161 897 1100 1013 l 1078 856 q 949 1081 1018 968 m 1143 1133 l 1228 1179 q 1361 946 1310 1044 l 1275 904 q 1143 1133 1211 1022 m 121 988 l 625 988 l 625 892 q 383 653 476 804 q 289 349 289 501 q 375 103 289 188 q 621 19 461 19 q 884 117 788 19 q 981 386 981 215 q 843 879 981 606 l 919 939 q 1109 734 996 843 q 1329 543 1222 625 l 1272 467 q 1007 708 1136 568 l 1004 707 q 1085 358 1085 514 q 959 45 1085 163 q 621 -72 833 -72 q 298 36 413 -72 q 183 344 183 144 q 262 638 183 492 q 478 893 340 785 l 476 894 l 121 894 l 121 988 z "},"ぴ":{"ha":1389,"x_min":111,"x_max":1361,"o":"m 1053 868 q 1000 996 1000 921 q 1053 1124 1000 1071 q 1181 1176 1106 1176 q 1308 1124 1256 1176 q 1361 996 1361 1071 q 1308 868 1361 921 q 1181 815 1256 815 q 1053 868 1106 815 m 111 988 l 615 988 l 615 892 q 374 653 467 804 q 281 349 281 501 q 366 103 281 188 q 611 19 451 19 q 874 117 778 19 q 971 386 971 215 q 835 879 971 608 l 910 939 q 1099 734 986 843 q 1321 543 1213 625 l 1263 467 q 997 708 1126 568 l 996 707 q 1075 358 1075 517 q 949 45 1075 163 q 611 -72 824 -72 q 288 36 403 -72 q 174 344 174 144 q 252 638 174 492 q 468 893 331 785 l 467 894 l 111 894 l 111 988 m 1253 924 q 1282 996 1282 954 q 1252 1067 1282 1038 q 1181 1097 1222 1097 q 1109 1067 1139 1097 q 1079 996 1079 1038 q 1109 924 1079 954 q 1181 893 1139 893 q 1253 924 1222 893 z "},"ふ":{"ha":1389,"x_min":53,"x_max":1338,"o":"m 329 1032 l 1042 1032 l 1042 940 q 767 869 872 935 q 663 722 663 803 q 693 619 663 672 q 800 485 724 565 q 924 327 890 390 q 958 194 958 264 q 869 3 958 76 q 635 -69 779 -69 q 393 -8 504 -69 l 431 82 q 629 28 551 28 q 784 74 724 28 q 844 194 844 121 q 816 300 844 247 q 703 439 788 353 q 585 585 619 524 q 551 713 551 647 q 724 938 551 844 l 722 940 l 329 940 l 329 1032 m 1029 567 l 1118 610 q 1338 131 1258 383 l 1243 101 q 1029 567 1168 350 m 338 574 q 142 94 271 329 l 53 135 q 242 597 175 356 l 338 574 z "},"ぶ":{"ha":1389,"x_min":39,"x_max":1379,"o":"m 306 1018 l 968 1018 l 968 921 q 730 845 821 908 q 639 708 639 782 q 670 605 639 658 q 778 471 701 551 q 901 314 867 378 q 935 181 935 250 q 845 -10 935 63 q 611 -83 756 -83 q 371 -22 482 -83 l 407 68 q 607 14 528 14 q 762 60 701 14 q 822 181 822 107 q 794 286 822 233 q 681 425 765 339 q 563 573 597 511 q 528 699 528 635 q 700 924 528 831 l 700 926 l 306 926 l 306 1018 m 982 1115 l 1069 1149 q 1176 911 1125 1033 l 1089 881 q 982 1115 1042 994 m 1179 1149 l 1268 1183 q 1379 940 1338 1040 l 1290 910 q 1179 1149 1254 994 m 1015 553 l 1104 596 q 1324 117 1244 369 l 1229 88 q 1015 553 1154 336 m 324 560 q 128 81 257 315 l 39 121 q 228 583 161 342 l 324 560 z "},"ぷ":{"ha":1389,"x_min":53,"x_max":1338,"o":"m 1029 553 l 1118 596 q 1338 117 1258 369 l 1243 88 q 1029 553 1168 336 m 242 583 l 338 560 q 142 81 271 315 l 53 121 q 242 583 175 342 m 1158 894 q 1188 965 1188 924 q 1158 1037 1188 1007 q 1086 1067 1128 1067 q 1014 1037 1044 1067 q 983 965 983 1007 q 1014 894 983 924 q 1086 864 1044 864 q 1158 894 1128 864 m 1086 785 q 978 820 1026 785 q 913 911 929 856 q 723 830 793 888 q 653 708 653 772 q 684 605 653 658 q 792 471 715 551 q 915 314 881 378 q 949 181 949 250 q 859 -10 949 63 q 625 -83 769 -83 q 385 -22 496 -83 l 421 68 q 621 14 542 14 q 776 60 715 14 q 836 181 836 107 q 808 286 836 233 q 694 425 779 339 q 576 573 611 511 q 542 699 542 635 q 714 924 542 831 l 714 926 l 319 926 l 319 1018 l 913 1018 q 978 1110 929 1074 q 1086 1146 1026 1146 q 1214 1093 1161 1146 q 1267 965 1267 1040 q 1214 838 1267 890 q 1086 785 1161 785 z "},"へ":{"ha":1389,"x_min":53,"x_max":1335,"o":"m 132 249 l 53 321 q 307 621 210 500 q 462 794 419 760 q 569 829 504 829 q 674 799 631 829 q 863 631 718 768 q 1335 197 1110 394 l 1263 114 q 758 578 1022 326 q 628 696 658 674 q 567 718 599 718 q 507 693 535 718 q 397 567 479 668 q 132 249 242 374 z "},"べ":{"ha":1389,"x_min":53,"x_max":1335,"o":"m 804 961 l 893 1008 q 1036 758 974 876 l 944 714 q 804 961 881 835 m 1008 1019 l 1100 1068 q 1244 815 1168 958 l 1153 769 q 1008 1019 1094 878 m 53 307 q 307 607 210 486 q 462 781 419 746 q 569 815 504 815 q 674 785 631 815 q 863 617 718 754 q 1335 183 1110 381 l 1263 100 q 758 564 1022 313 q 628 682 658 660 q 567 704 599 704 q 507 679 535 704 q 397 553 479 654 q 132 235 242 360 l 53 307 z "},"ぺ":{"ha":1389,"x_min":53,"x_max":1335,"o":"m 1146 964 q 1069 996 1114 996 q 993 963 1025 996 q 961 886 961 931 q 993 810 961 842 q 1069 778 1025 778 q 1146 810 1114 778 q 1178 886 1178 842 q 1146 964 1178 931 m 132 235 l 53 307 q 307 607 210 486 q 462 781 419 746 q 569 815 504 815 q 674 785 631 815 q 863 617 718 754 q 1335 183 1110 381 l 1263 100 q 758 564 1022 313 q 628 682 658 660 q 567 704 599 704 q 507 679 535 704 q 397 553 479 654 q 132 235 242 360 m 1206 1022 q 1261 886 1261 965 q 1205 751 1261 807 q 1069 694 1149 694 q 934 751 990 694 q 878 886 878 807 q 934 1022 878 965 q 1069 1079 990 1079 q 1206 1022 1149 1079 z "},"ほ":{"ha":1389,"x_min":135,"x_max":1290,"o":"m 1283 933 l 1033 933 l 1033 711 l 1283 711 l 1283 621 l 1033 621 l 1033 292 q 1290 74 1142 222 l 1219 6 q 1033 175 1106 119 q 769 -67 1019 -67 q 553 -7 629 -67 q 478 164 478 53 q 544 315 478 254 q 769 375 610 375 q 932 344 857 375 l 932 621 l 515 621 l 515 711 l 932 711 l 932 933 l 515 933 l 515 1025 l 1283 1025 l 1283 933 m 304 1053 q 236 500 236 794 q 304 -53 236 206 l 204 -67 q 135 500 135 197 q 204 1067 135 803 l 304 1053 m 932 240 q 765 282 850 282 q 581 164 581 282 q 761 25 581 25 q 891 69 850 25 q 932 211 932 114 l 932 240 z "},"ぼ":{"ha":1389,"x_min":121,"x_max":1379,"o":"m 1032 1104 l 1113 1132 q 1204 915 1164 1021 l 1124 889 q 1117 904 1121 893 q 1111 919 1113 915 l 1006 919 l 1006 697 l 1269 697 l 1269 607 l 1006 607 l 1006 278 q 1261 60 1110 211 l 1192 -8 q 1004 161 1082 101 q 742 -81 990 -81 q 526 -21 601 -81 q 450 150 450 39 q 516 301 450 240 q 742 361 582 361 q 904 331 829 361 l 904 607 l 488 607 l 488 697 l 904 697 l 904 919 l 488 919 l 488 1011 l 1072 1011 q 1056 1051 1071 1015 q 1032 1104 1040 1088 m 1201 1128 l 1285 1156 q 1379 933 1350 1011 l 1296 907 q 1201 1128 1254 1013 m 290 1039 q 222 486 222 781 q 290 -67 222 192 l 190 -81 q 121 486 121 183 q 190 1053 121 789 l 290 1039 m 904 226 q 738 268 822 268 q 551 150 551 268 q 732 11 551 11 q 863 56 822 11 q 904 197 904 100 l 904 226 z "},"ぽ":{"ha":1389,"x_min":121,"x_max":1375,"o":"m 290 1039 q 222 486 222 781 q 290 -67 222 192 l 190 -81 q 121 486 121 183 q 190 1053 121 789 l 290 1039 m 1267 929 q 1296 1000 1296 958 q 1266 1072 1296 1042 q 1194 1101 1236 1101 q 1123 1072 1153 1101 q 1093 1000 1093 1042 q 1123 928 1093 958 q 1194 899 1153 899 q 1267 929 1236 899 m 1194 819 q 1099 847 1143 819 q 1033 919 1056 875 l 996 919 l 996 697 l 1260 697 l 1260 607 l 996 607 l 996 278 q 1253 60 1104 208 l 1182 -8 q 996 161 1068 106 q 732 -81 982 -81 q 516 -21 592 -81 q 440 150 440 39 q 506 301 440 240 q 732 361 572 361 q 894 331 819 361 l 894 607 l 478 607 l 478 697 l 894 697 l 894 919 l 478 919 l 478 1011 l 1014 1011 q 1070 1131 1018 1082 q 1194 1181 1122 1181 q 1322 1128 1269 1181 q 1375 1000 1375 1075 q 1322 872 1375 925 q 1194 819 1269 819 m 894 226 q 728 268 813 268 q 543 150 543 268 q 724 11 543 11 q 853 56 813 11 q 894 197 894 100 l 894 226 z "},"ま":{"ha":1389,"x_min":167,"x_max":1222,"o":"m 843 1111 l 843 954 l 1222 954 l 1222 861 l 843 861 l 843 676 l 1176 676 l 1176 583 l 843 583 l 843 301 q 1192 49 992 221 l 1126 -25 q 842 193 967 115 q 763 -8 833 53 q 542 -69 693 -69 q 326 -5 406 -69 q 246 171 246 60 q 314 328 246 264 q 542 392 382 392 q 740 349 633 392 l 740 583 l 213 583 l 213 676 l 740 676 l 740 861 l 167 861 l 167 954 l 740 954 l 740 1111 l 843 1111 m 740 249 q 551 299 636 299 q 351 171 351 299 q 402 63 351 103 q 542 24 453 24 q 697 69 654 24 q 740 236 740 115 l 740 249 z "},"み":{"ha":1389,"x_min":97,"x_max":1325,"o":"m 386 -32 q 192 74 286 -32 q 97 306 97 181 q 227 512 97 424 q 576 610 357 600 q 615 935 601 796 l 197 935 l 197 1028 l 719 1028 l 719 935 q 682 610 701 758 q 990 557 836 604 q 996 917 996 686 l 1097 917 q 1090 524 1097 657 q 1325 406 1210 479 l 1278 321 q 1083 421 1186 378 q 1053 219 1074 299 q 994 83 1033 139 q 908 -6 954 28 q 782 -82 863 -40 l 729 4 q 819 55 786 33 q 885 110 853 76 q 935 188 918 143 q 965 299 953 233 q 985 457 978 364 q 668 515 821 510 q 612 233 642 343 q 547 66 582 124 q 474 -12 511 8 q 386 -32 438 -32 m 563 514 q 300 444 396 504 q 204 306 204 383 q 267 147 204 225 q 386 69 329 69 q 447 105 419 69 q 504 242 474 140 q 563 514 535 343 z "},"む":{"ha":1389,"x_min":101,"x_max":1321,"o":"m 125 944 l 431 944 l 431 1115 l 532 1115 l 532 944 l 792 944 l 792 851 l 532 851 l 532 476 q 483 194 532 340 q 463 108 463 135 q 477 61 463 76 q 559 35 492 46 q 764 25 626 25 q 958 39 893 25 q 1042 78 1022 53 q 1063 156 1063 104 q 1003 476 1063 253 l 1101 499 q 1167 136 1167 269 q 1085 -27 1167 15 q 764 -69 1003 -69 q 506 -57 593 -69 q 385 -17 418 -44 q 351 65 351 11 q 376 160 351 92 q 406 251 392 204 l 403 253 q 306 226 354 226 q 158 292 215 226 q 101 490 101 357 q 158 688 101 622 q 306 754 214 754 q 428 704 376 754 l 431 706 l 431 851 l 125 851 l 125 944 m 944 890 l 996 971 q 1321 747 1154 875 l 1267 669 q 944 890 1107 793 m 194 490 q 324 315 194 315 q 408 356 382 315 q 435 490 435 397 q 405 620 435 574 q 324 667 375 667 q 194 490 194 667 z "},"め":{"ha":1389,"x_min":107,"x_max":1282,"o":"m 288 1049 l 385 1069 q 438 844 419 911 q 722 903 567 903 q 863 890 796 903 q 931 1124 890 976 l 1028 1101 q 958 865 997 985 q 1196 697 1110 813 q 1282 426 1282 582 q 1164 93 1282 222 q 843 -60 1046 -36 l 821 35 q 1084 157 988 53 q 1181 426 1181 261 q 1113 637 1181 547 q 926 768 1046 726 q 631 188 789 379 q 338 -4 474 -4 q 174 87 242 -4 q 107 338 107 178 q 171 601 107 482 q 349 796 235 719 q 288 1049 326 879 m 829 793 q 722 801 779 801 q 464 746 583 801 q 600 310 525 525 q 829 793 726 501 m 376 693 q 204 338 204 563 q 247 159 204 224 q 347 94 290 94 q 531 217 426 94 q 376 693 440 468 z "},"も":{"ha":1389,"x_min":139,"x_max":1250,"o":"m 171 824 l 171 917 l 482 917 q 488 1001 483 936 q 496 1103 493 1065 l 601 1099 q 589 917 596 1019 l 1135 917 l 1135 824 l 583 824 q 575 681 581 771 q 569 586 569 592 l 1051 586 l 1051 493 l 565 493 q 560 292 560 329 q 609 78 560 128 q 824 28 658 28 q 1149 253 1149 28 q 1132 363 1149 294 l 1231 386 q 1250 246 1250 308 q 1142 11 1250 92 q 824 -69 1035 -69 q 531 5 607 -69 q 454 292 454 79 q 458 493 454 372 l 139 493 l 139 586 l 463 586 q 468 681 463 592 q 476 824 474 771 l 171 824 z "},"ゃ":{"ha":1389,"x_min":192,"x_max":1185,"o":"m 675 844 l 771 871 q 821 690 788 813 q 946 706 885 706 q 1119 641 1054 706 q 1185 467 1185 576 q 1115 283 1185 350 q 925 217 1044 217 q 775 235 847 217 l 785 325 q 917 310 851 310 q 1039 351 994 310 q 1083 463 1083 392 q 1044 574 1083 535 q 932 614 1004 614 q 844 601 900 614 q 882 450 867 518 l 790 425 q 751 575 758 551 q 554 507 613 529 q 714 -60 640 219 l 615 -85 q 460 471 542 199 q 226 381 404 450 l 192 468 q 432 561 317 518 q 360 790 396 678 l 456 821 q 478 750 467 788 q 504 667 490 713 q 526 596 518 621 q 726 664 613 628 q 675 844 722 679 z "},"や":{"ha":1389,"x_min":71,"x_max":1301,"o":"m 683 1072 l 785 1100 q 805 1028 794 1067 q 828 941 815 989 q 847 867 840 893 q 1010 889 940 889 q 1222 810 1143 889 q 1301 597 1301 731 q 1216 376 1301 457 q 986 294 1131 294 q 796 318 897 294 l 808 413 q 976 392 893 392 q 1135 446 1076 392 q 1194 593 1194 500 q 1142 740 1194 688 q 996 792 1090 792 q 872 774 943 792 q 921 578 879 746 l 825 551 q 774 746 814 600 q 508 654 660 710 q 710 -62 603 346 l 607 -87 q 408 617 510 281 q 249 556 358 599 q 107 500 139 513 l 71 592 q 381 711 319 689 q 288 1004 326 883 l 389 1035 q 479 747 450 843 q 749 840 653 811 q 683 1072 717 961 z "},"ゅ":{"ha":1389,"x_min":242,"x_max":1171,"o":"m 242 765 l 335 765 l 335 457 l 336 457 q 498 658 396 583 q 733 747 600 733 l 733 882 l 833 882 l 833 750 q 1084 662 997 742 q 1171 438 1171 582 q 1078 212 1171 292 q 811 126 985 132 q 729 -6 786 44 q 571 -92 672 -57 l 526 -10 q 707 133 668 42 q 453 289 547 164 l 511 357 q 729 222 593 246 q 733 318 733 264 l 733 654 q 444 483 556 631 q 332 111 332 335 l 242 111 l 242 765 m 833 657 l 833 318 q 829 218 833 264 q 1071 438 1071 235 q 833 657 1071 640 z "},"ゆ":{"ha":1389,"x_min":135,"x_max":1285,"o":"m 232 968 l 232 551 l 235 551 q 443 827 311 728 q 754 942 575 926 l 754 1115 l 861 1115 l 861 943 q 1176 835 1067 933 q 1285 560 1285 738 q 1168 281 1285 379 q 835 176 1051 182 q 735 10 806 74 q 536 -97 664 -54 l 488 -10 q 642 69 586 25 q 724 183 697 114 q 537 251 622 199 q 393 385 451 303 l 454 456 q 747 278 561 304 q 754 413 754 326 l 754 844 q 375 630 521 819 q 229 153 229 440 l 135 153 l 135 968 l 232 968 m 854 275 q 1096 356 1014 283 q 1178 560 1178 428 q 1097 765 1178 692 q 861 846 1017 838 l 861 413 q 854 275 861 328 z "},"ょ":{"ha":1389,"x_min":264,"x_max":1128,"o":"m 1115 676 l 1115 590 l 758 590 l 758 297 q 1128 63 907 236 l 1067 -12 q 758 197 883 135 l 758 178 q 703 -9 758 51 q 532 -69 647 -69 q 328 -10 393 -69 q 264 143 264 50 q 329 290 264 233 q 532 346 394 346 q 657 331 589 346 l 657 871 l 758 871 l 758 676 l 1115 676 m 657 238 q 532 257 588 257 q 364 143 364 257 q 532 18 364 18 q 628 55 599 18 q 657 178 657 92 l 657 238 z "},"よ":{"ha":1389,"x_min":163,"x_max":1232,"o":"m 1218 760 l 764 760 l 764 372 q 1232 83 954 296 l 1168 3 q 764 268 925 193 l 764 236 q 697 6 764 81 q 490 -69 629 -69 q 240 3 317 -69 q 163 190 163 76 q 246 369 163 307 q 490 431 329 431 q 657 408 572 431 l 657 1101 l 764 1101 l 764 851 l 1218 851 l 1218 760 m 657 310 q 490 336 569 336 q 268 190 268 336 q 490 24 268 24 q 618 73 579 24 q 657 236 657 122 l 657 310 z "},"ら":{"ha":1389,"x_min":219,"x_max":1201,"o":"m 393 797 q 343 467 365 593 l 346 465 q 568 583 438 538 q 813 629 699 629 q 1201 319 1201 629 q 1050 40 1201 136 q 600 -56 899 -56 q 314 -39 464 -56 l 319 56 q 600 38 492 38 q 1083 319 1083 38 q 799 538 1083 538 q 555 483 692 538 q 314 343 418 428 l 219 368 q 289 807 256 568 l 393 797 m 394 1042 q 1017 1000 715 1000 l 1017 907 q 383 949 703 907 l 394 1042 z "},"り":{"ha":1389,"x_min":275,"x_max":1167,"o":"m 275 1051 l 379 1051 l 379 674 l 382 674 q 572 931 451 838 q 829 1024 692 1024 q 1078 908 989 1024 q 1167 579 1167 793 q 982 95 1167 250 q 403 -60 797 -60 l 399 38 q 901 165 747 38 q 1056 579 1056 293 q 995 835 1056 749 q 819 921 935 921 q 529 754 665 921 q 378 351 393 588 l 275 351 l 275 1051 z "},"る":{"ha":1389,"x_min":150,"x_max":1218,"o":"m 867 49 q 1104 329 1104 104 q 1025 501 1104 444 q 778 558 946 558 q 190 386 496 558 l 150 461 l 900 935 l 900 938 l 250 938 l 250 1028 l 1088 1028 l 1093 936 l 549 607 l 550 606 q 810 643 689 643 q 1218 340 1218 643 q 1081 44 1218 147 q 688 -60 944 -60 q 294 163 294 -60 q 374 300 294 243 q 600 357 453 357 q 892 157 892 357 q 867 49 892 108 m 761 33 q 796 149 796 99 q 594 268 796 268 q 451 237 501 268 q 400 163 400 206 q 472 66 400 101 q 688 31 543 31 q 761 33 714 31 z "},"れ":{"ha":1389,"x_min":68,"x_max":1364,"o":"m 88 865 l 413 865 l 413 1101 l 514 1101 l 514 664 q 774 872 674 810 q 940 935 874 935 q 1056 875 1021 935 q 1090 667 1090 815 q 1074 464 1090 600 q 1058 264 1058 353 q 1069 152 1058 192 q 1092 103 1079 113 q 1125 93 1106 93 q 1308 219 1190 93 l 1364 147 q 1227 31 1300 75 q 1100 -14 1154 -14 q 986 47 1021 -14 q 951 254 951 108 q 968 457 951 336 q 983 657 983 582 q 973 769 983 729 q 950 819 963 808 q 917 829 938 829 q 514 531 836 829 l 514 -87 l 413 -87 l 413 433 q 136 160 279 306 l 68 229 q 413 569 267 432 l 413 774 l 88 774 l 88 865 z "},"ろ":{"ha":1389,"x_min":146,"x_max":1213,"o":"m 1075 922 l 531 588 l 532 585 q 801 629 675 629 q 1213 336 1213 629 q 656 -44 1213 -44 q 382 -28 535 -44 l 383 69 q 649 53 518 53 q 1097 326 1097 53 q 1018 488 1097 435 q 768 542 939 542 q 489 494 643 542 q 186 363 335 447 l 146 439 l 886 924 l 886 926 l 264 926 l 264 1017 l 1069 1017 l 1075 922 z "},"ゎ":{"ha":1389,"x_min":203,"x_max":1160,"o":"m 225 688 l 457 688 l 457 865 l 549 865 l 549 574 q 728 705 650 668 q 881 742 806 742 q 1087 651 1014 742 q 1160 349 1160 561 q 1076 74 1160 172 q 850 -25 992 -25 q 675 15 758 -25 l 707 101 q 850 68 781 68 q 1005 141 949 68 q 1061 349 1061 214 q 1017 577 1061 507 q 876 647 974 647 q 549 444 747 647 l 549 -76 l 457 -76 l 457 346 q 272 126 371 249 l 203 188 q 457 483 351 372 l 457 606 l 225 606 l 225 688 z "},"わ":{"ha":1389,"x_min":88,"x_max":1274,"o":"m 111 865 l 407 865 l 407 1093 l 504 1093 l 504 713 q 736 886 638 838 q 931 935 835 935 q 1188 815 1103 935 q 1274 449 1274 696 q 1169 109 1274 232 q 889 -14 1065 -14 q 675 36 778 -14 l 707 126 q 889 86 800 86 q 1094 181 1018 86 q 1169 449 1169 276 q 1110 744 1169 651 q 926 836 1051 836 q 745 779 843 836 q 504 575 647 722 l 504 -79 l 407 -79 l 407 471 q 160 175 306 357 l 88 239 q 407 615 267 467 l 407 778 l 111 778 l 111 865 z "},"ゐ":{"ha":1389,"x_min":111,"x_max":1278,"o":"m 264 969 l 264 1056 l 822 1056 l 822 969 q 779 810 785 831 q 1140 674 1001 800 q 1278 357 1278 549 q 1188 45 1278 156 q 972 -65 1099 -65 q 804 -8 869 -65 q 739 142 739 50 q 803 288 739 231 q 968 344 867 344 q 1174 261 1078 344 q 1181 357 1181 310 q 1063 616 1181 515 q 754 718 944 717 q 597 249 668 414 q 472 33 526 85 q 347 -18 418 -18 q 181 65 251 -18 q 111 282 111 147 q 268 641 111 494 q 675 807 425 788 q 715 969 682 832 l 264 969 m 1149 163 q 972 250 1065 250 q 874 221 911 250 q 838 143 838 192 q 874 61 838 92 q 972 31 911 31 q 1149 163 1094 31 m 649 711 q 330 567 451 686 q 208 282 208 449 q 250 136 208 193 q 343 79 292 79 q 649 711 474 79 z "},"ゑ":{"ha":1389,"x_min":90,"x_max":1299,"o":"m 282 1046 l 1133 1046 l 1133 968 l 639 801 l 640 799 q 851 819 761 819 q 1124 765 1031 819 q 1218 615 1218 710 q 1069 413 1218 486 q 639 340 921 340 l 590 340 q 400 192 508 290 l 401 189 q 532 231 485 231 q 603 206 575 231 q 658 128 632 181 q 704 54 685 74 q 754 35 724 35 q 837 63 799 35 q 925 160 875 90 l 989 97 q 881 -18 943 24 q 760 -60 819 -60 q 656 -31 696 -60 q 586 56 617 -3 q 542 122 561 104 q 490 139 524 139 q 335 88 422 139 q 171 -57 249 36 l 90 1 q 454 353 279 226 q 240 503 240 386 q 316 603 240 560 q 518 646 392 646 q 771 507 771 646 q 739 435 771 465 q 1111 611 1111 453 q 1086 677 1111 651 q 982 719 1061 703 q 764 736 903 736 q 183 642 504 736 l 154 722 l 858 956 l 858 958 l 282 958 l 282 1046 m 958 251 l 1038 304 q 1299 -14 1190 157 l 1213 -56 q 958 251 1114 99 m 581 433 l 582 435 q 647 476 631 461 q 663 510 663 492 q 518 560 663 560 q 395 542 439 560 q 351 503 351 525 q 581 433 351 440 z "},"を":{"ha":1389,"x_min":126,"x_max":1175,"o":"m 1158 -28 q 810 -56 993 -56 q 442 3 556 -56 q 329 190 329 63 q 747 529 329 411 q 695 618 728 593 q 611 643 663 643 q 423 563 528 643 q 211 331 318 482 l 126 385 q 406 865 297 622 l 135 865 l 135 954 l 443 954 q 506 1124 475 1032 l 606 1100 q 550 954 578 1026 l 1153 954 l 1153 865 l 513 865 q 411 650 467 761 l 413 649 q 629 732 533 732 q 847 554 793 732 q 1165 608 988 586 l 1175 518 q 867 465 986 493 q 885 194 885 361 l 778 194 q 765 439 778 344 q 435 199 435 343 q 449 135 435 161 q 500 84 463 108 q 615 47 538 60 q 810 35 693 35 q 1149 65 964 35 l 1158 -28 z "},"ん":{"ha":1389,"x_min":111,"x_max":1292,"o":"m 650 1051 q 417 476 550 814 l 419 476 q 625 593 514 593 q 758 519 708 593 q 833 296 808 446 q 885 99 857 157 q 963 40 913 40 q 1088 131 1026 40 q 1199 413 1149 222 l 1292 386 q 1145 47 1228 144 q 961 -51 1063 -51 q 819 24 871 -51 q 739 264 768 99 q 688 447 715 392 q 614 503 660 503 q 423 375 518 503 q 204 -64 328 247 l 111 -29 q 557 1082 288 419 l 650 1051 z "},"゛":{"ha":1389,"x_min":7,"x_max":449,"o":"m 7 1081 l 97 1128 q 239 879 174 1003 l 149 835 q 7 1081 99 929 m 213 1140 l 303 1188 q 449 935 381 1061 l 357 890 q 213 1140 299 999 z "},"゜":{"ha":1389,"x_min":7,"x_max":392,"o":"m 276 1072 q 199 1104 243 1104 q 122 1072 154 1104 q 90 996 90 1040 q 122 919 90 951 q 199 886 154 886 q 276 919 243 886 q 308 996 308 951 q 276 1072 308 1040 m 335 1132 q 392 996 392 1075 q 335 860 392 917 q 199 803 278 803 q 63 860 119 803 q 7 996 7 917 q 63 1131 7 1075 q 199 1188 119 1188 q 335 1132 278 1188 z "},"ゝ":{"ha":1389,"x_min":354,"x_max":1007,"o":"m 892 364 q 756 560 892 429 q 354 857 619 690 l 428 939 q 863 606 718 757 q 1007 364 1007 456 q 918 208 1007 283 q 658 75 829 132 l 606 167 q 892 364 892 261 z "},"ゞ":{"ha":1389,"x_min":299,"x_max":1115,"o":"m 836 336 q 700 532 836 401 q 299 829 564 663 l 372 911 q 807 578 663 729 q 951 336 951 428 q 863 180 951 256 q 603 47 774 104 l 550 139 q 836 336 836 233 m 674 928 l 764 975 q 906 726 840 850 l 815 682 q 674 928 765 776 m 879 988 l 969 1035 q 1115 782 1047 908 l 1024 738 q 879 988 965 846 z "},"ァ":{"ha":1389,"x_min":272,"x_max":1154,"o":"m 272 696 l 272 786 l 1154 786 l 1154 696 q 1041 483 1121 579 q 849 331 961 386 l 793 410 q 1047 696 989 511 l 272 696 m 333 32 q 533 217 476 93 q 590 594 590 340 l 692 594 q 623 166 692 310 q 383 -51 554 22 l 333 32 z "},"ア":{"ha":1389,"x_min":169,"x_max":1267,"o":"m 169 896 l 169 990 l 1267 990 l 1267 896 q 1124 628 1225 747 q 881 439 1024 508 l 825 525 q 1153 896 1079 651 l 169 896 m 579 764 l 685 764 q 597 226 685 408 q 299 -46 510 44 l 249 43 q 505 281 431 119 q 579 764 579 442 z "},"ィ":{"ha":1389,"x_min":244,"x_max":1140,"o":"m 244 413 q 709 557 483 446 q 1078 821 935 668 l 1140 750 q 811 503 1008 610 l 811 -62 l 704 -62 l 704 450 q 260 318 482 349 l 244 413 z "},"イ":{"ha":1389,"x_min":135,"x_max":1246,"o":"m 135 521 q 717 703 433 563 q 1178 1036 1001 843 l 1246 961 q 831 649 1085 785 l 831 -62 l 718 -62 l 718 592 q 151 421 442 463 l 135 521 z "},"ゥ":{"ha":1389,"x_min":275,"x_max":1114,"o":"m 275 708 l 635 708 l 635 882 l 736 882 l 736 708 l 1114 708 l 1114 519 q 951 111 1114 258 q 479 -54 789 -36 l 468 38 q 1013 519 1013 71 l 1013 618 l 374 618 l 374 353 l 275 353 l 275 708 z "},"ウ":{"ha":1389,"x_min":176,"x_max":1213,"o":"m 176 893 l 629 893 l 629 1115 l 736 1115 l 736 893 l 1213 893 l 1213 667 q 1010 156 1213 342 q 426 -51 808 -29 l 414 46 q 932 226 757 68 q 1107 667 1107 383 l 1107 799 l 281 799 l 281 458 l 176 458 l 176 893 z "},"ェ":{"ha":1389,"x_min":263,"x_max":1126,"o":"m 296 768 l 1093 768 l 1093 676 l 747 676 l 747 101 l 1126 101 l 1126 10 l 263 10 l 263 101 l 642 101 l 642 676 l 296 676 l 296 768 z "},"エ":{"ha":1389,"x_min":157,"x_max":1232,"o":"m 199 968 l 1190 968 l 1190 871 l 750 871 l 750 129 l 1232 129 l 1232 32 l 157 32 l 157 129 l 639 129 l 639 871 l 199 871 l 199 968 z "},"ォ":{"ha":1389,"x_min":251,"x_max":1160,"o":"m 251 699 l 815 699 l 815 874 l 914 874 l 914 699 l 1160 699 l 1160 610 l 914 610 l 914 118 q 888 -6 914 19 q 763 -32 861 -32 q 575 -21 675 -32 l 582 69 q 754 58 690 58 q 805 69 794 58 q 815 119 815 79 l 815 504 q 299 100 575 258 l 253 181 q 790 610 546 346 l 251 610 l 251 699 z "},"オ":{"ha":1389,"x_min":143,"x_max":1274,"o":"m 143 882 l 854 882 l 854 1104 l 958 1104 l 958 882 l 1274 882 l 1274 788 l 958 788 l 958 156 q 926 10 958 42 q 782 -21 894 -21 q 547 -7 676 -21 l 554 90 q 774 76 671 76 q 840 90 826 76 q 854 157 854 104 l 854 672 q 194 147 553 351 l 146 232 q 506 480 326 335 q 829 788 685 625 l 143 788 l 143 882 z "},"カ":{"ha":1389,"x_min":165,"x_max":1185,"o":"m 542 1111 l 646 1111 q 642 889 646 992 l 1185 889 l 1185 810 q 1177 445 1185 590 q 1155 206 1169 300 q 1111 65 1140 113 q 1047 -1 1082 17 q 956 -18 1011 -18 q 692 -3 840 -18 l 700 97 q 928 83 825 83 q 1014 124 986 83 q 1058 312 1042 165 q 1074 760 1074 458 l 1074 792 l 635 792 q 519 290 610 474 q 232 -44 428 106 l 165 31 q 351 209 282 119 q 467 441 421 299 q 531 792 514 583 l 176 792 l 176 889 l 538 889 q 542 1111 542 990 z "},"ガ":{"ha":1389,"x_min":151,"x_max":1338,"o":"m 953 1115 l 1028 1156 q 1146 949 1094 1047 l 1068 910 q 953 1115 1010 1022 m 1140 1138 l 1218 1179 q 1338 967 1274 1086 l 1258 928 q 1140 1138 1189 1060 m 528 1097 l 632 1097 q 626 857 632 956 l 1171 857 l 1171 792 q 1160 358 1171 518 q 1121 110 1150 199 q 1052 -5 1092 22 q 942 -32 1013 -32 q 678 -17 826 -32 l 686 83 q 914 69 811 69 q 1000 110 972 69 q 1044 296 1028 150 q 1060 740 1060 442 l 1060 760 l 619 760 q 503 270 594 451 q 218 -58 411 89 l 151 17 q 335 192 267 104 q 451 419 404 279 q 515 760 499 558 l 163 760 l 163 857 l 522 857 q 528 1097 528 956 z "},"キ":{"ha":1389,"x_min":128,"x_max":1261,"o":"m 593 1085 l 704 1093 l 722 856 l 1201 872 l 1206 775 l 731 758 l 758 399 l 1257 414 l 1261 317 l 765 301 l 796 -85 l 685 -93 l 654 297 l 132 281 l 128 378 l 647 394 l 618 754 l 188 739 l 183 836 l 611 851 l 593 1085 z "},"ギ":{"ha":1389,"x_min":114,"x_max":1338,"o":"m 953 1115 l 1028 1156 q 1146 949 1094 1047 l 1068 910 q 953 1115 1010 1022 m 1140 1138 l 1218 1179 q 1338 967 1274 1086 l 1258 928 q 1140 1138 1189 1060 m 579 1071 l 690 1079 l 710 828 l 1188 844 l 1192 747 l 717 731 l 744 385 l 1243 400 l 1247 303 l 751 288 l 782 -99 l 671 -107 l 640 283 l 118 267 l 114 364 l 633 381 l 606 726 l 174 711 l 169 808 l 599 824 l 579 1071 z "},"ク":{"ha":1389,"x_min":156,"x_max":1167,"o":"m 1054 847 l 507 847 q 231 426 425 607 l 156 493 q 454 1089 414 736 l 558 1082 q 535 944 551 1018 l 1167 944 l 1167 921 q 948 231 1167 458 q 251 -37 729 3 l 235 60 q 849 281 658 100 q 1054 847 1040 463 z "},"グ":{"ha":1389,"x_min":133,"x_max":1375,"o":"m 990 1089 l 1067 1129 q 1183 922 1124 1036 l 1135 899 q 914 215 1133 440 q 218 -51 694 -11 l 203 46 q 814 263 624 85 q 1021 819 1004 442 l 479 819 q 207 413 400 592 l 133 479 q 431 1075 390 721 l 535 1068 q 508 917 526 986 l 1089 917 q 990 1089 1039 1010 m 1178 1113 l 1256 1153 q 1375 942 1318 1050 l 1297 903 q 1178 1113 1236 1018 z "},"ケ":{"ha":1389,"x_min":86,"x_max":1288,"o":"m 1288 885 l 1288 788 l 935 788 q 800 213 933 410 q 376 -42 667 15 l 347 53 q 713 274 601 104 q 826 788 825 444 l 376 788 q 169 440 307 594 l 86 497 q 338 1093 297 742 l 442 1088 q 407 885 431 978 l 1288 885 z "},"ゲ":{"ha":1389,"x_min":72,"x_max":1338,"o":"m 333 39 q 700 255 589 90 q 813 760 811 419 l 358 760 q 156 426 290 578 l 72 483 q 324 1079 283 728 l 428 1074 q 389 857 415 956 l 1274 857 l 1274 760 l 921 760 q 788 194 919 385 q 363 -56 656 3 l 333 39 m 953 1115 l 1028 1156 q 1146 949 1094 1047 l 1068 910 q 953 1115 1010 1022 m 1140 1138 l 1218 1179 q 1338 967 1274 1086 l 1258 928 q 1140 1138 1189 1060 z "},"コ":{"ha":1389,"x_min":204,"x_max":1176,"o":"m 204 968 l 1176 968 l 1176 32 l 204 32 l 204 129 l 1069 129 l 1069 871 l 204 871 l 204 968 z "},"ゴ":{"ha":1389,"x_min":153,"x_max":1375,"o":"m 989 1106 l 1065 1146 q 1182 939 1122 1053 l 1111 903 l 1111 18 l 153 18 l 153 115 l 1004 115 l 1004 838 l 153 838 l 153 935 l 1088 935 q 989 1106 1050 1004 m 1176 1129 l 1254 1169 q 1375 958 1328 1049 l 1296 919 q 1176 1129 1235 1035 z "},"サ":{"ha":1389,"x_min":93,"x_max":1296,"o":"m 93 829 l 338 829 l 338 1079 l 442 1079 l 442 829 l 942 829 l 942 1079 l 1051 1079 l 1051 829 l 1296 829 l 1296 732 l 1051 732 l 1051 643 q 906 142 1051 296 q 399 -46 760 -11 l 381 51 q 824 210 706 85 q 942 643 942 335 l 942 732 l 442 732 l 442 417 l 338 417 l 338 732 l 93 732 l 93 829 z "},"ザ":{"ha":1389,"x_min":65,"x_max":1369,"o":"m 1022 1128 l 1103 1156 q 1196 938 1158 1033 l 1114 911 q 1022 1128 1083 993 m 1193 1151 l 1275 1179 q 1369 956 1336 1043 l 1286 931 q 1193 1151 1238 1057 m 65 815 l 301 815 l 301 1065 l 406 1065 l 406 815 l 892 815 l 892 1065 l 1000 1065 l 1000 815 l 1268 815 l 1268 718 l 1000 718 l 1000 629 q 855 128 1000 282 q 349 -60 710 -25 l 329 38 q 601 90 496 54 q 772 197 706 126 q 865 369 839 267 q 892 629 892 472 l 892 718 l 406 718 l 406 403 l 301 403 l 301 718 l 65 718 l 65 815 z "},"シ":{"ha":1389,"x_min":179,"x_max":1278,"o":"m 235 60 q 891 280 676 99 q 1176 858 1106 461 l 1278 842 q 962 205 1201 411 q 251 -42 722 -1 l 235 60 m 179 600 l 199 699 q 650 614 442 657 l 631 514 q 179 600 300 579 m 239 942 l 258 1042 q 731 956 500 1003 l 711 857 q 239 942 515 897 z "},"ジ":{"ha":1389,"x_min":165,"x_max":1342,"o":"m 221 46 q 877 266 663 85 q 1163 844 1092 447 l 1264 828 q 948 191 1188 397 q 238 -56 708 -15 l 221 46 m 957 1101 l 1033 1142 q 1150 935 1090 1049 l 1074 896 q 957 1101 1024 992 m 1144 1124 l 1222 1165 q 1342 953 1278 1072 l 1264 914 q 1144 1124 1203 1029 m 165 586 l 185 685 q 636 600 428 643 l 617 500 q 165 586 286 565 m 225 928 l 244 1028 q 717 942 486 989 l 697 843 q 225 928 501 883 z "},"ス":{"ha":1389,"x_min":144,"x_max":1239,"o":"m 264 896 l 264 996 l 1125 996 l 1125 896 q 825 442 1028 657 q 1239 33 1026 256 l 1164 -39 q 753 369 961 175 q 192 -22 518 143 l 144 67 q 678 442 456 228 q 1008 896 900 656 l 264 896 z "},"ズ":{"ha":1389,"x_min":117,"x_max":1356,"o":"m 236 882 l 236 982 l 1049 982 q 971 1115 1026 1022 l 1047 1156 q 1164 949 1104 1063 l 1097 915 l 1097 882 q 797 428 1000 643 q 1211 19 999 242 l 1136 -53 q 725 356 933 161 q 164 -36 490 129 l 117 53 q 650 428 428 214 q 981 882 872 642 l 236 882 m 1158 1138 l 1236 1179 q 1356 967 1292 1086 l 1278 928 q 1158 1138 1217 1043 z "},"セ":{"ha":1389,"x_min":75,"x_max":1278,"o":"m 1246 17 q 726 -18 990 -18 q 465 43 526 -18 q 403 306 403 104 l 403 667 l 90 614 l 75 713 l 403 768 l 403 1079 l 510 1079 l 510 786 l 1263 913 l 1278 813 q 1141 551 1236 676 q 921 342 1046 425 l 856 421 q 1037 587 957 489 q 1161 793 1117 685 l 510 683 l 510 324 q 516 191 510 235 q 550 119 522 147 q 620 85 578 92 q 750 79 663 79 q 1240 114 1001 79 l 1246 17 z "},"ゼ":{"ha":1389,"x_min":61,"x_max":1361,"o":"m 1232 3 q 713 -32 976 -32 q 451 29 513 -32 q 389 292 389 90 l 389 625 l 76 572 l 61 671 l 389 726 l 389 1065 l 496 1065 l 496 744 l 1249 871 l 1264 771 q 1127 509 1222 635 q 907 300 1032 383 l 842 379 q 1023 545 943 447 q 1147 751 1103 643 l 496 642 l 496 310 q 502 177 496 221 q 536 106 508 133 q 606 72 564 78 q 736 65 649 65 q 1226 100 988 65 l 1232 3 m 975 1115 l 1051 1156 q 1168 949 1108 1063 l 1092 910 q 975 1115 1042 1006 m 1163 1138 l 1240 1179 q 1361 967 1307 1068 l 1282 928 q 1163 1138 1221 1043 z "},"ソ":{"ha":1389,"x_min":165,"x_max":1226,"o":"m 1226 1019 q 1116 465 1207 675 q 843 140 1025 256 q 351 -28 661 24 l 332 72 q 778 227 615 124 q 1022 519 940 331 q 1121 1026 1103 708 l 1226 1019 m 165 965 l 268 1008 q 483 536 388 760 l 378 496 q 165 965 261 765 z "},"ゾ":{"ha":1389,"x_min":151,"x_max":1342,"o":"m 314 57 q 872 299 697 125 q 1092 847 1046 474 l 1199 836 q 954 226 1150 424 q 338 -42 758 29 l 314 57 m 957 1096 l 1033 1138 q 1150 931 1090 1044 l 1074 892 q 957 1096 1029 978 m 1144 1119 l 1222 1160 q 1342 949 1285 1057 l 1264 910 q 1144 1119 1203 1025 m 151 951 l 254 994 q 469 522 374 746 l 364 482 q 151 951 247 751 z "},"タ":{"ha":1389,"x_min":151,"x_max":1176,"o":"m 260 -51 l 244 46 q 674 146 506 71 q 935 361 842 221 q 471 582 704 481 l 519 675 q 986 454 746 576 q 1064 861 1057 615 l 496 861 q 224 431 417 611 l 151 497 q 346 764 271 610 q 440 1093 421 918 l 542 1088 q 521 958 538 1040 l 1176 958 l 1176 917 q 957 219 1176 449 q 260 -51 738 -11 z "},"ダ":{"ha":1389,"x_min":128,"x_max":1369,"o":"m 985 1106 l 1061 1146 q 1178 939 1118 1053 l 1139 919 l 1139 899 q 920 204 1139 433 q 224 -65 701 -25 l 207 32 q 638 132 468 56 q 900 349 807 208 q 443 565 667 468 l 492 658 q 950 442 740 550 q 1026 843 1019 603 l 471 843 q 200 417 392 596 l 128 483 q 322 750 247 596 q 417 1079 397 904 l 518 1074 q 497 940 511 1006 l 1081 940 q 985 1106 1028 1036 m 1172 1129 l 1250 1169 q 1369 958 1313 1067 l 1292 919 q 1172 1129 1231 1035 z "},"チ":{"ha":1389,"x_min":111,"x_max":1278,"o":"m 111 468 l 111 565 l 692 565 l 692 588 l 692 858 q 254 838 503 838 l 254 935 q 725 963 529 935 q 1122 1056 921 990 l 1153 961 q 801 874 963 900 l 801 588 l 801 565 l 1278 565 l 1278 468 l 796 468 q 669 106 776 229 q 340 -60 561 -17 l 311 35 q 583 172 497 72 q 688 468 669 271 l 111 468 z "},"ヂ":{"ha":1389,"x_min":83,"x_max":1369,"o":"m 226 921 q 638 939 476 921 q 983 1004 799 957 l 1008 908 q 775 858 871 874 l 775 574 q 774 562 775 569 q 774 551 774 554 l 1250 551 l 1250 454 l 769 454 q 642 92 750 215 q 314 -74 535 -31 l 283 21 q 556 158 469 58 q 661 454 643 257 l 83 454 l 83 551 l 665 551 l 665 574 l 665 843 q 226 824 494 824 l 226 921 m 985 1115 l 1061 1156 q 1178 949 1118 1063 l 1101 910 q 985 1115 1051 1006 m 1172 1138 l 1250 1179 q 1369 967 1306 1086 l 1292 928 q 1172 1138 1231 1043 z "},"ッ":{"ha":1389,"x_min":253,"x_max":1136,"o":"m 1136 789 q 1056 340 1128 510 q 835 78 983 169 q 436 -47 688 -12 l 415 46 q 890 256 756 96 q 1035 794 1024 417 l 1136 789 m 253 736 l 350 758 q 450 389 393 613 l 351 367 q 253 736 304 560 m 557 776 l 657 799 q 757 414 713 606 l 657 392 q 557 776 610 592 z "},"ツ":{"ha":1389,"x_min":151,"x_max":1240,"o":"m 1240 997 q 1140 442 1229 653 q 867 118 1050 232 q 372 -42 683 4 l 353 58 q 712 153 571 92 q 947 326 853 214 q 1084 600 1042 439 q 1135 1003 1126 761 l 1240 997 m 151 932 l 254 957 q 379 496 317 751 l 274 472 q 151 932 211 731 m 533 983 l 639 1007 q 764 525 701 788 l 658 503 q 533 983 594 767 z "},"ヅ":{"ha":1389,"x_min":138,"x_max":1342,"o":"m 339 44 q 763 174 606 86 q 1005 422 921 261 q 1113 846 1089 583 l 1218 838 q 1098 367 1193 549 q 825 86 1003 186 q 358 -56 647 -14 l 339 44 m 957 1096 l 1033 1138 q 1150 931 1090 1044 l 1074 892 q 957 1096 1029 978 m 1144 1119 l 1222 1160 q 1342 949 1285 1057 l 1264 910 q 1144 1119 1203 1025 m 138 918 l 240 943 q 365 482 303 738 l 260 458 q 138 918 197 717 m 519 969 l 625 993 q 750 511 688 774 l 644 489 q 519 969 581 753 z "},"テ":{"ha":1389,"x_min":111,"x_max":1278,"o":"m 268 913 l 268 1010 l 1121 1010 l 1121 913 l 268 913 m 111 635 l 1278 635 l 1278 538 l 801 538 q 692 146 800 286 q 340 -60 583 6 l 310 36 q 603 209 518 96 q 690 538 689 322 l 111 538 l 111 635 z "},"デ":{"ha":1389,"x_min":97,"x_max":1369,"o":"m 985 1115 l 1061 1156 q 1178 949 1118 1063 l 1101 910 q 985 1115 1051 1006 m 1172 1138 l 1250 1179 q 1369 967 1306 1086 l 1292 928 q 1172 1138 1231 1043 m 254 899 l 254 996 l 990 996 l 990 899 l 254 899 m 97 621 l 1264 621 l 1264 524 l 788 524 q 678 132 786 272 q 326 -74 569 -8 l 296 22 q 590 195 504 82 q 676 524 675 308 l 97 524 l 97 621 z "},"ト":{"ha":1389,"x_min":351,"x_max":1239,"o":"m 463 1065 l 463 660 q 1239 421 846 568 l 1206 319 q 463 551 811 467 l 463 -65 l 351 -65 l 351 1065 l 463 1065 z "},"ド":{"ha":1389,"x_min":329,"x_max":1217,"o":"m 750 975 l 840 1022 q 982 772 911 906 l 892 728 q 750 975 836 832 m 956 1033 l 1046 1082 q 1192 829 1124 956 l 1100 783 q 956 1033 1042 892 m 440 1051 l 440 646 q 1217 407 824 554 l 1182 306 q 440 538 785 454 l 440 -79 l 329 -79 l 329 1051 l 440 1051 z "},"ナ":{"ha":1389,"x_min":115,"x_max":1274,"o":"m 115 806 l 690 806 l 690 1088 l 801 1088 l 801 806 l 1274 806 l 1274 704 l 801 704 l 801 667 q 685 176 801 336 q 282 -46 568 17 l 247 53 q 594 242 499 110 q 690 667 690 374 l 690 704 l 115 704 l 115 806 z "},"ニ":{"ha":1389,"x_min":143,"x_max":1246,"o":"m 240 864 l 240 968 l 1149 968 l 1149 864 l 240 864 m 143 32 l 143 136 l 1246 136 l 1246 32 l 143 32 z "},"ヌ":{"ha":1389,"x_min":157,"x_max":1213,"o":"m 240 903 l 240 1000 l 1132 1000 l 1132 903 q 881 385 1065 603 q 1213 107 1053 249 l 1144 25 q 807 307 975 175 q 197 -46 575 82 l 157 49 q 722 372 503 161 q 400 608 546 507 l 464 693 q 794 450 608 593 q 1022 903 965 650 l 240 903 z "},"ネ":{"ha":1389,"x_min":114,"x_max":1274,"o":"m 194 899 l 636 899 l 636 1107 l 747 1107 l 747 899 l 1208 899 l 1208 801 l 1208 801 q 874 464 1089 611 q 1274 189 1119 300 l 1208 108 q 778 403 1008 251 q 762 394 772 400 q 747 386 751 389 l 747 -79 l 636 -79 l 636 329 q 139 163 428 231 l 114 261 q 1081 801 786 419 l 194 801 l 194 899 z "},"ノ":{"ha":1389,"x_min":197,"x_max":1121,"o":"m 197 61 q 782 381 599 160 q 1004 1038 965 601 l 1121 1026 q 994 497 1093 707 q 712 156 894 286 q 235 -46 529 26 l 197 61 z "},"ハ":{"ha":1389,"x_min":89,"x_max":1278,"o":"m 842 967 l 943 999 q 1278 3 1142 540 l 1165 -21 q 842 967 1035 507 m 510 981 q 190 -14 451 450 l 89 35 q 399 988 339 481 l 510 981 z "},"バ":{"ha":1389,"x_min":75,"x_max":1264,"o":"m 810 1024 l 893 1068 q 1022 840 961 956 l 939 800 q 810 1024 885 903 m 1004 1076 l 1089 1122 q 1222 889 1171 988 l 1136 847 q 1004 1076 1072 965 m 932 683 l 1036 717 q 1264 -11 1161 396 l 1151 -35 q 932 683 1050 374 m 496 967 q 178 -28 438 433 l 75 21 q 385 974 325 467 l 496 967 z "},"パ":{"ha":1389,"x_min":75,"x_max":1264,"o":"m 939 663 l 1043 696 q 1264 -11 1161 394 l 1151 -35 q 939 663 1053 357 m 385 974 l 496 967 q 178 -28 438 433 l 75 21 q 385 974 325 467 m 1086 878 q 1115 949 1115 907 q 1085 1021 1115 990 q 1014 1051 1056 1051 q 942 1021 972 1051 q 913 949 913 990 q 942 877 913 907 q 1014 847 972 847 q 1086 878 1056 847 m 1142 1076 q 1194 949 1194 1024 q 1142 821 1194 874 q 1014 768 1089 768 q 886 821 939 768 q 833 949 833 874 q 886 1076 833 1024 q 1014 1129 939 1129 q 1142 1076 1089 1129 z "},"ヒ":{"ha":1389,"x_min":235,"x_max":1201,"o":"m 343 1038 l 343 639 q 1171 851 754 706 l 1201 756 q 343 536 778 606 l 343 308 q 387 125 343 169 q 571 81 431 81 q 1190 101 894 81 l 1194 3 q 564 -18 865 -18 q 303 50 372 -18 q 235 310 235 118 l 235 1038 l 343 1038 z "},"ビ":{"ha":1389,"x_min":207,"x_max":1319,"o":"m 907 1071 l 990 1115 q 1119 886 1053 1013 l 1036 846 q 907 1071 976 958 m 1101 1124 l 1186 1168 q 1319 936 1274 1024 l 1233 894 q 1101 1124 1169 1013 m 315 1024 l 315 601 q 1143 814 726 668 l 1174 718 q 315 499 750 568 l 315 294 q 359 111 315 156 q 543 67 403 67 q 1163 88 867 67 l 1167 -11 q 536 -32 838 -32 q 276 36 344 -32 q 207 296 207 104 l 207 1024 l 315 1024 z "},"ピ":{"ha":1389,"x_min":207,"x_max":1301,"o":"m 315 1024 l 315 597 q 1057 781 694 660 q 973 846 1006 800 q 940 949 940 892 q 993 1076 940 1024 q 1121 1129 1046 1129 q 1249 1076 1196 1129 q 1301 949 1301 1024 q 1260 834 1301 883 q 1156 772 1218 785 l 1174 714 q 315 494 750 564 l 315 294 q 359 111 315 156 q 543 67 403 67 q 1163 88 867 67 l 1167 -11 q 536 -32 838 -32 q 276 36 344 -32 q 207 296 207 104 l 207 1024 l 315 1024 m 1193 878 q 1222 949 1222 907 q 1192 1021 1222 990 q 1121 1051 1163 1051 q 1049 1021 1079 1051 q 1018 949 1018 990 q 1049 877 1018 907 q 1121 847 1079 847 q 1193 878 1163 847 z "},"フ":{"ha":1389,"x_min":181,"x_max":1213,"o":"m 181 976 l 1213 976 l 1213 954 q 997 256 1213 494 q 325 -32 781 17 l 307 67 q 893 303 703 111 q 1100 875 1083 496 l 181 875 l 181 976 z "},"ブ":{"ha":1389,"x_min":143,"x_max":1368,"o":"m 1171 1140 l 1249 1181 q 1368 969 1311 1078 l 1290 931 q 1171 1140 1229 1046 m 1063 861 l 143 861 l 143 963 l 1072 963 q 983 1117 1000 1089 l 1060 1157 q 1176 950 1117 1064 l 1176 940 q 960 242 1176 481 q 288 -46 743 3 l 269 53 q 856 290 665 97 q 1063 861 1046 482 z "},"プ":{"ha":1389,"x_min":139,"x_max":1372,"o":"m 1017 1000 q 1069 1126 1017 1074 q 1194 1178 1121 1178 q 1320 1126 1268 1178 q 1372 1000 1372 1074 q 1320 874 1372 926 q 1194 822 1268 822 q 1167 824 1175 822 q 925 211 1140 422 q 283 -46 710 0 l 265 53 q 851 290 661 97 q 1058 861 1042 482 l 139 861 l 139 963 l 1019 963 q 1017 1000 1017 975 m 1265 929 q 1294 1000 1294 958 q 1265 1071 1294 1042 q 1194 1100 1236 1100 q 1124 1071 1153 1100 q 1094 1000 1094 1042 q 1124 929 1094 958 q 1194 900 1153 900 q 1265 929 1236 900 z "},"ヘ":{"ha":1389,"x_min":53,"x_max":1335,"o":"m 53 275 q 158 406 99 331 q 272 554 217 482 q 339 640 328 626 q 491 833 453 796 q 581 871 529 871 q 678 838 636 871 q 851 664 721 804 q 1335 160 1083 413 l 1257 79 q 772 586 1015 322 q 640 724 675 692 q 581 757 604 757 q 535 724 564 757 q 449 613 507 690 q 432 589 438 597 q 138 210 258 358 l 53 275 z "},"ベ":{"ha":1389,"x_min":53,"x_max":1335,"o":"m 839 983 l 929 1031 q 1071 782 1006 906 l 981 738 q 839 983 931 832 m 1044 1043 l 1135 1090 q 1281 838 1213 964 l 1189 793 q 1044 1043 1131 901 m 138 196 l 53 261 q 158 392 99 317 q 272 540 217 468 q 339 626 328 613 q 491 819 453 782 q 581 857 529 857 q 678 824 636 857 q 851 650 721 790 q 1335 146 1083 399 l 1257 65 q 772 572 1015 308 q 640 710 675 678 q 581 743 604 743 q 535 710 564 743 q 449 599 507 676 q 432 575 438 583 q 138 196 258 344 z "},"ペ":{"ha":1389,"x_min":53,"x_max":1335,"o":"m 53 261 q 158 392 99 317 q 272 540 217 468 q 339 626 328 613 q 491 819 453 782 q 581 857 529 857 q 678 824 636 857 q 851 650 721 790 q 1335 146 1083 399 l 1257 65 q 772 572 1015 308 q 640 710 675 678 q 581 743 604 743 q 535 710 564 743 q 449 599 507 676 q 432 575 438 583 q 138 196 258 344 l 53 261 m 1146 810 q 1178 886 1178 842 q 1146 963 1178 931 q 1069 996 1114 996 q 993 963 1025 996 q 961 886 961 931 q 993 810 961 842 q 1069 778 1025 778 q 1146 810 1114 778 m 1206 1022 q 1261 886 1261 965 q 1205 751 1261 807 q 1069 694 1149 694 q 934 751 990 694 q 878 886 878 807 q 934 1022 878 965 q 1069 1079 990 1079 q 1206 1022 1149 1079 z "},"ホ":{"ha":1389,"x_min":94,"x_max":1296,"o":"m 129 907 l 653 907 l 653 1107 l 764 1107 l 764 907 l 1260 907 l 1260 810 l 764 810 l 764 121 q 736 -16 764 14 q 607 -46 708 -46 q 388 -28 506 -46 l 399 68 q 586 53 490 53 q 643 65 633 53 q 653 133 653 76 l 653 810 l 129 810 l 129 907 m 328 619 l 428 583 q 190 104 319 338 l 94 149 q 328 619 225 385 m 963 583 l 1058 625 q 1296 136 1186 383 l 1196 96 q 963 583 1076 365 z "},"ボ":{"ha":1389,"x_min":81,"x_max":1369,"o":"m 115 871 l 639 871 l 639 1093 l 750 1093 l 750 871 l 1246 871 l 1246 774 l 750 774 l 750 107 q 722 -30 750 0 q 593 -60 694 -60 q 374 -42 492 -60 l 385 54 q 572 39 476 39 q 629 51 619 39 q 639 119 639 63 l 639 774 l 115 774 l 115 871 m 985 1115 l 1061 1156 q 1178 949 1118 1063 l 1101 910 q 985 1115 1051 1006 m 1172 1138 l 1250 1179 q 1369 967 1306 1086 l 1292 928 q 1172 1138 1231 1043 m 81 135 q 314 606 211 371 l 414 569 q 176 90 306 324 l 81 135 m 949 569 l 1044 611 q 1282 122 1172 369 l 1182 82 q 949 569 1063 351 z "},"ポ":{"ha":1389,"x_min":81,"x_max":1375,"o":"m 115 882 l 639 882 l 639 1101 l 750 1101 l 750 882 l 1064 882 q 1014 1007 1014 935 q 1067 1135 1014 1082 q 1194 1188 1119 1188 q 1322 1135 1269 1188 q 1375 1007 1375 1082 q 1339 898 1375 946 q 1246 833 1303 850 l 1246 785 l 750 785 l 750 115 q 722 -22 750 8 q 593 -51 694 -51 q 374 -32 500 -51 l 385 64 q 572 47 485 47 q 628 59 618 47 q 639 129 639 71 l 639 785 l 115 785 l 115 882 m 314 615 l 414 579 q 176 100 306 333 l 81 143 q 314 615 207 374 m 949 579 l 1044 621 q 1282 132 1172 379 l 1182 90 q 949 579 1058 369 m 1267 936 q 1296 1007 1296 965 q 1266 1078 1296 1049 q 1194 1108 1236 1108 q 1123 1078 1153 1108 q 1093 1007 1093 1049 q 1123 935 1093 965 q 1194 906 1153 906 q 1267 936 1236 906 z "},"マ":{"ha":1389,"x_min":143,"x_max":1239,"o":"m 143 892 l 143 990 l 1239 990 l 1239 892 q 1035 535 1188 704 q 663 257 882 367 q 846 -15 760 117 l 751 -75 q 321 540 536 254 l 413 603 q 599 347 493 496 q 931 588 785 436 q 1125 892 1076 739 l 143 892 z "},"ミ":{"ha":1389,"x_min":175,"x_max":1208,"o":"m 175 67 l 181 175 q 1208 64 689 157 l 1194 -44 q 175 67 681 49 m 292 514 l 299 622 q 1094 536 699 606 l 1079 428 q 292 514 674 499 m 240 918 l 246 1024 q 1164 940 713 1008 l 1151 835 q 240 918 699 901 z "},"ム":{"ha":1389,"x_min":101,"x_max":1297,"o":"m 911 549 l 1008 594 q 1297 7 1171 281 l 1197 -36 q 1165 33 1188 -14 q 1133 101 1143 79 q 104 0 578 17 l 101 97 q 249 104 147 99 q 538 1049 422 553 l 646 1028 q 369 113 536 550 q 1089 193 718 138 q 911 549 979 418 z "},"メ":{"ha":1389,"x_min":139,"x_max":1222,"o":"m 296 768 l 364 850 q 756 553 571 704 q 982 1053 903 771 l 1090 1031 q 844 479 1004 714 q 1222 143 1057 301 l 1146 65 q 781 393 951 250 q 201 -64 564 122 l 139 26 q 692 465 486 208 q 296 768 461 653 z "},"モ":{"ha":1389,"x_min":111,"x_max":1278,"o":"m 226 1000 l 1163 1000 l 1163 900 l 635 900 l 635 583 l 1278 583 l 1278 486 l 635 486 l 635 303 q 641 176 635 218 q 675 106 647 133 q 744 73 703 79 q 871 67 786 67 q 1182 81 1028 67 l 1186 -18 q 851 -32 1019 -32 q 682 -20 743 -32 q 582 31 621 -8 q 531 131 543 69 q 518 301 518 192 l 518 486 l 111 486 l 111 583 l 518 583 l 518 900 l 226 900 l 226 1000 z "},"ャ":{"ha":1389,"x_min":204,"x_max":1167,"o":"m 438 835 l 543 853 l 585 618 l 1147 735 l 1167 639 q 1077 408 1143 519 q 921 224 1011 296 l 846 293 q 977 440 921 354 q 1057 617 1033 525 l 603 522 l 707 -51 l 601 -71 l 499 500 l 224 443 l 204 539 l 481 596 l 438 835 z "},"ヤ":{"ha":1389,"x_min":86,"x_max":1279,"o":"m 385 1056 l 496 1076 l 550 775 l 1260 924 l 1279 822 q 1168 531 1251 671 q 971 303 1085 390 l 893 376 q 1064 565 992 453 q 1165 799 1136 678 l 569 674 l 701 -51 l 590 -71 l 458 650 l 106 576 l 86 678 l 440 751 l 385 1056 z "},"ュ":{"ha":1389,"x_min":229,"x_max":1160,"o":"m 347 768 l 986 768 l 935 101 l 1160 101 l 1160 10 l 229 10 l 229 101 l 824 101 l 869 676 l 347 676 l 347 768 z "},"ユ":{"ha":1389,"x_min":115,"x_max":1274,"o":"m 264 968 l 1057 968 l 989 129 l 1274 129 l 1274 32 l 115 32 l 115 129 l 871 129 l 933 871 l 264 871 l 264 968 z "},"ョ":{"ha":1389,"x_min":281,"x_max":1092,"o":"m 281 779 l 1092 779 l 1092 -1 l 281 -1 l 281 90 l 983 90 l 983 371 l 335 371 l 335 461 l 983 461 l 983 688 l 281 688 l 281 779 z "},"ヨ":{"ha":1389,"x_min":181,"x_max":1185,"o":"m 181 982 l 1185 982 l 1185 18 l 181 18 l 181 115 l 1072 115 l 1072 486 l 246 486 l 246 583 l 1072 583 l 1072 885 l 181 885 l 181 982 z "},"ラ":{"ha":1389,"x_min":153,"x_max":1225,"o":"m 153 656 l 1225 656 l 1225 632 q 369 -56 1225 3 l 353 42 q 1113 558 1063 90 l 153 558 l 153 656 m 260 913 l 260 1010 l 1129 1010 l 1129 913 l 260 913 z "},"リ":{"ha":1389,"x_min":275,"x_max":1114,"o":"m 1000 1032 l 1114 1032 l 1114 676 q 956 153 1114 326 q 439 -69 797 -21 l 415 32 q 870 223 740 81 q 1000 674 1000 365 l 1000 1032 m 275 421 l 275 1032 l 386 1032 l 386 421 l 275 421 z "},"ル":{"ha":1389,"x_min":93,"x_max":1333,"o":"m 357 1024 l 468 1024 l 468 750 q 437 325 468 478 q 341 93 406 172 q 150 -46 276 14 l 93 46 q 257 166 204 100 q 333 364 310 232 q 357 750 357 496 l 357 1024 m 829 69 q 1107 230 1003 97 q 1232 586 1211 363 l 1333 574 q 1149 124 1308 288 q 740 -39 990 -39 l 718 -39 l 718 1024 l 829 1024 l 829 69 z "},"レ":{"ha":1389,"x_min":274,"x_max":1258,"o":"m 386 63 q 873 219 682 81 q 1160 624 1064 357 l 1258 585 q 296 -42 1031 -42 l 274 -42 l 274 1032 l 386 1032 l 386 63 z "},"ロ":{"ha":1389,"x_min":171,"x_max":1218,"o":"m 282 10 l 171 10 l 171 990 l 1218 990 l 1218 10 l 282 10 m 282 108 l 1107 108 l 1107 892 l 282 892 l 282 108 z "},"ヮ":{"ha":1389,"x_min":282,"x_max":1114,"o":"m 383 689 l 383 400 l 282 400 l 282 786 l 1114 786 l 1114 579 q 461 -47 1114 -8 l 447 46 q 874 195 739 65 q 1010 579 1010 325 l 1010 689 l 383 689 z "},"ワ":{"ha":1389,"x_min":185,"x_max":1213,"o":"m 185 518 l 185 990 l 1213 990 l 1213 746 q 408 -42 1213 8 l 393 58 q 931 252 758 83 q 1104 746 1104 421 l 1104 889 l 292 889 l 292 518 l 185 518 z "},"ヰ":{"ha":1389,"x_min":101,"x_max":1288,"o":"m 163 889 l 882 889 l 882 1069 l 990 1069 l 990 889 l 1236 889 l 1236 789 l 990 789 l 990 267 l 1288 267 l 1288 167 l 990 167 l 990 -69 l 882 -69 l 882 167 l 101 167 l 101 267 l 385 267 l 385 789 l 163 789 l 163 889 m 493 267 l 882 267 l 882 789 l 493 789 l 493 267 z "},"ヱ":{"ha":1389,"x_min":153,"x_max":1236,"o":"m 194 885 l 194 982 l 1219 982 l 1219 885 q 1106 619 1179 732 q 908 410 1033 507 l 833 488 q 1111 885 1043 642 l 194 885 m 153 115 l 629 115 l 629 732 l 739 732 l 739 115 l 1236 115 l 1236 18 l 153 18 l 153 115 z "},"ヲ":{"ha":1389,"x_min":183,"x_max":1201,"o":"m 183 990 l 1201 990 l 1201 968 q 989 247 1197 486 q 329 -42 781 7 l 314 56 q 776 199 604 89 q 1024 518 947 308 l 243 518 l 243 614 l 1053 614 q 1090 893 1085 739 l 183 893 l 183 990 z "},"ン":{"ha":1389,"x_min":204,"x_max":1278,"o":"m 204 918 l 254 1013 q 679 776 476 901 l 625 682 q 204 918 433 801 m 1278 864 q 251 -14 1138 64 l 235 90 q 874 324 642 128 q 1176 886 1107 521 l 1278 864 z "},"ヴ":{"ha":1389,"x_min":163,"x_max":1375,"o":"m 989 1115 l 1065 1156 q 1182 949 1122 1063 l 1106 910 q 989 1115 1056 1006 m 1176 1138 l 1254 1179 q 1375 967 1321 1068 l 1296 928 q 1176 1138 1235 1043 m 722 1101 l 722 871 l 1199 871 l 1199 653 q 997 142 1199 328 q 413 -65 794 -43 l 400 32 q 918 212 743 54 q 1093 653 1093 369 l 1093 775 l 267 775 l 267 444 l 163 444 l 163 871 l 615 871 l 615 1101 l 722 1101 z "},"ヵ":{"ha":1389,"x_min":267,"x_max":1092,"o":"m 660 703 l 1092 703 l 1092 628 q 1073 199 1092 339 q 1017 14 1054 58 q 903 -31 979 -31 q 688 -17 817 -31 l 696 76 q 876 65 811 65 q 941 97 919 65 q 974 239 963 128 q 986 579 986 350 l 986 611 l 653 611 q 559 215 632 361 q 331 -51 486 68 l 267 19 q 469 250 403 124 q 554 611 535 376 l 276 611 l 276 703 l 560 703 q 564 878 564 782 l 663 878 q 660 703 663 757 z "},"ヶ":{"ha":1389,"x_min":204,"x_max":1168,"o":"m 1168 701 l 1168 610 l 893 610 q 785 153 892 310 q 443 -47 678 -3 l 415 42 q 702 213 615 82 q 790 610 789 343 l 447 610 q 283 336 390 457 l 204 390 q 404 865 372 588 l 503 860 q 476 701 494 772 l 1168 701 z "},"ー":{"ha":1389,"x_min":129,"x_max":1260,"o":"m 129 447 l 129 553 l 1260 553 l 1260 447 l 129 447 z "},"ヽ":{"ha":1389,"x_min":367,"x_max":1022,"o":"m 367 842 l 454 911 q 751 582 618 756 q 1022 164 883 408 l 924 104 q 656 519 786 346 q 367 842 525 692 z "},"ヾ":{"ha":1389,"x_min":311,"x_max":1115,"o":"m 674 928 l 764 975 q 906 726 840 850 l 815 682 q 674 928 765 776 m 879 988 l 969 1035 q 1115 782 1047 908 l 1024 738 q 879 988 965 846 m 311 814 l 399 883 q 695 554 563 728 q 967 136 828 381 l 868 76 q 600 491 731 318 q 311 814 469 664 z "},"一":{"ha":1389,"x_min":74,"x_max":1315,"o":"m 74 476 l 74 583 l 1315 583 l 1315 476 l 74 476 z "},"丁":{"ha":1389,"x_min":93,"x_max":1296,"o":"m 93 1058 l 1296 1058 l 1296 961 l 785 961 l 785 97 q 758 -51 785 -22 q 614 -79 731 -79 q 349 -65 525 -79 l 346 32 q 597 18 515 18 q 663 29 653 18 q 674 100 674 40 l 674 961 l 93 961 l 93 1058 z "},"七":{"ha":1389,"x_min":68,"x_max":1321,"o":"m 389 1101 l 500 1101 l 500 686 l 1299 869 l 1321 774 l 500 583 l 500 136 q 502 81 500 97 q 507 49 504 64 q 524 30 510 35 q 551 22 538 25 q 600 17 565 19 q 760 10 688 10 q 935 17 840 10 q 1049 42 1024 24 q 1099 182 1085 68 q 1115 408 1104 238 l 1222 397 q 1210 210 1215 278 q 1191 83 1204 143 q 1165 -1 1178 24 q 1119 -47 1151 -26 q 1056 -72 1088 -67 q 964 -81 1025 -76 q 764 -87 856 -87 q 582 -81 683 -87 q 503 -74 531 -76 q 451 -60 476 -71 q 417 -40 426 -50 q 399 -3 407 -29 q 390 51 392 24 q 389 129 389 78 l 389 558 l 90 489 l 68 585 l 389 660 l 389 1101 z "},"万":{"ha":1389,"x_min":88,"x_max":1296,"o":"m 482 947 l 88 947 l 88 1044 l 1296 1044 l 1296 947 l 593 947 q 583 678 593 790 l 1190 678 l 1190 600 q 1167 165 1190 306 q 1096 -21 1144 25 q 944 -67 1047 -67 q 668 -53 865 -67 l 665 46 q 935 32 843 32 q 1019 65 990 32 q 1064 216 1047 97 q 1081 572 1081 335 l 1081 583 l 574 583 q 455 201 544 351 q 179 -93 365 51 l 106 -15 q 337 218 258 100 q 449 504 415 336 q 482 947 482 672 z "},"丈":{"ha":1389,"x_min":81,"x_max":1307,"o":"m 308 674 l 410 711 q 606 376 479 519 q 696 810 690 539 l 101 810 l 101 907 l 697 907 l 697 1121 l 808 1121 l 808 907 l 1288 907 l 1288 810 l 807 810 q 685 297 799 488 q 1307 4 922 85 l 1271 -93 q 626 215 893 -15 q 124 -92 475 32 l 81 0 q 549 289 418 122 q 308 674 386 458 z "},"三":{"ha":1389,"x_min":101,"x_max":1288,"o":"m 101 -17 l 101 81 l 1288 81 l 1288 -17 l 101 -17 m 194 919 l 194 1017 l 1194 1017 l 1194 919 l 194 919 m 278 486 l 278 581 l 1111 581 l 1111 486 l 278 486 z "},"上":{"ha":1389,"x_min":83,"x_max":1306,"o":"m 706 1094 l 706 722 l 1226 722 l 1226 628 l 706 628 l 706 35 l 1306 35 l 1306 -62 l 83 -62 l 83 35 l 594 35 l 594 1094 l 706 1094 z "},"下":{"ha":1389,"x_min":83,"x_max":1306,"o":"m 83 1063 l 1306 1063 l 1306 965 l 706 965 l 706 760 q 1218 474 933 657 l 1160 388 q 706 650 904 554 l 706 -94 l 594 -94 l 594 965 l 83 965 l 83 1063 z "},"不":{"ha":1389,"x_min":54,"x_max":1336,"o":"m 854 690 q 1336 283 1104 507 l 1267 204 q 790 615 1024 440 l 854 690 m 101 958 l 101 1053 l 1288 1053 l 1288 958 l 856 958 q 749 800 810 881 l 749 -104 l 640 -104 l 640 671 q 113 203 431 424 l 54 292 q 735 958 510 604 l 101 958 z "},"与":{"ha":1389,"x_min":63,"x_max":1329,"o":"m 63 271 l 63 364 l 1007 364 q 1026 579 1025 563 l 326 579 q 313 524 322 563 q 299 467 304 486 l 190 479 q 324 1144 269 779 l 433 1138 q 408 976 432 1122 l 1213 976 l 1213 885 l 392 885 q 347 669 378 811 l 1144 669 q 1119 364 1132 493 l 1329 364 l 1329 271 l 1110 271 q 1060 26 1090 104 q 992 -71 1031 -51 q 875 -90 954 -90 q 528 -79 750 -90 l 526 17 q 851 4 749 4 q 898 7 882 4 q 931 23 914 10 q 958 65 949 36 q 978 143 968 94 q 997 271 988 192 l 63 271 z "},"丑":{"ha":1389,"x_min":76,"x_max":1313,"o":"m 508 476 l 440 35 l 922 35 l 964 476 l 508 476 m 522 572 l 972 572 l 1010 965 l 583 965 l 522 572 m 97 -60 l 97 35 l 328 35 l 397 476 l 76 476 l 76 572 l 411 572 l 472 965 l 194 965 l 194 1060 l 1128 1060 l 1083 572 l 1313 572 l 1313 476 l 1074 476 l 1033 35 l 1292 35 l 1292 -60 l 97 -60 z "},"且":{"ha":1389,"x_min":74,"x_max":1315,"o":"m 347 296 l 347 18 l 1042 18 l 1042 296 l 347 296 m 347 649 l 347 386 l 1042 386 l 1042 649 l 347 649 m 347 739 l 1042 739 l 1042 996 l 347 996 l 347 739 m 1315 -74 l 74 -74 l 74 18 l 239 18 l 239 1088 l 1150 1088 l 1150 18 l 1315 18 l 1315 -74 z "},"世":{"ha":1389,"x_min":56,"x_max":1333,"o":"m 704 764 l 704 386 l 1007 386 l 1007 764 l 704 764 m 600 858 l 600 1107 l 704 1107 l 704 858 l 1007 858 l 1007 1107 l 1114 1107 l 1114 858 l 1333 858 l 1333 764 l 1114 764 l 1114 299 l 600 299 l 600 764 l 343 764 l 343 76 l 1260 76 l 1260 -18 l 343 -18 l 343 -121 l 233 -121 l 233 764 l 56 764 l 56 858 l 233 858 l 233 1107 l 343 1107 l 343 858 l 600 858 z "},"丘":{"ha":1389,"x_min":76,"x_max":1313,"o":"m 874 31 l 874 590 l 379 590 l 379 31 l 874 31 m 983 31 l 1313 31 l 1313 -67 l 76 -67 l 76 31 l 268 31 l 268 910 l 268 1004 q 747 1035 513 1004 q 1126 1115 982 1067 l 1157 1021 q 379 911 868 925 l 379 685 l 1236 685 l 1236 590 l 983 590 l 983 31 z "},"丙":{"ha":1389,"x_min":97,"x_max":1292,"o":"m 1292 1074 l 1292 982 l 746 982 l 746 900 q 742 813 746 854 l 1250 813 l 1250 94 q 1222 -53 1250 -25 q 1076 -81 1193 -81 q 858 -74 1053 -81 l 854 21 q 1058 14 1039 14 q 1131 24 1119 14 q 1142 94 1142 35 l 1142 718 l 728 718 q 707 633 719 671 q 1121 263 944 486 l 1038 204 q 671 544 871 419 q 329 214 569 343 l 268 300 q 504 476 419 375 q 619 718 589 576 l 247 718 l 247 -86 l 139 -86 l 139 813 l 633 813 q 636 901 636 840 l 636 982 l 97 982 l 97 1074 l 1292 1074 z "},"丞":{"ha":1389,"x_min":53,"x_max":1336,"o":"m 388 208 q 579 201 531 201 q 645 213 635 201 q 656 282 656 224 l 656 826 l 701 826 q 996 983 869 903 l 233 983 l 233 1074 l 1156 1074 l 1156 983 q 786 765 996 865 q 910 574 835 669 q 1228 799 1071 657 l 1296 729 q 972 500 1154 597 q 1336 207 1129 326 l 1271 124 q 764 625 969 304 l 764 285 q 737 138 764 167 q 600 108 710 108 q 390 115 543 108 l 388 208 m 94 653 l 94 743 l 583 743 l 583 653 q 389 362 513 497 q 108 133 265 226 l 53 218 q 308 417 196 303 q 478 653 419 532 l 94 653 m 90 -74 l 90 18 l 1299 18 l 1299 -74 l 90 -74 z "},"両":{"ha":1389,"x_min":97,"x_max":1292,"o":"m 1292 983 l 747 983 l 747 833 l 1253 833 l 1253 63 q 1226 -81 1253 -53 q 1088 -108 1199 -108 q 865 -101 1053 -108 l 861 -7 q 1065 -14 1046 -14 q 1135 -3 1124 -14 q 1146 63 1146 7 l 1146 746 l 747 746 l 747 250 l 914 250 l 914 639 l 1017 639 l 1017 76 l 914 76 l 914 160 l 475 160 l 475 17 l 372 17 l 372 639 l 475 639 l 475 250 l 642 250 l 642 746 l 243 746 l 243 -118 l 136 -118 l 136 833 l 642 833 l 642 983 l 97 983 l 97 1074 l 1292 1074 l 1292 983 z "},"並":{"ha":1389,"x_min":83,"x_max":1306,"o":"m 788 11 l 788 829 l 601 829 l 601 11 l 788 11 m 340 1113 l 440 1143 q 582 921 507 1058 l 810 921 q 947 1140 896 1035 l 1051 1117 q 932 921 1011 1033 l 1285 921 l 1285 829 l 893 829 l 893 11 l 1306 11 l 1306 -81 l 83 -81 l 83 11 l 496 11 l 496 829 l 104 829 l 104 921 l 465 921 q 340 1113 401 1033 m 144 676 l 244 713 q 428 188 354 474 l 326 154 q 144 676 251 442 m 956 196 q 1138 715 1060 386 l 1240 690 q 1054 160 1161 356 l 956 196 z "},"中":{"ha":1389,"x_min":125,"x_max":1264,"o":"m 750 421 l 1160 421 l 1160 803 l 750 803 l 750 421 m 229 329 l 229 240 l 125 240 l 125 899 l 639 899 l 639 1135 l 750 1135 l 750 899 l 1264 899 l 1264 240 l 1160 240 l 1160 329 l 750 329 l 750 -135 l 639 -135 l 639 329 l 229 329 m 229 421 l 639 421 l 639 803 l 229 803 l 229 421 z "},"串":{"ha":1389,"x_min":111,"x_max":1278,"o":"m 747 910 l 747 706 l 1121 706 l 1121 910 l 747 910 m 642 910 l 268 910 l 268 706 l 642 706 l 642 910 m 642 104 l 213 104 l 213 25 l 111 25 l 111 496 l 642 496 l 642 621 l 268 621 l 167 621 l 167 997 l 642 997 l 642 1135 l 747 1135 l 747 997 l 1222 997 l 1222 621 l 747 621 l 747 496 l 1278 496 l 1278 25 l 1176 25 l 1176 104 l 747 104 l 747 -135 l 642 -135 l 642 104 m 642 192 l 642 406 l 213 406 l 213 192 l 642 192 m 1176 192 l 1176 406 l 747 406 l 747 192 l 1176 192 z "},"丸":{"ha":1389,"x_min":56,"x_max":1357,"o":"m 1118 10 q 1224 63 1204 10 q 1260 408 1244 117 l 1357 397 q 1348 242 1351 301 q 1337 126 1344 183 q 1323 39 1329 68 q 1301 -19 1317 10 q 1271 -58 1285 -47 q 1228 -76 1257 -68 q 1173 -86 1199 -85 q 1100 -87 1147 -87 q 938 -64 971 -87 q 906 56 906 -40 l 906 801 l 597 801 q 549 410 597 581 q 844 161 683 307 l 776 82 q 513 307 632 214 q 122 -115 403 44 l 56 -31 q 419 376 322 118 q 158 543 281 476 l 213 629 q 451 481 332 564 q 486 801 486 626 l 135 801 l 135 899 l 486 899 l 486 1143 l 597 1143 l 597 899 l 1014 899 l 1014 79 q 1028 19 1014 29 q 1118 10 1042 10 z "},"丹":{"ha":1389,"x_min":44,"x_max":1326,"o":"m 358 539 l 1086 539 l 1086 989 l 358 989 l 358 542 l 358 539 m 522 881 l 603 950 q 890 651 760 801 l 808 583 q 522 881 665 746 m 63 444 l 63 539 l 250 539 l 250 581 l 250 1081 l 1194 1081 l 1194 539 l 1326 539 l 1326 444 l 1194 444 l 1194 76 q 1167 -72 1194 -43 q 1025 -100 1139 -100 q 803 -93 990 -100 l 799 3 q 1004 -4 983 -4 q 1075 6 1064 -4 q 1086 76 1086 17 l 1086 444 l 357 444 q 293 126 347 257 q 129 -112 239 -4 l 44 -49 q 188 163 142 51 q 246 444 235 274 l 63 444 z "},"主":{"ha":1389,"x_min":97,"x_max":1292,"o":"m 411 1053 l 443 1146 q 978 999 704 1101 l 939 907 q 411 1053 689 1003 m 750 21 l 1292 21 l 1292 -74 l 97 -74 l 97 21 l 639 21 l 639 382 l 222 382 l 222 475 l 639 475 l 639 774 l 125 774 l 125 868 l 1264 868 l 1264 774 l 750 774 l 750 475 l 1167 475 l 1167 382 l 750 382 l 750 21 z "},"乃":{"ha":1389,"x_min":113,"x_max":1264,"o":"m 1264 676 q 1240 218 1264 378 q 1165 -6 1217 58 q 1018 -69 1114 -69 q 742 -53 917 -69 l 742 49 q 997 32 915 32 q 1060 54 1033 32 q 1109 133 1086 76 q 1144 303 1132 190 q 1156 583 1156 415 l 936 583 q 907 499 926 554 l 806 522 q 919 947 881 721 l 569 947 q 526 467 564 656 q 408 149 488 279 q 183 -100 328 18 l 113 -22 q 267 130 207 56 q 371 315 326 204 q 435 577 415 426 q 460 947 456 728 l 122 947 l 122 1044 l 1024 1044 l 1024 947 q 964 676 1004 815 l 1264 676 z "},"久":{"ha":1389,"x_min":96,"x_max":1340,"o":"m 878 460 q 1340 -14 1051 167 l 1285 -100 q 814 367 997 74 q 142 -101 585 65 l 96 -10 q 655 342 454 128 q 938 886 856 557 l 508 886 q 181 431 383 633 l 107 501 q 500 1138 376 772 l 603 1119 q 551 982 585 1063 l 1051 982 l 1051 886 q 878 460 993 642 z "},"之":{"ha":1389,"x_min":65,"x_max":1308,"o":"m 65 -49 q 261 433 210 161 l 358 433 q 428 253 382 324 q 1090 803 853 453 l 178 803 l 178 899 l 639 899 l 639 1136 l 750 1136 l 750 899 l 1211 899 l 1211 803 q 907 442 1082 596 q 494 175 732 289 q 762 51 589 89 q 1218 14 935 14 l 1308 14 l 1303 -81 l 1218 -81 q 601 1 808 -81 q 319 263 393 82 q 157 -103 268 54 l 65 -49 z "},"乍":{"ha":1389,"x_min":67,"x_max":1292,"o":"m 1292 907 l 719 907 l 719 650 l 1236 650 l 1236 558 l 719 558 l 719 292 l 1236 292 l 1236 197 l 719 197 l 719 -121 l 608 -121 l 608 907 l 363 907 q 156 528 281 707 l 67 589 q 333 1142 243 840 l 438 1121 q 399 1000 426 1081 l 1292 1000 l 1292 907 z "},"乎":{"ha":1389,"x_min":56,"x_max":1333,"o":"m 185 986 q 1197 1101 756 986 l 1219 1007 q 764 924 1014 953 l 764 468 l 1333 468 l 1333 372 l 764 372 l 764 74 q 736 -72 764 -43 q 600 -101 708 -101 q 365 -94 522 -101 l 361 0 q 576 -7 510 -7 q 641 6 629 -7 q 653 74 653 18 l 653 372 l 56 372 l 56 468 l 653 468 l 653 913 q 190 892 431 892 l 185 986 m 282 853 q 475 572 381 728 l 382 525 q 190 804 288 678 l 282 853 m 1221 878 q 1014 524 1142 700 l 919 567 q 1121 914 1042 735 l 1221 878 z "},"乏":{"ha":1389,"x_min":67,"x_max":1308,"o":"m 1218 4 l 1308 4 l 1303 -87 l 1218 -87 q 597 -17 804 -87 q 318 206 390 53 q 156 -110 269 31 l 67 -60 q 261 364 211 125 l 358 364 q 440 197 383 264 q 1081 643 843 358 l 178 643 l 178 736 l 642 736 l 642 919 q 174 899 418 899 l 169 990 q 1196 1108 754 990 l 1219 1017 q 747 931 1011 963 l 747 736 l 1211 736 l 1211 643 q 916 345 1083 471 q 521 126 749 219 q 1218 4 707 4 z "},"乗":{"ha":1389,"x_min":57,"x_max":1332,"o":"m 750 778 l 750 629 l 1000 629 l 1000 778 l 750 778 m 639 778 l 389 778 l 389 629 l 639 629 l 639 778 m 750 379 l 1000 379 l 1000 538 l 750 538 l 750 379 m 639 379 l 639 538 l 389 538 l 389 379 l 639 379 m 190 1042 q 1197 1115 763 1042 l 1210 1025 q 750 974 1014 993 l 750 864 l 1274 864 l 1274 778 l 1104 778 l 1104 629 l 1315 629 l 1315 538 l 1104 538 l 1104 379 l 1260 379 l 1260 294 l 813 294 q 1332 -3 1003 131 l 1288 -94 q 750 233 939 56 l 750 -121 l 639 -121 l 639 233 q 101 -94 450 56 l 57 -3 q 576 294 386 131 l 129 294 l 129 379 l 285 379 l 285 538 l 74 538 l 74 629 l 285 629 l 285 778 l 115 778 l 115 864 l 639 864 l 639 967 q 190 954 422 954 l 190 1042 z "},"乙":{"ha":1389,"x_min":160,"x_max":1239,"o":"m 1132 422 l 1239 411 q 1229 256 1233 311 q 1211 140 1225 200 q 1186 52 1197 79 q 1142 -5 1175 25 q 1078 -44 1108 -35 q 984 -62 1049 -53 q 860 -73 919 -72 q 694 -74 801 -74 q 365 -53 481 -74 q 204 9 249 -33 q 160 128 160 51 q 245 326 160 211 q 466 555 331 440 q 729 763 601 669 q 981 933 857 856 l 188 933 l 188 1031 l 1174 1031 l 1174 933 q 1028 849 1129 914 q 799 689 926 783 q 556 496 672 594 q 360 299 439 397 q 281 139 281 200 q 308 73 281 96 q 423 37 336 50 q 676 24 510 24 q 794 24 756 24 q 887 28 833 24 q 962 35 940 33 q 1016 51 983 36 q 1058 74 1049 67 q 1085 113 1068 82 q 1106 161 1103 143 q 1117 230 1108 179 q 1126 315 1125 281 q 1132 422 1128 349 z "},"九":{"ha":1389,"x_min":56,"x_max":1357,"o":"m 1121 10 q 1220 64 1201 10 q 1254 408 1239 118 l 1357 397 q 1347 199 1351 268 q 1328 67 1342 129 q 1303 -21 1315 4 q 1260 -65 1292 -46 q 1198 -85 1228 -83 q 1107 -87 1168 -87 q 947 -64 979 -87 q 914 56 914 -40 l 914 775 l 569 775 q 458 239 565 450 q 122 -114 350 28 l 56 -26 q 357 288 260 99 q 458 775 454 478 l 135 775 l 135 872 l 458 872 l 458 1143 l 569 1143 l 569 872 l 1024 872 l 1024 79 q 1036 19 1024 28 q 1121 10 1049 10 z "},"乞":{"ha":1389,"x_min":61,"x_max":1292,"o":"m 61 668 q 329 1151 242 879 l 431 1131 q 393 1021 415 1078 l 1292 1021 l 1292 928 l 353 928 q 136 592 263 738 l 61 668 m 1132 326 l 1239 317 q 1230 210 1233 250 q 1217 126 1226 171 q 1201 58 1208 82 q 1175 8 1194 35 q 1140 -31 1156 -19 q 1090 -56 1125 -43 q 1024 -74 1054 -69 q 937 -82 994 -78 q 829 -87 879 -86 q 694 -87 779 -87 q 359 -69 478 -87 q 200 -17 240 -50 q 160 72 160 15 q 333 303 160 160 q 953 685 507 446 l 299 685 l 299 775 l 1174 775 l 1174 685 q 517 315 751 478 q 282 86 282 151 q 676 7 282 7 q 860 7 808 7 q 978 21 913 7 q 1060 45 1044 35 q 1097 103 1075 56 q 1122 190 1119 151 q 1132 326 1125 229 z "},"也":{"ha":1389,"x_min":39,"x_max":1319,"o":"m 292 1056 l 400 1056 l 400 761 l 676 824 l 676 1129 l 782 1129 l 782 849 l 1222 950 l 1222 893 q 1206 499 1222 628 q 1158 333 1189 371 q 1065 296 1128 296 q 894 308 1017 296 l 892 403 q 1044 392 989 392 q 1082 414 1069 392 q 1103 532 1094 436 q 1115 826 1113 628 l 782 749 l 782 215 l 676 215 l 676 724 l 400 660 l 400 128 q 415 28 400 44 q 504 7 429 11 q 739 0 636 0 q 989 7 840 0 q 1042 9 1025 8 q 1083 15 1058 10 q 1117 21 1108 19 q 1142 34 1126 22 q 1163 51 1158 46 q 1176 78 1167 56 q 1188 114 1186 101 q 1195 163 1189 126 q 1204 223 1201 200 q 1213 300 1207 246 l 1319 279 q 1304 136 1311 186 q 1281 40 1297 86 q 1250 -25 1265 -7 q 1195 -60 1235 -43 q 1117 -80 1156 -76 q 1001 -87 1078 -83 q 726 -94 851 -94 q 476 -87 618 -94 q 401 -83 426 -85 q 351 -71 375 -81 q 317 -51 326 -61 q 301 -14 308 -42 q 292 41 293 14 q 292 122 292 68 l 292 633 l 56 579 l 39 678 l 292 736 l 292 1056 z "},"乱":{"ha":1389,"x_min":56,"x_max":1354,"o":"m 226 65 l 618 65 l 618 375 l 226 375 l 226 65 m 122 461 l 357 461 l 357 657 l 56 657 l 56 750 l 357 750 l 357 932 q 103 906 249 917 l 92 997 q 713 1104 468 1029 l 746 1013 q 465 949 624 975 l 465 750 l 774 750 l 774 657 l 465 657 l 465 461 l 719 461 l 719 -86 l 618 -86 l 618 -21 l 226 -21 l 226 -108 l 122 -108 l 122 461 m 1078 -7 q 1226 40 1204 -7 q 1254 364 1247 86 l 1354 354 q 1351 231 1353 275 q 1346 134 1350 188 q 1339 56 1342 81 q 1326 -1 1336 31 q 1309 -44 1315 -33 q 1283 -72 1303 -56 q 1249 -91 1264 -87 q 1203 -99 1235 -94 q 1147 -104 1172 -104 q 1076 -104 1122 -104 q 981 -103 1014 -104 q 916 -97 947 -103 q 872 -82 885 -90 q 849 -53 860 -74 q 838 -10 839 -33 q 836 53 836 13 l 836 1100 l 942 1100 l 942 76 q 942 42 942 51 q 947 19 942 32 q 958 4 953 7 q 982 -3 963 1 q 1019 -7 1001 -7 q 1078 -7 1038 -7 z "},"乳":{"ha":1389,"x_min":60,"x_max":1351,"o":"m 1103 -3 q 1224 44 1206 -3 q 1253 368 1243 90 l 1351 358 q 1347 210 1349 261 q 1338 101 1344 160 q 1327 17 1332 42 q 1306 -36 1322 -7 q 1277 -73 1290 -65 q 1234 -90 1264 -81 q 1177 -99 1204 -99 q 1100 -100 1150 -100 q 924 -75 961 -100 q 886 44 886 -50 l 886 1094 l 993 1094 l 993 67 q 1010 8 993 19 q 1103 -3 1026 -3 m 814 1018 q 90 947 492 958 l 81 1039 q 797 1108 475 1050 l 814 1018 m 108 872 l 194 904 q 300 667 250 806 l 211 638 q 108 872 157 786 m 333 901 l 419 935 q 521 697 475 831 l 433 667 q 333 901 386 803 m 653 621 l 567 653 q 708 976 649 790 l 800 953 q 653 621 735 756 m 338 -10 q 388 3 378 -10 q 399 72 399 15 l 399 203 q 65 176 254 189 l 60 267 q 399 293 250 279 l 399 399 l 439 399 q 646 507 553 449 l 108 507 l 108 594 l 789 594 l 789 507 q 507 336 660 407 l 507 306 q 832 347 669 325 l 835 257 q 507 214 692 235 l 507 60 q 483 -74 507 -46 q 371 -101 458 -101 q 168 -94 317 -101 l 165 -3 q 338 -10 294 -10 z "},"乾":{"ha":1389,"x_min":58,"x_max":1350,"o":"m 183 494 l 183 357 l 528 357 l 528 494 l 183 494 m 183 575 l 528 575 l 528 703 l 183 703 l 183 575 m 622 785 l 622 275 l 406 275 l 406 160 l 649 160 l 649 72 l 406 72 l 406 -129 l 301 -129 l 301 72 l 58 72 l 58 160 l 301 160 l 301 275 l 183 275 l 83 275 l 83 785 l 301 785 l 301 900 l 58 900 l 58 989 l 301 989 l 301 1129 l 406 1129 l 406 989 l 660 989 l 660 900 l 406 900 l 406 785 l 622 785 m 1236 326 l 1343 317 q 1338 213 1340 253 q 1328 129 1335 172 q 1317 61 1322 86 q 1301 10 1313 36 q 1278 -28 1289 -15 q 1245 -55 1267 -42 q 1203 -73 1224 -68 q 1149 -82 1183 -78 q 1081 -87 1114 -86 q 997 -87 1049 -87 q 736 -53 813 -87 q 660 58 660 -19 q 788 324 660 153 q 1144 685 915 496 l 788 685 l 788 744 q 710 597 751 664 l 631 667 q 810 1151 753 872 l 910 1133 q 885 1021 900 1078 l 1350 1021 l 1350 928 l 857 928 q 801 775 829 840 l 1306 775 l 1306 685 q 926 332 1071 504 q 781 86 781 160 q 827 28 781 49 q 997 7 874 7 q 1070 7 1047 7 q 1124 13 1093 7 q 1165 24 1154 19 q 1192 49 1176 29 q 1213 85 1208 68 q 1223 144 1217 103 q 1231 221 1229 185 q 1236 326 1233 257 z "}}}
